<?xml version="1.0" encoding="utf-8"?>
<!-- Generator: Adobe Illustrator 16.0.0, SVG Export Plug-In . SVG Version: 6.00 Build 0)  -->
<!DOCTYPE svg PUBLIC "-//W3C//DTD SVG 1.1//EN" "http://www.w3.org/Graphics/SVG/1.1/DTD/svg11.dtd">
<svg version="1.1" id="Layer_1" xmlns="http://www.w3.org/2000/svg" xmlns:xlink="http://www.w3.org/1999/xlink" x="0px" y="0px"
	 width="500px" height="500px" viewBox="0 0 500 500" enable-background="new 0 0 500 500" xml:space="preserve">
<circle fill="#238186" cx="250" cy="250" r="250"/>
<g>
	<path fill="#FDFEFF" d="M333.238,158.066L319.814,271.79c-0.979,7.974-1.465,15.618-1.465,22.938
		c0,10.901,3.903,16.352,11.715,16.352c12.523,0,24.523-8.58,35.993-25.747c11.472-17.163,17.205-37.949,17.205-62.353
		c0-35.303-12.729-63.978-38.191-86.026c-25.463-22.044-56.335-33.067-92.614-33.067c-39.862,0-73.333,13.666-100.423,40.999
		C124.946,172.219,111.4,205.897,111.4,245.92c0,37.423,12.729,69.917,38.192,97.495c25.46,27.577,61.213,41.364,107.256,41.364
		c35.791,0,72.317-9.598,109.577-28.797l14.4,33.19c-39.863,20.34-81.187,30.506-123.974,30.506
		c-56.784,0-101.889-17.121-135.323-51.37c-33.434-34.246-50.15-75.123-50.15-122.63c0-49.621,17.57-91.108,52.713-124.461
		c35.143-33.351,77.605-50.029,127.391-50.029c46.854,0,86.227,14.361,118.115,43.074c31.889,28.717,47.833,64.957,47.833,108.722
		c0,31.725-8.947,59.997-26.844,84.804c-17.898,24.813-39.699,37.218-65.403,37.218c-20.012,0-33.842-8.458-41.485-25.381
		c-13.995,17.568-31.078,26.357-51.25,26.357c-20.663,0-38.357-8.625-53.08-25.871c-14.726-17.241-22.085-39.938-22.085-68.088
		c0-28.958,8.298-52.506,24.894-70.649c16.596-18.14,36.362-27.211,59.302-27.211c22.125,0,38.069,6.997,47.832,20.987l1.953-17.083
		L333.238,158.066L333.238,158.066z M235.622,306.2c13.013,0,24.771-6.306,35.264-18.915c10.494-12.605,15.741-28.999,15.741-49.175
		c0-11.386-4.027-21.598-12.081-30.627c-8.054-9.029-17.938-13.544-29.65-13.544c-12.691,0-23.184,5.575-31.482,16.717
		c-8.297,11.146-12.446,25.587-12.446,43.316c0,15.131,3.21,27.618,9.639,37.461C217.032,301.279,225.371,306.2,235.622,306.2z"/>
</g>
</svg>
