<?xml version="1.0" encoding="utf-8"?>
<!-- Generator: Adobe Illustrator 16.0.0, SVG Export Plug-In . SVG Version: 6.00 Build 0)  -->
<!DOCTYPE svg PUBLIC "-//W3C//DTD SVG 1.1//EN" "http://www.w3.org/Graphics/SVG/1.1/DTD/svg11.dtd">
<svg version="1.1" id="Layer_2" xmlns="http://www.w3.org/2000/svg" xmlns:xlink="http://www.w3.org/1999/xlink" x="0px" y="0px"
	 width="500px" height="500px" viewBox="0 0 500 500" enable-background="new 0 0 500 500" xml:space="preserve">
<g id="hRZOtB_1_">
	<g>
		<path fill="#D3DE2B" d="M331,490.989c-4.333,0-8.667,0-13,0c-1.961-2.204-3.921-4.409-6-6.746c0-14.09,0.13-28.421-0.037-42.748
			c-0.164-14.194,0.989-28.433-1.028-42.566c-0.509-3.565-0.586-7.27-1.954-10.67c-3.084-7.659-5.072-15.901-11.778-21.638
			c-1.986-1.699-1.681-3.22,0.543-5.656c1.54,0.379,2.731,1.768,4.804,0.273c1.321-0.952,4.149,0.377,5.76-0.417
			c1.634-0.805,3.318-0.253,4.614-0.934c1.718-0.902,3.388-0.802,5.135-0.931c0.744-0.056,1.467-0.454,2.19-0.72
			c2.024-0.743,3.989-1.867,6.077-2.183c8.19-1.24,15.331-3.966,22.442-7.398c5.567-2.686,10.998-5.671,16.381-8.714
			c2.061-1.165,3.964-2.712,5.688-4.35c3.864-3.672,7.623-7.458,11.317-11.302c1.782-1.854,3.536-3.805,4.926-5.955
			c2.882-4.457,6.313-8.585,8.507-13.462c1.895-4.211,3.964-8.393,5.313-12.784c1.276-4.152,2.768-8.263,3.286-12.701
			c0.254-2.169,0.315-4.495,0.904-6.58c1.414-4.999,2.001-10.025,1.955-15.192c-0.015-1.706-0.817-3.668,0.925-5.097
			c-0.641-2.501,1.107-4.644,1.046-7.072c-0.067-2.664,0.138-5.343-0.062-7.994c-0.178-2.368,0.366-4.675-0.771-7.17
			c-0.983-2.157-0.527-4.967-1.011-7.533c-1.104-5.854-2.3-11.646-4.161-17.309c-1.992-6.06-4.826-11.717-8.197-17.095
			c-2.528-4.033-5.074-8.065-8.415-11.538c-1.047-1.09-2.229-2.628-2.262-3.986c-0.056-2.355-0.57-4.711,0.517-7.228
			c0.88-2.037,1.087-4.502,1.927-6.696c0.912-2.381,0.774-4.98,1.222-7.446c0.732-4.032,0.062-8.301,0.237-12.459
			c0.172-4.091-1.771-7.968-1.045-12.085c0.026-0.15,0.021-0.351-0.059-0.471c-1.854-2.818-1.401-6.31-2.838-9.329
			c-1.445-3.04-2.197-6.431-3.057-9.719c-0.444-1.699-1.289-2.614-3.004-2.375c-2.197,0.308-4.337-0.249-6.678,0.768
			c-1.992,0.865-4.637,0.625-7.012,1.121c-6.721,1.402-13.106,3.71-19.282,6.584c-4.484,2.088-8.746,4.669-13.146,6.912
			c-6,3.059-11.632,6.645-17.14,10.438c-1.529,1.054-2.893,1.514-4.453,0.936c-6.014-2.228-12.323-3.447-18.55-4.576
			c-4.339-0.787-8.77-1.261-13.153-2.086c-3.441-0.647-7.028-0.405-10.586-0.951c-4.558-0.7-9.324-0.436-13.965-0.097
			c-4.79,0.351-9.369-1.249-14.085-1.036c-3.037,0.137-6.062,0.59-9.083,0.977c-2.038,0.261-4.047,0.79-6.089,0.949
			c-2.153,0.167-4.766-0.724-6.396,0.212c-2.578,1.479-5.28,0.56-7.898,1.476c-2.7,0.945-5.738,1.92-8.556,2.148
			c-4.175,0.338-7.906,2.688-12.152,2.201c-1.639,2.047-3.417,0.436-4.507-0.335c-8.291-5.858-17.202-10.604-26.261-15.102
			c-3.865-1.92-7.628-4.489-11.735-5.356c-4.597-0.972-8.883-3.316-13.709-3.207c-1.796-2.135-4.46-0.15-6.439-1.348
			c-2.32-1.404-4.704-0.332-7.048-0.646c-1.268,3.548-2.471,6.717-3.532,9.934c-1.258,3.816-2.835,7.604-3.461,11.533
			c-0.657,4.125-0.467,8.376-0.891,12.586c-0.496,4.918-0.573,9.988,0.552,15.106c0.974,4.429,1.916,8.856,3.021,13.271
			c0.728,2.907,0.693,6.112-1.477,8.74c-1.536,1.86-3.124,3.684-4.578,5.607c-1.327,1.754-2.532,3.604-3.743,5.442
			c-2.991,4.542-5.459,9.332-7.26,14.489c-1.895,5.426-3.794,10.806-4.88,16.501c-0.52,2.725-0.096,5.681-1.069,8.025
			c-0.972,2.342-0.389,4.486-0.808,6.666c-0.42,2.184-1.244,4.261-1.028,6.59c0.312,3.364,0.277,6.705,0.845,10.112
			c0.82,4.918,0.27,10.022,1.001,15.077c0.408,2.821,1.205,5.644,1.246,8.555c0.014,1.032,0.689,2.039,0.935,3.088
			c0.819,3.5,1.378,7.074,2.412,10.507c1.509,5.013,3.344,9.935,5.628,14.657c1.547,3.199,3.157,6.389,5.012,9.414
			c2.297,3.746,4.51,7.65,7.427,10.882c3.652,4.046,7.015,8.446,11.509,11.689c1.286,0.929,2.566,1.866,3.825,2.83
			c1.26,0.965,2.445,2.018,3.737,2.953c3.196,2.318,6.771,3.907,10.021,6.005c4.641,2.996,9.755,4.66,14.747,6.706
			c2.564,1.051,5.25,1.803,7.875,2.71c6.628,2.291,13.461,3.862,20.31,5.225c4.583,0.911,9.343,0.935,12.931,1.258
			c1.665,1.145,2.743,1.887,3.856,2.652c-8.012,9.767-13.521,20.3-14.534,33.115c-2.46,1.139-5.089,2.441-7.79,3.57
			c-1.278,0.534-2.687,0.767-4.048,1.085c-3.496,0.819-6.961,1.937-10.507,2.341c-6.374,0.727-12.643-1.438-19.08-1.055
			c-2.176,0.13-4.557-0.952-6.64-1.921c-6.83-3.176-13.112-7.104-18.217-12.855c-2.465-2.777-4.523-5.743-6.471-8.85
			c-1.664-2.653-3.003-5.684-5.215-7.778c-3.378-3.199-5.706-7.255-9.611-10.114c-3.452-2.529-6.794-5.217-10.576-7.199
			c-4.903-2.57-10.561-2.572-15.769-4.156c-2.252,1.161-4.776,1.354-7.156,2.047c-1.699,0.495-2.331,2.745-1.12,3.937
			c2.802,2.758,5.789,5.327,8.653,8.023c3.632,3.421,8.487,5.312,11.633,9.329c1.08,1.378,1.992,2.914,3.208,4.154
			c3.816,3.889,6.097,8.798,8.899,13.336c2.997,4.854,4.083,10.658,7.086,15.542c1.483,2.412,3.26,4.644,4.831,7.005
			c1.685,2.532,3.826,4.47,6.202,6.428c4.448,3.665,9.21,6.289,14.53,8.5c7.148,2.971,14.348,4.751,22.047,4.704
			c4.499-0.027,9.002,0.125,13.495-0.042c4.367-0.162,8.723-0.628,13.083-0.965c0.48-0.037,1.152,0.088,1.406-0.178
			c1.562-1.632,3.408-0.374,5.237-0.976c0,18.145,0,35.926,0,53.344c-1.122,1.651-2.322,3-3.036,4.568
			c-1.03,2.263-3.9,0.077-4.818,2.243c-3.667,0-7.333,0-11,0c-0.632-1.501-2.144-1.557-3.385-1.978
			c-1.905-0.646-3.94-0.954-5.777-1.741c-3.822-1.637-7.56-3.473-11.315-5.264c-14.604-6.967-29.336-13.712-42.032-24.018
			c-6.227-2.928-11.248-7.612-16.585-11.764c-5.036-3.916-9.504-8.574-14.135-12.997c-3.493-3.336-7.262-6.503-10.152-10.318
			c-3.134-4.138-7.009-7.583-10.041-11.786c-2.711-3.757-5.991-7.125-8.503-11c-2.896-4.466-6.245-8.604-8.889-13.277
			c-2.829-4.999-6.117-9.744-8.739-14.889c-5.461-10.716-10.728-21.515-14.832-32.843c-1.154-3.186-2.808-6.245-3.527-9.518
			c-1.304-5.938-3.379-11.657-4.603-17.606c-0.755-3.67-1.783-7.286-2.443-10.971c-0.536-2.991-0.1-6.296-1.206-9.008
			c-1.201-2.945,0.124-6.025-1.058-8.551c-1.387-2.964-0.331-5.822-0.767-8.683c-0.122-0.802-0.065-1.631-0.195-2.431
			c-0.026-0.16-0.531-0.241-0.816-0.359c0-14,0-28,0-42c0.333-0.431,0.924-0.843,0.958-1.296c0.232-3.041,0.398-6.059,0.823-9.109
			c0.658-4.725,1.189-9.454,2.159-14.147c0.633-3.067,0.996-6.153,1.972-9.184c1.051-3.265,1.19-6.817,2.155-10.119
			c0.874-2.991,1.427-6.062,2.354-9.017c3.373-10.747,7.575-21.174,12.575-31.273c0.684-1.381,1.446-2.737,1.982-4.176
			c1.627-4.371,3.76-8.475,6.247-12.408c2.836-4.487,5.61-9.016,8.496-13.471c2.646-4.083,5.347-8.134,8.131-12.124
			c2.479-3.552,5.372-6.811,7.98-10.239c3.791-4.98,7.707-9.854,11.864-14.498c3.257-3.637,6.952-6.891,10.71-10.093
			c5.436-4.632,10.768-9.404,16.187-14.075c4.243-3.657,9.131-6.312,13.517-9.721c3.081-2.395,6.43-4.484,9.822-6.424
			c4.864-2.78,9.435-6.018,14.375-8.699c8.02-4.354,16.344-8.002,24.772-11.406c3.988-1.61,7.948-3.341,12.097-4.604
			c2.385-0.727,4.729-1.468,7.152-2.081c2.383-0.604,4.588-1.982,7.199-1.863c5.287-3.497,12.135-1.486,17.459-4.932
			c0.47-0.304,1.307-0.04,1.973-0.04c0.833,0,2.101,0.349,2.426-0.059c1.701-2.12,4.261-0.394,6.373-1.735
			c1.804-1.146,4.746-0.482,7.182-0.654c2.257-0.159,4.509-0.396,6.768-0.539c1.162-0.073,2.338,0.053,3.493-0.059
			c0.294-0.028,0.533-0.621,0.797-0.954c13.333,0,26.667,0,40,0c0.118,0.284,0.226,0.812,0.355,0.817
			c2.31,0.099,4.632,0.023,6.933,0.213c2.372,0.196,4.728,0.929,7.085,0.902c3.737-0.04,7.209,0.804,10.682,2.027
			c1.611,0.568,3.371,0.968,5.07,0.99c4.658,0.059,8.877,2.598,13.581,2.271c0.109-0.008,0.214,0.278,0.355,0.329
			c2.324,0.826,4.615,1.777,6.989,2.426c10.888,2.975,21.449,6.981,31.702,11.543c7.442,3.311,14.914,6.783,21.849,11.313
			c3.223,2.105,6.484,4.309,9.913,6.145c3.505,1.876,6.566,4.333,9.774,6.637c5.701,4.095,11.823,7.6,16.649,12.823
			c0.112,0.123,0.217,0.309,0.355,0.344c2.404,0.61,3.495,2.832,5.236,4.253c1.87,1.525,3.847,2.941,5.575,4.614
			c6.346,6.14,12.231,12.676,17.797,19.562c4.031,4.989,8.108,9.925,11.938,15.08c6.186,8.328,12.049,16.883,17.096,25.924
			c6.39,11.447,11.989,23.304,16.438,35.665c1.565,4.352,3.734,8.615,4.452,13.106c0.798,4.991,2.601,9.681,3.579,14.611
			c0.954,4.806,1.739,9.803,3.595,14.449c-0.732,2.825,1.212,5.328,0.989,8.081c-0.224,2.773,0.507,5.402,0.942,8.095
			c0.341,2.11,0.014,4.323,0.113,6.484c0.021,0.445,0.622,0.863,0.955,1.294c0,16.333,0,32.667,0,49
			c-0.167,0-0.474-0.028-0.479,0.004c-0.562,2.78-1.827,5.428-1.536,8.373c0.098,0.989,0.427,2.34-0.065,2.93
			c-1.236,1.481-0.716,3.089-0.942,4.647c-0.225,1.544-0.936,3.064-0.911,4.587c0.042,2.617-1.16,4.906-1.513,7.399
			c-0.678,4.801-3.52,9.019-3.639,14.019c-0.043,1.772-1.133,3.504-1.641,5.283c-1.146,4.013-2.862,7.842-4.126,11.773
			c-2.324,7.238-5.728,13.972-8.653,20.92c-3.431,8.144-8.112,15.662-12.533,23.291c-2.431,4.194-4.963,8.396-7.986,12.164
			c-3.909,4.872-7.445,10.021-11.453,14.833c-3.341,4.012-6.28,8.499-9.789,12.326c-7.361,8.026-15.062,15.795-23.57,22.641
			c-1.886,1.518-3.614,3.234-5.561,4.632c-6.392,4.593-12.852,9.101-19.418,13.438c-5.069,3.349-10.267,6.521-15.543,9.532
			c-3.88,2.216-7.953,4.103-11.988,6.037c-7.5,3.594-14.946,7.322-22.887,9.902C334.078,489.271,332.039,489.079,331,490.989z"/>
		<path fill-rule="evenodd" clip-rule="evenodd" fill="none" d="M181,490.989c0.918-2.166,3.788,0.02,4.818-2.243
			c0.714-1.568,1.914-2.917,3.036-4.568c0-17.418,0-35.199,0-53.344c-1.829,0.602-3.675-0.656-5.237,0.976
			c-0.254,0.266-0.926,0.141-1.406,0.178c-4.36,0.337-8.716,0.803-13.083,0.965c-4.493,0.167-8.996,0.015-13.495,0.042
			c-7.699,0.047-14.898-1.733-22.047-4.704c-5.319-2.211-10.082-4.835-14.53-8.5c-2.375-1.958-4.517-3.896-6.202-6.428
			c-1.571-2.361-3.347-4.593-4.831-7.005c-3.003-4.884-4.09-10.688-7.086-15.542c-2.802-4.538-5.083-9.447-8.899-13.336
			c-1.217-1.24-2.129-2.776-3.208-4.154c-3.146-4.018-8.001-5.908-11.633-9.329c-2.864-2.696-5.851-5.266-8.653-8.023
			c-1.21-1.191-0.579-3.441,1.12-3.937c2.38-0.693,4.904-0.886,7.156-2.047c5.208,1.584,10.865,1.586,15.769,4.156
			c3.782,1.982,7.124,4.67,10.576,7.199c3.905,2.859,6.232,6.915,9.611,10.114c2.211,2.095,3.551,5.125,5.215,7.778
			c1.948,3.106,4.006,6.072,6.471,8.85c5.105,5.752,11.387,9.68,18.217,12.855c2.083,0.969,4.464,2.051,6.64,1.921
			c6.438-0.384,12.707,1.781,19.08,1.055c3.545-0.404,7.011-1.521,10.507-2.341c1.361-0.318,2.771-0.551,4.048-1.085
			c2.701-1.129,5.33-2.432,7.79-3.57c1.013-12.815,6.521-23.349,14.534-33.115c-1.113-0.766-2.191-1.508-3.856-2.652
			c-3.587-0.323-8.347-0.347-12.931-1.258c-6.849-1.362-13.682-2.934-20.31-5.225c-2.625-0.907-5.311-1.659-7.875-2.71
			c-4.992-2.046-10.106-3.71-14.747-6.706c-3.25-2.098-6.824-3.687-10.021-6.005c-1.292-0.936-2.477-1.988-3.737-2.953
			c-1.259-0.964-2.539-1.901-3.825-2.83c-4.494-3.243-7.857-7.644-11.509-11.689c-2.917-3.231-5.13-7.136-7.427-10.882
			c-1.855-3.025-3.465-6.215-5.012-9.414c-2.284-4.723-4.119-9.645-5.628-14.657c-1.034-3.433-1.592-7.007-2.412-10.507
			c-0.246-1.049-0.921-2.056-0.935-3.088c-0.041-2.911-0.837-5.733-1.246-8.555c-0.731-5.055-0.181-10.159-1.001-15.077
			c-0.568-3.407-0.533-6.748-0.845-10.112c-0.216-2.329,0.608-4.406,1.028-6.59c0.419-2.18-0.164-4.324,0.808-6.666
			c0.973-2.345,0.549-5.301,1.069-8.025c1.086-5.695,2.985-11.075,4.88-16.501c1.801-5.157,4.269-9.947,7.26-14.489
			c1.211-1.839,2.416-3.688,3.743-5.442c1.455-1.924,3.042-3.747,4.578-5.607c2.17-2.628,2.205-5.833,1.477-8.74
			c-1.105-4.414-2.047-8.842-3.021-13.271c-1.125-5.118-1.048-10.188-0.552-15.106c0.424-4.21,0.234-8.461,0.891-12.586
			c0.626-3.93,2.203-7.717,3.461-11.533c1.061-3.217,2.264-6.386,3.532-9.934c2.344,0.314,4.728-0.758,7.048,0.646
			c1.979,1.197,4.643-0.787,6.439,1.348c4.826-0.109,9.113,2.235,13.709,3.207c4.106,0.867,7.87,3.437,11.735,5.356
			c9.059,4.497,17.97,9.243,26.261,15.102c1.09,0.771,2.868,2.382,4.507,0.335c4.246,0.486,7.977-1.863,12.152-2.201
			c2.818-0.229,5.856-1.203,8.556-2.148c2.618-0.916,5.32,0.003,7.898-1.476c1.63-0.936,4.242-0.045,6.396-0.212
			c2.042-0.159,4.051-0.688,6.089-0.949c3.021-0.387,6.046-0.84,9.083-0.977c4.716-0.213,9.295,1.387,14.085,1.036
			c4.641-0.339,9.407-0.604,13.965,0.097c3.558,0.546,7.145,0.304,10.586,0.951c4.384,0.825,8.814,1.299,13.153,2.086
			c6.227,1.129,12.536,2.349,18.55,4.576c1.561,0.578,2.924,0.118,4.453-0.936c5.508-3.793,11.14-7.379,17.14-10.438
			c4.399-2.243,8.661-4.824,13.146-6.912c6.176-2.874,12.562-5.182,19.282-6.584c2.375-0.496,5.02-0.256,7.012-1.121
			c2.341-1.017,4.48-0.46,6.678-0.768c1.715-0.239,2.56,0.676,3.004,2.375c0.859,3.288,1.611,6.679,3.057,9.719
			c1.437,3.02,0.984,6.511,2.838,9.329c0.079,0.12,0.085,0.32,0.059,0.471c-0.727,4.117,1.217,7.994,1.045,12.085
			c-0.176,4.158,0.495,8.427-0.237,12.459c-0.447,2.466-0.31,5.065-1.222,7.446c-0.84,2.194-1.047,4.659-1.927,6.696
			c-1.087,2.517-0.572,4.872-0.517,7.228c0.032,1.358,1.215,2.896,2.262,3.986c3.341,3.473,5.887,7.505,8.415,11.538
			c3.371,5.378,6.205,11.035,8.197,17.095c1.861,5.662,3.057,11.454,4.161,17.309c0.483,2.566,0.027,5.376,1.011,7.533
			c1.138,2.495,0.594,4.802,0.771,7.17c0.199,2.651-0.006,5.33,0.062,7.994c0.062,2.429-1.687,4.571-1.046,7.072
			c-1.742,1.429-0.939,3.391-0.925,5.097c0.046,5.167-0.541,10.193-1.955,15.192c-0.589,2.085-0.65,4.411-0.904,6.58
			c-0.519,4.438-2.01,8.549-3.286,12.701c-1.35,4.392-3.419,8.573-5.313,12.784c-2.193,4.877-5.625,9.005-8.507,13.462
			c-1.39,2.15-3.144,4.101-4.926,5.955c-3.694,3.844-7.453,7.63-11.317,11.302c-1.724,1.638-3.627,3.185-5.688,4.35
			c-5.383,3.043-10.813,6.028-16.381,8.714c-7.111,3.433-14.252,6.158-22.442,7.398c-2.088,0.315-4.053,1.439-6.077,2.183
			c-0.724,0.266-1.446,0.664-2.19,0.72c-1.747,0.129-3.417,0.028-5.135,0.931c-1.296,0.681-2.98,0.129-4.614,0.934
			c-1.61,0.794-4.438-0.535-5.76,0.417c-2.072,1.494-3.264,0.105-4.804-0.273c-2.224,2.437-2.529,3.957-0.543,5.656
			c6.706,5.736,8.694,13.979,11.778,21.638c1.368,3.4,1.445,7.104,1.954,10.67c2.018,14.134,0.864,28.372,1.028,42.566
			c0.167,14.327,0.037,28.658,0.037,42.748c2.079,2.337,4.039,4.542,6,6.746C273,490.989,227,490.989,181,490.989z"/>
		<path fill-rule="evenodd" clip-rule="evenodd" fill="none" d="M231,0.989c-0.264,0.333-0.503,0.926-0.797,0.954
			c-1.155,0.111-2.332-0.015-3.493,0.059c-2.258,0.143-4.51,0.38-6.768,0.539c-2.436,0.172-5.378-0.491-7.182,0.654
			c-2.112,1.342-4.672-0.385-6.373,1.735c-0.326,0.407-1.593,0.059-2.426,0.059c-0.666,0-1.503-0.264-1.973,0.04
			c-5.324,3.445-12.172,1.435-17.459,4.932c-2.611-0.119-4.815,1.26-7.199,1.863c-2.423,0.613-4.767,1.354-7.152,2.081
			c-4.149,1.264-8.109,2.994-12.097,4.604c-8.428,3.404-16.752,7.053-24.772,11.406c-4.94,2.682-9.51,5.919-14.375,8.699
			c-3.393,1.939-6.742,4.029-9.822,6.424c-4.386,3.409-9.274,6.063-13.517,9.721c-5.419,4.671-10.75,9.443-16.187,14.075
			c-3.758,3.202-7.453,6.456-10.71,10.093c-4.157,4.644-8.073,9.518-11.864,14.498c-2.609,3.429-5.501,6.688-7.98,10.239
			c-2.785,3.99-5.486,8.041-8.131,12.124c-2.886,4.455-5.66,8.983-8.496,13.471c-2.486,3.934-4.619,8.037-6.247,12.408
			c-0.536,1.438-1.298,2.795-1.982,4.176c-5,10.1-9.203,20.526-12.575,31.273c-0.927,2.955-1.481,6.025-2.354,9.017
			c-0.964,3.302-1.104,6.854-2.155,10.119c-0.976,3.03-1.339,6.116-1.972,9.184c-0.97,4.693-1.501,9.423-2.159,14.147
			c-0.425,3.051-0.591,6.068-0.823,9.109c-0.035,0.453-0.625,0.865-0.958,1.296c0-76.333,0-152.667,0-229
			C77.667,0.989,154.333,0.989,231,0.989z"/>
		<path fill-rule="evenodd" clip-rule="evenodd" fill="none" d="M501,230.989c-0.333-0.431-0.934-0.849-0.955-1.294
			c-0.1-2.161,0.228-4.374-0.113-6.484c-0.436-2.692-1.166-5.321-0.942-8.095c0.223-2.753-1.722-5.256-0.989-8.081
			c-1.855-4.646-2.641-9.644-3.595-14.449c-0.979-4.931-2.781-9.62-3.579-14.611c-0.718-4.491-2.887-8.755-4.452-13.106
			c-4.449-12.361-10.049-24.218-16.438-35.665c-5.047-9.041-10.91-17.596-17.096-25.924c-3.829-5.155-7.906-10.091-11.938-15.08
			c-5.565-6.887-11.451-13.423-17.797-19.562c-1.729-1.673-3.705-3.089-5.575-4.614c-1.741-1.421-2.832-3.643-5.236-4.253
			c-0.139-0.035-0.243-0.221-0.355-0.344c-4.826-5.224-10.948-8.729-16.649-12.823c-3.208-2.304-6.27-4.761-9.774-6.637
			c-3.429-1.836-6.69-4.039-9.913-6.145c-6.935-4.53-14.406-8.003-21.849-11.313c-10.253-4.562-20.814-8.568-31.702-11.543
			c-2.374-0.648-4.665-1.6-6.989-2.426c-0.142-0.051-0.246-0.337-0.355-0.329c-4.704,0.327-8.923-2.212-13.581-2.271
			c-1.699-0.022-3.459-0.422-5.07-0.99c-3.473-1.224-6.944-2.067-10.682-2.027c-2.357,0.026-4.713-0.706-7.085-0.902
			c-2.301-0.189-4.623-0.114-6.933-0.213c-0.13-0.005-0.237-0.533-0.355-0.817c76.667,0,153.333,0,230,0
			C501,77.656,501,154.322,501,230.989z"/>
		<path fill-rule="evenodd" clip-rule="evenodd" fill="none" d="M332,490.989c1.039-1.91,3.078-1.719,4.766-2.268
			c7.94-2.58,15.387-6.309,22.887-9.902c4.035-1.935,8.108-3.821,11.988-6.037c5.276-3.012,10.474-6.184,15.543-9.532
			c6.566-4.338,13.026-8.846,19.418-13.438c1.946-1.397,3.675-3.114,5.561-4.632c8.508-6.846,16.209-14.614,23.57-22.641
			c3.509-3.827,6.448-8.314,9.789-12.326c4.008-4.812,7.544-9.961,11.453-14.833c3.023-3.768,5.556-7.97,7.986-12.164
			c4.421-7.629,9.103-15.147,12.533-23.291c2.926-6.948,6.329-13.682,8.653-20.92c1.264-3.932,2.979-7.761,4.126-11.773
			c0.508-1.779,1.598-3.511,1.641-5.283c0.119-5,2.961-9.218,3.639-14.019c0.353-2.493,1.555-4.782,1.513-7.399
			c-0.024-1.522,0.687-3.043,0.911-4.587c0.227-1.559-0.294-3.166,0.942-4.647c0.492-0.59,0.163-1.94,0.065-2.93
			c-0.291-2.945,0.975-5.593,1.536-8.373c0.006-0.032,0.312-0.004,0.479-0.004c0,70.333,0,140.667,0,211
			C444.667,490.989,388.333,490.989,332,490.989z"/>
		<path fill-rule="evenodd" clip-rule="evenodd" fill="none" d="M1,271.989c0.285,0.118,0.79,0.199,0.816,0.359
			c0.13,0.8,0.073,1.629,0.195,2.431c0.436,2.86-0.62,5.719,0.767,8.683c1.181,2.525-0.143,5.605,1.058,8.551
			c1.106,2.712,0.669,6.017,1.206,9.008c0.661,3.685,1.688,7.301,2.443,10.971c1.224,5.949,3.299,11.669,4.603,17.606
			c0.719,3.272,2.373,6.332,3.527,9.518c4.104,11.328,9.371,22.127,14.832,32.843c2.622,5.145,5.91,9.89,8.739,14.889
			c2.645,4.674,5.993,8.812,8.889,13.277c2.513,3.875,5.792,7.243,8.503,11c3.032,4.203,6.906,7.648,10.041,11.786
			c2.89,3.815,6.66,6.982,10.152,10.318c4.631,4.423,9.099,9.081,14.135,12.997c5.337,4.151,10.358,8.836,16.585,11.764
			c12.696,10.306,27.428,17.051,42.032,24.018c3.755,1.791,7.493,3.627,11.315,5.264c1.837,0.787,3.873,1.096,5.777,1.741
			c1.241,0.421,2.753,0.477,3.385,1.978c-56.333,0-112.667,0-169,0C1,417.989,1,344.989,1,271.989z"/>
	</g>
</g>
</svg>
