<?xml version="1.0" encoding="utf-8"?>
<!-- Generator: Adobe Illustrator 16.0.0, SVG Export Plug-In . SVG Version: 6.00 Build 0)  -->
<!DOCTYPE svg PUBLIC "-//W3C//DTD SVG 1.1//EN" "http://www.w3.org/Graphics/SVG/1.1/DTD/svg11.dtd">
<svg version="1.1" id="Layer_1" xmlns="http://www.w3.org/2000/svg" xmlns:xlink="http://www.w3.org/1999/xlink" x="0px" y="0px"
	 width="500px" height="500px" viewBox="0 0 500 500" enable-background="new 0 0 500 500" xml:space="preserve">
<polygon fill="#FFFFFF" points="68.432,358.249 68.5,358.527 68.274,358.493 "/>
<polygon fill="#FFFFFF" points="126.931,351.249 127,351.527 126.774,351.493 "/>
<g id="YSi5Hq_2_">
	<g>
		<path fill="#238185" d="M499.983,237.081c0,9.764,0,19.551,0,29.336c-0.134,0.152-0.318,0.291-0.336,0.44
			c-0.066,0.482,0.049,1.021-0.097,1.477c-0.563,1.688-0.671,3.447-0.87,5.195c-0.125,1.081-0.078,2.23,0.218,3.418
			c0.412,1.556-0.302,3.17-0.589,4.748c-0.876,0.939-0.66,2.126-0.66,3.272c-0.029,0.952,0.259,2.011-0.091,2.806
			c-0.342,0.778-0.063,1.578-0.526,2.319c-0.377,0.635-0.168,1.614-0.414,2.346c-0.323,0.909-0.104,1.896-0.384,2.732
			c-0.168,0.598-0.168,1.149-0.259,1.712c-0.104,0.581-0.239,1.15-0.317,1.712c-0.146,0.927-0.092,1.88-0.386,2.746
			c-0.447,1.165-0.673,2.419-0.904,3.636c-0.463,2.36-1.073,4.703-1.909,6.979c-0.882,2.443-1.521,4.979-2.092,7.516
			c-0.33,1.484-0.647,2.984-1.067,4.456c-0.396,1.539-0.744,3.051-1.351,4.501c-0.948,2.292-1.598,4.707-2.431,7.063
			c-0.772,2.194-1.535,4.43-2.412,6.568c-0.995,2.502-2.154,4.931-3.133,7.435c-0.553,1.422-1.47,2.667-1.925,4.08
			c-0.378,1.266-0.931,2.452-1.452,3.623c-0.521,1.245-0.966,2.505-1.596,3.72c-1.002,1.86-2.005,3.757-3.006,5.631
			c-0.771,1.468-1.487,2.987-2.354,4.424c-0.498,0.848-0.94,1.719-1.408,2.586c-0.919,1.604-1.944,3.145-2.888,4.707
			c-0.75,1.243-1.402,2.57-2.172,3.795c-1.702,2.74-3.432,5.433-5.159,8.138c-1.948,3.033-4.031,5.959-6.257,8.813
			c-0.876,1.164-1.79,2.284-2.652,3.46c-1.041,1.434-2.2,2.762-3.239,4.172c-1.062,1.454-2.322,2.717-3.391,4.188
			c-1.229,1.676-2.608,3.275-3.898,4.907c-0.737,0.934-1.673,1.744-2.297,2.75c-0.541,0.811-1.2,1.415-1.819,2.104
			c-0.616,0.753-1.183,1.547-1.878,2.236c-4.102,3.986-7.848,8.336-12.201,12.069c-1.218,1.021-2.249,2.18-3.492,3.233
			c-1.534,1.288-3.068,2.576-4.541,3.953c-1.519,1.368-3.196,2.569-4.714,3.984c-0.611,0.601-1.261,1.202-1.969,1.653
			c-2.104,1.359-3.972,3.011-5.994,4.454c-1.764,1.251-3.503,2.546-5.309,3.746c-2.997,2.003-5.919,4.126-9.021,6.017
			c-1.351,0.818-2.61,1.749-3.913,2.614c-1.722,1.091-3.454,2.173-5.184,3.214c-1.508,0.912-3.031,1.812-4.578,2.65
			c-3.589,1.908-7.17,3.793-10.919,5.42c-2.347,1.034-4.591,2.33-6.899,3.479c-1.968,1.003-3.917,2.066-5.938,2.973
			c-1.969,0.884-3.968,1.676-5.987,2.447c-2.312,0.878-4.669,1.564-6.954,2.528c-1.505,0.649-3.118,1.058-4.596,1.749
			c-0.809,0.356-1.548,0.654-2.411,0.643c-0.156,0-0.28,0.213-0.433,0.321c-0.898,0-1.782,0-2.658,0
			c-0.107-0.104-0.191-0.321-0.299-0.321c-0.625-0.035-1.22-0.009-1.843-0.009c-0.87,0-1.781,0.151-2.634-0.054
			c-0.687-0.172-1.247-0.746-1.883-1.119c-0.856-0.509-1.663-1.08-2.448-1.749c-1.185-1.08-1.94-2.468-2.869-3.724
			c-0.734-0.969-0.691-1.009-0.691-2.384c0-25.406,0-50.812,0-76.229c0-0.496,0.188-1.105-0.023-1.456
			c-0.39-0.616-0.207-1.184-0.307-1.782c-0.103-0.613-0.198-1.243-0.335-1.863c-0.104-0.601-0.283-1.154-0.312-1.719
			c-0.062-1.091,0.127-2.182-0.337-3.218c0.218-1.602-0.288-3.102-0.688-4.608c-0.373-1.44-0.697-2.873-1.134-4.254
			c-0.75-2.2-1.649-4.351-2.521-6.53c-0.396-1.011-0.948-1.961-1.31-3.005c-0.727-1.958-1.637-3.848-2.766-5.555
			c-0.862-1.304-1.914-2.503-2.92-3.65c-0.846-0.992-1.793-1.845-2.625-2.68c0-0.989,0-1.879,0-2.773
			c0.606-0.262,1.237-0.738,1.799-0.372c0.5,0.311,0.943,0.236,1.375,0.236c1.261,0,2.479-0.105,3.73-0.236
			c1.675-0.214,3.348-0.641,5.034-0.843c0.587-0.052,1.296-0.062,1.838-0.307c1.44-0.597,2.977-0.505,4.448-0.933
			c0.618-0.197,1.337-0.019,2.041-0.334c0.582-0.235,1.392,0.137,1.99-0.38c1.682,0.052,3.146-0.716,4.554-1.443
			c1.067-0.56,2.095-0.981,3.307-0.923c0.224,0.03,0.553,0.075,0.644-0.027c0.511-0.706,1.332-0.031,1.961-0.515
			c0.512-0.374,1.308-0.307,1.97-0.465c1.085-0.247,2.158-0.406,3.155-0.804c1.979-0.766,3.98-1.389,5.963-2.148
			c2.533-0.976,5.082-1.984,7.516-3.157c3.246-1.592,6.487-3.194,9.63-4.988c2.424-1.379,4.892-2.676,7.32-4.052
			c2.081-1.165,4.017-2.58,5.778-4.14c2.057-1.831,3.971-3.838,5.979-5.74c3.029-2.832,5.965-5.78,8.615-9.014
			c0.905-1.09,1.704-2.288,2.531-3.492c1.396-2.093,2.825-4.16,4.169-6.325c1.212-1.95,2.424-3.917,3.443-5.968
			c1.092-2.124,1.991-4.346,2.904-6.54c0.475-1.183,1.013-2.4,1.427-3.604c0.749-2.17,1.53-4.324,2.244-6.492
			c0.996-2.854,1.62-5.829,2.425-8.761c0.378-1.434,0.426-2.922,0.714-4.414c0.148-0.811,0.132-1.642,0.354-2.377
			c0.456-1.49,0.448-3.034,0.917-4.505c0.289-0.909,0.15-1.952,0.402-2.854c0.413-1.59,0.673-3.19,0.642-4.797
			c-0.012-0.8,0.037-1.581-0.012-2.372c-0.174-2.271,0.168-4.521,0.379-6.771c0.063-0.708,0.154-1.46,0.432-2.176
			c0.604-1.729,0.727-3.563,0.811-5.375c0.155-3.524,0.055-7.074,0.055-10.606c0-1.134-0.559-2.242-0.336-3.402
			c-0.743-0.722,0.072-1.866-0.677-2.595c0.071-0.899-0.162-1.83-0.281-2.723c-0.115-1.283-0.078-2.601-0.361-3.901
			c-0.281-1.228-0.419-2.519-0.777-3.743c-0.605-1.806-0.757-3.687-1.221-5.525c-0.203-0.776-0.299-1.571-0.539-2.322
			c-0.919-2.711-1.669-5.462-2.785-8.091c-0.665-1.589-1.156-3.223-1.899-4.764c-1.395-2.82-2.754-5.63-4.397-8.298
			c-1.523-2.479-3.19-4.846-4.92-7.214c-0.791-1.056-1.716-2.067-2.43-3.172c-1.326-2.021-2.867-3.883-4.435-5.885
			c0.149-1.127,0.282-2.38,0.414-3.628c0.119-1.065,0.224-2.155,0.343-3.236c0.666-0.479,0.196-1.229,0.42-1.826
			c0.847-2.377,1.747-4.731,1.92-7.306c0.652-0.645,0.174-1.467,0.322-2.217c0.149-0.716,0.36-1.416,0.35-2.225
			c-0.061-5.729,0.012-11.446-0.061-17.199c0-1.577-0.175-3.167-0.296-4.742c-0.012-0.105,0-0.237-0.061-0.298
			c-0.479-0.392-0.18-0.934-0.258-1.396c-0.12-0.542-0.271-1.051-0.331-1.547c-0.146-0.906-0.062-1.907-0.377-2.735
			c-0.595-1.472-0.77-3.036-1.249-4.537c-0.365-1.113-0.51-2.32-0.938-3.485c-0.432-1.16-0.729-2.378-1.115-3.561
			c-0.568-1.789-1.025-3.622-1.774-5.329c-0.373-0.832-0.354-1.958-1.53-2.48c-1.392,0-2.934,0-4.487,0
			c-1.062,0-2.094,0.031-3.154-0.012c-1.086-0.064-2.111,0.565-3.197,0.336c-0.096-0.006-0.24-0.015-0.316,0
			c-1.229,0.677-2.679,0.391-3.92,1.022c-2.129,0.02-4.037,1.035-6.083,1.454c-1.732,0.36-3.462,0.978-5.163,1.589
			c-3.548,1.236-7.02,2.621-10.373,4.29c-2.604,1.283-5.179,2.568-7.704,3.999c-3.124,1.803-6.438,3.264-9.599,5.026
			c-2.273,1.266-4.451,2.667-6.615,4.101c-2.165,1.404-4.254,2.936-6.377,4.382c-0.266,0.155-0.649,0.329-0.932,0.258
			c-0.968-0.199-1.961-0.322-2.897-0.605c-2.537-0.748-5.165-1.154-7.704-1.888c-1.307-0.434-2.633-0.556-3.953-0.948
			c-1.45-0.486-2.998-0.861-4.539-1.025c-0.9-0.125-1.782-0.294-2.693-0.392c-0.9-0.088-1.82-0.192-2.684-0.261
			c-1.7-0.174-3.381-0.447-5.071-0.74c-1.192-0.21-2.325-0.523-3.454-0.9c-1.14-0.359-2.23-0.828-3.517-0.192
			c-0.63,0.315-1.599,0.211-2.274-0.031c-0.49-0.206-0.935-0.206-1.402-0.244c-1.453-0.136-2.893-0.235-4.354-0.328
			c-0.062-0.013-0.127,0-0.149-0.013c-0.677-0.627-1.522-0.081-2.188-0.388c-0.728-0.312-1.461-0.211-2.217-0.294
			c-1.284-0.117-2.619,0.361-3.856-0.304c-0.133-0.088-0.391-0.088-0.465,0c-0.456,0.523-1.044,0.286-1.551,0.304
			c-2.493,0.032-5.012,0.055-7.49,0c-2.453-0.037-4.898-0.037-7.366-0.243c-2.812-0.25-5.681,0.025-8.499,0.324
			c-1.12,0.11-2.233,0.211-3.366,0.279c-0.11,0-0.26-0.074-0.315,0c-0.55,0.618-1.251,0.206-1.88,0.32
			c-0.614,0.119-1.226,0.286-1.846,0.331c-1.729,0.137-3.455,0.238-5.175,0.362c-0.138,0-0.275-0.057-0.363,0
			c-0.771,0.591-1.665,0.23-2.509,0.316c-0.848,0.113-1.683,0.243-2.52,0.337c-1.012,0.111-2.143-0.013-2.999,0.409
			c-0.769,0.399-1.472,0.051-2.185,0.368c-0.718,0.284-1.494,0.46-2.264,0.558c-1.763,0.225-3.416,0.852-5.147,1.249
			c-1.116,0.268-2.23,0.535-3.336,0.778c-1.297,0.286-2.623,0.373-3.833,0.808c-1.201,0.411-2.438,0.505-3.652,0.864
			c-1.303,0.357-2.71,0.391-3.994,0.807c-0.786,0.267-1.292,0.304-1.847-0.33c-0.201-0.22-0.542-0.313-0.791-0.493
			c-1.771-1.205-3.48-2.535-5.332-3.627c-2.901-1.733-5.807-3.455-8.746-5.075c-2.749-1.522-5.637-2.805-8.365-4.388
			c-0.967-0.597-2.084-0.874-3.107-1.391c-1.442-0.682-2.831-1.472-4.244-2.202c-2.453-1.321-4.988-2.413-7.617-3.325
			c-1.258-0.455-2.559-0.84-3.849-1.188c-0.792-0.23-1.557-0.499-2.376-0.721c-1.325-0.393-2.728-0.632-4.024-1.124
			c-2.018-0.754-4.174-0.859-6.192-1.547c-0.886,0.218-1.655-0.389-2.533-0.343c-0.845,0.038-1.7-0.206-2.518-0.267
			c-2.472-0.162-4.954-0.048-7.527-0.048c-0.273,0.716-0.452,1.363-0.734,1.969c-1.369,2.888-2.132,5.961-3.176,8.939
			c-0.639,1.771-1.021,3.627-1.597,5.411c-0.41,1.285-0.724,2.613-1.069,3.942c-0.203,0.759-0.282,1.585-0.332,2.38
			c-0.071,0.854-0.161,1.729-0.296,2.566c-0.224,1.255-0.165,2.593-0.029,3.866c0.146,1.359-0.384,2.589-0.384,3.9
			c0.045,3.877,0.024,7.779,0.024,11.656c0,1.101,0,2.251,0,3.343c0.815,0.97-0.132,2.322,0.671,3.279
			c-0.056,1.342,0.347,2.642,0.653,3.946c0.422,1.72,0.769,3.467,1.331,5.167c0.459,1.417,0.792,2.9,0.688,4.437
			c-0.021,0.461,0,0.919,0.204,1.411c0.34,0.846,0.159,1.776-0.412,2.618c-1.927,2.747-3.978,5.41-6.002,8.101
			c-0.85,1.13-1.656,2.343-2.509,3.466c-1.244,1.603-2.079,3.436-3.212,5.108c-0.796,1.167-1.459,2.536-2.001,3.863
			c-0.791,1.915-1.869,3.679-2.529,5.685c-0.427,1.317-1.082,2.566-1.498,3.907c-0.964,3.021-2.129,5.992-2.756,9.141
			c-0.237,1.282-0.729,2.504-0.925,3.819c-0.215,1.38-0.575,2.701-0.728,4.102c-0.103,0.89-0.09,1.863-0.323,2.683
			c-0.169,0.622-0.219,1.167-0.29,1.748c-0.08,0.573-0.255,1.133-0.314,1.724c-0.131,1.182,0.006,2.465-0.408,3.548
			c-0.51,1.3,0.141,2.728-0.615,3.947c-0.07,1.753,0.075,3.508-0.261,5.266c-0.261,1.362-0.104,2.807-0.048,4.202
			c0.048,1.376,0.048,2.774,0.384,4.07c0.2,0.883,0,1.822,0.341,2.54c0.332,0.737,0.033,1.448,0.294,2.059
			c0.315,0.765,0.274,1.492,0.315,2.249c0.023,0.771-0.229,1.479-0.315,2.229c-0.227,1.949,0.062,3.883,0.644,5.766
			c0.375,1.244,0.674,2.503,0.661,3.785c-0.009,0.836,0.036,1.688-0.009,2.527c-0.07,0.995,0.555,1.877,0.355,2.895
			c-0.047,0.33,0.158,0.697,0.329,1.038c0.377,0.775,0.424,1.602,0.673,2.409c0.311,1.173,0.534,2.36,0.786,3.562
			c0.316,1.593,0.776,3.139,1.175,4.711c0.287,1.118,0.396,2.301,0.828,3.379c0.714,1.779,1.217,3.648,1.791,5.469
			c1.184,3.858,3.033,7.377,4.551,11.076c0.65,1.606,1.657,3.011,2.43,4.536c0.865,1.694,1.82,3.299,2.844,4.883
			c1.102,1.679,2.123,3.414,3.327,5.028c1.395,1.886,2.661,3.928,4.452,5.528c0.688,0.652,1.338,1.357,1.979,2.038
			c0.498,0.498,0.975,0.998,1.336,1.628c0.29,0.499,0.514,1.044,0.838,1.51c0.453,0.635,1.201,1.045,1.808,1.564
			c1.301,1.08,2.509,2.218,3.864,3.196c1.791,1.31,3.354,2.86,5.111,4.178c1.179,0.908,2.368,1.807,3.563,2.659
			c1.582,1.218,3.335,2.14,5.056,3.137c1.788,1.062,3.603,2.031,5.42,3.017c1.843,1.018,3.784,1.865,5.708,2.764
			c0.875,0.412,1.739,0.941,2.647,1.191c2.383,0.69,4.608,1.831,6.973,2.515c1.724,0.517,3.378,1.278,5.108,1.77
			c1.785,0.491,3.535,1.125,5.363,1.549c0.825,0.168,1.658,0.552,2.518,0.74c0.856,0.192,1.745,0.367,2.574,0.643
			c0.851,0.271,1.763,0.324,2.559,0.631c2.273,0.854,4.725,0.854,6.976,1.624c1.536-0.117,3,0.602,4.539,0.316
			c0.642-0.118,1.234,0.139,1.637,0.478c0.833,0.769,1.769,0.903,2.803,0.903c2.271,0,4.545,0,6.482,0
			c0.817,0.798,1.437,1.444,2.144,2.156c-3.866,4.405-7.284,9.281-9.695,14.822c-2.395,5.527-3.921,11.292-4.771,17.485
			c-0.946,0.569-2.028,1.329-3.183,1.932c-1.736,0.898-3.634,1.455-5.491,2.026c-1.189,0.351-2.37,0.837-3.596,1
			c-1.812,0.221-3.523,0.885-5.311,1.242c-1.492,0.291-2.945,0.836-4.509,0.813c-1.339-0.039-2.661,0.022-3.986-0.012
			c-1.304-0.063-2.575-0.243-3.853-0.353c-2.721-0.158-5.467,0.275-8.192-0.273c-1.144-0.222-2.263-0.495-3.4-0.688
			c-2.06-0.334-4.018-1.029-5.891-1.872c-2.239-1.046-4.415-2.219-6.586-3.483c-2.709-1.564-5.224-3.396-7.556-5.465
			c-2.363-2.089-4.473-4.471-6.429-7.021c-1.667-2.209-2.864-4.688-4.424-6.939c-0.884-1.291-1.68-2.66-2.605-3.986
			c-0.9-1.258-1.928-2.456-2.89-3.674c-1.233-1.588-2.693-2.944-3.948-4.564c-0.943-1.194-2.207-2.119-3.33-3.161
			c-1.836-1.691-3.627-3.394-5.747-4.715c-1.354-0.865-2.709-1.744-4.14-2.493c-1.309-0.698-2.701-1.261-4.086-1.781
			c-1.204-0.464-2.449-0.808-3.71-1.119c-1.116-0.304-2.234-0.527-3.373-0.778c-1.17-0.219-2.323-0.603-3.551-0.603
			c-0.286,0-0.582,0.055-0.823-0.048c-2.024-0.773-4.064-0.176-6.014,0.224c-1.829,0.366-3.666,0.989-5.422,1.713
			c0,1.023,0.033,2.032-0.012,3.052c-0.046,0.943,0.326,1.661,0.973,2.307c2.281,2.281,4.546,4.589,7.111,6.579
			c2.341,1.797,4.798,3.441,7.26,5.049c1.796,1.155,3.427,2.492,4.819,4.104c1.124,1.349,2.107,2.803,3.195,4.204
			c0.958,1.223,2.104,2.353,2.902,3.678c1.123,1.902,2.494,3.623,3.613,5.55c0.994,1.729,2.064,3.411,2.988,5.168
			c1.248,2.447,2.369,4.955,3.394,7.505c0.352,0.924,0.688,1.841,1.055,2.76c0.39,0.966,0.724,1.988,1.249,2.853
			c1.263,2.167,2.377,4.427,3.927,6.459c1.271,1.677,2.472,3.416,3.928,4.897c1.929,1.958,3.827,3.913,6.061,5.522
			c1.886,1.351,3.747,2.699,5.792,3.776c1.768,0.972,3.555,1.896,5.378,2.738c1.873,0.849,3.821,1.513,5.778,2.116
			c2.674,0.813,5.381,1.602,8.128,2.08c0.469,0.097,0.93,0.271,1.372,0.33c1.004,0.125,2.077,0.058,2.998,0.4
			c0.826,0.316,1.595,0.193,2.383,0.284c0.796,0.095,1.576,0.311,2.35,0.315c3.222,0.021,6.459,0.078,9.66,0
			c3.225-0.08,6.463,0.288,9.697-0.269c1.087-0.191,2.171-0.326,3.214-0.729c0.332-0.107,0.681-0.248,1.029-0.309
			c0.431-0.062,0.883-0.025,1.323-0.025c0.274,0,0.551,0,0.838,0c1.608,0.047,3.162,0,4.619-0.961
			c0.477-0.323,1.293-0.522,1.794-0.323c0.661,0.271,1.353,0.191,2.019,0.323c0,0.652,0,1.217,0,1.776c0,16.019,0,32.016,0,48.041
			c0,0.279-0.013,0.564,0,0.847c0.043,0.693-0.203,1.256-0.667,1.735c-0.381,0.409-0.68,0.833-0.987,1.266
			c-0.819,1.08-1.624,2.141-2.438,3.192c-0.341,0.417-0.675,0.773-1.354,0.813c-0.341,0.047-0.769,0.223-1.182,0.303
			c-0.462,0.055-0.938,0.158-1.365,0.321c-0.998,0.411-1.987,0.685-3.063,0.685c-0.088,0-0.185,0.214-0.27,0.317
			c-0.769,0-1.542,0-2.322,0c-0.059-0.566-0.504-0.322-0.766-0.317c-1.133,0.039-2.198-0.187-3.28-0.554
			c-2.144-0.72-4.199-1.665-6.426-2.241c-2.056-0.516-4.116-1.285-5.998-2.332c-1.586-0.859-3.221-1.668-4.897-2.285
			c-2.383-0.848-4.702-1.835-6.942-2.961c-4.628-2.291-9.312-4.451-13.75-7.107c-1.454-0.852-3.007-1.567-4.519-2.389
			c-2.568-1.419-5.161-2.847-7.667-4.419c-1.769-1.109-3.587-2.094-5.334-3.228c-2.365-1.529-4.741-3.1-7.023-4.76
			c-2.362-1.737-4.715-3.437-7.111-5.057c-3.145-2.123-6.119-4.422-8.969-6.89c-1.441-1.222-2.899-2.45-4.337-3.692
			c-1.797-1.565-3.588-3.166-5.36-4.777c-2.008-1.806-3.901-3.739-5.867-5.595c-2.939-2.777-5.744-5.668-8.398-8.752
			c-1.346-1.606-2.923-2.954-4.266-4.596c-1.608-1.986-3.393-3.857-5.029-5.839c-1.515-1.827-3.022-3.666-4.473-5.55
			c-1.788-2.334-3.505-4.706-5.317-7.025c-2.002-2.557-3.839-5.254-5.652-7.939c-2.024-2.981-3.983-6.059-5.896-9.139
			c-2.175-3.469-4.095-7.062-6.178-10.564c-0.998-1.711-1.786-3.529-2.721-5.259c-2.285-4.349-4.417-8.821-6.444-13.326
			c-0.373-0.855-0.845-1.69-1.116-2.545c-0.44-1.442-1.013-2.863-1.64-4.208c-1.069-2.38-1.952-4.78-2.96-7.188
			c-1.253-2.942-2.369-5.986-3.354-9.051c-0.937-2.877-1.753-5.8-2.434-8.749c-0.272-1.166-0.542-2.336-0.937-3.481
			c-0.415-1.179-0.722-2.418-0.999-3.63c-0.438-1.956-1.025-3.856-1.482-5.809c-0.422-1.761-0.835-3.569-1.168-5.377
			c-0.236-1.299-0.632-2.681-0.394-4.062c0.059-0.4-0.138-0.703-0.285-1.055c-0.455-1.014-0.855-2.088-0.721-3.248
			c0.196-1.592-0.204-3.104-0.662-4.621c-0.12-0.384-0.329-0.727-0.344-1.189c-0.047-1.483-0.2-2.948-0.299-4.418
			c-0.021-0.093,0-0.235-0.042-0.326c-0.483-0.987-0.513-2.06-0.695-3.094c-0.188-1.079-0.267-2.144-0.267-3.242
			c0-0.635-0.062-1.24,0-1.846c0.186-1.391-0.202-2.75-0.416-4.084c-0.083-0.611-0.024-1.381-0.323-1.839
			c-0.424-0.668-0.153-1.286-0.258-1.92c-0.12-0.681-0.377-1.31-0.377-2.045c0.062-4.284,0.05-8.546,0.012-12.829
			c0-0.28,0.351-0.807-0.311-0.933c0-5.186,0-10.333,0-15.51c0.456-0.011,0.311-0.374,0.323-0.597
			c0.025-0.91-0.033-1.812,0.025-2.728c0.062-0.875,0.062-1.842,0.362-2.689c0.273-0.758,0.104-1.536,0.338-2.221
			c0.232-0.739,0.281-1.483,0.281-2.232c0-0.789,0-1.582,0-2.366c0-0.042,0-0.113,0-0.162c-0.179-1.677,0.243-3.185,0.997-4.649
			c0.082-0.136,0.279-0.41,0.214-0.474c-0.452-0.719-0.141-1.501-0.2-2.279c-0.041-0.694-0.123-1.489,0.153-2.121
			c0.316-0.698-0.012-1.477,0.448-2.175c0.366-0.548,0.152-1.507,0.413-2.167c0.294-0.689,0.135-1.426,0.344-2.052
			c0.477-1.595,0.499-3.251,0.885-4.837c0.333-1.328,0.431-2.779,0.797-4.071c0.938-3.314,1.626-6.727,2.56-10.044
			c0.406-1.46,0.7-2.969,1.066-4.444c0.396-1.521,0.516-3.125,1.293-4.515c0.157-2.442,1.207-4.68,1.775-7.039
			c0.446-1.944,1.263-3.84,1.887-5.771c0.643-1.912,1.472-3.747,2.251-5.63c1.081-2.575,2.144-5.155,3.287-7.723
			c1.395-2.99,2.799-6.015,4.159-9.05c1.254-2.845,2.605-5.65,3.959-8.443c1.207-2.417,2.285-4.929,3.719-7.195
			c1.422-2.281,2.75-4.605,4.218-6.838c1.554-2.363,2.967-4.833,4.531-7.194c0.967-1.455,1.981-2.885,2.844-4.387
			c1.6-2.803,3.502-5.404,5.41-8.017c1.105-1.492,2.224-2.997,3.399-4.456c1.886-2.232,3.723-4.487,5.449-6.814
			c1.374-1.87,2.928-3.598,4.352-5.43c1.311-1.653,2.763-3.206,4.102-4.852c1.09-1.307,2.28-2.542,3.45-3.751
			c2.651-2.836,5.513-5.441,8.288-8.165c0.083-0.074,0.141-0.192,0.233-0.211c0.952-0.299,1.392-1.218,2.101-1.808
			c0.701-0.591,1.413-1.169,2.099-1.795c0.824-0.713,1.61-1.471,2.428-2.182c1.759-1.598,3.575-3.168,5.384-4.727
			c0.891-0.736,1.708-1.523,2.592-2.25c1.904-1.526,3.839-3.087,5.806-4.529c1.09-0.827,2.16-1.677,3.323-2.424
			c1.871-1.177,3.63-2.516,5.455-3.784c1.72-1.208,3.392-2.512,5.198-3.561c2.144-1.196,4.119-2.656,6.197-3.95
			c1.339-0.854,2.652-1.683,3.985-2.492c1.774-1.098,3.576-2.12,5.329-3.229c1.782-1.161,3.62-2.263,5.505-3.243
			c1.148-0.576,2.294-1.16,3.44-1.789c3.194-1.678,6.395-3.337,9.715-4.727c2.12-0.872,4.262-1.752,6.402-2.592
			c2.487-0.99,4.956-2.026,7.425-3.076c2.896-1.2,5.755-2.417,8.725-3.436c2.641-0.916,5.261-1.826,7.952-2.501
			c2.386-0.584,4.66-1.397,7.001-2.032c2.562-0.716,5.091-1.627,7.794-1.708c0.29-0.031,0.578-0.25,0.833-0.411
			c0.603-0.43,2.093-0.943,2.784-0.943c0.776,0,1.554-0.012,2.324,0c0.658,0.021,1.287,0.069,1.773-0.585
			c0.179-0.279,0.621-0.368,0.97-0.402c1.922-0.312,3.836-0.599,5.752-0.991c1.336-0.26,2.638-0.647,4.003-0.832
			c1.082-0.111,2.132-0.554,3.271-0.554c0.405-0.03,0.808-0.067,1.245-0.167c0.805-0.205,1.706-0.135,2.546-0.014
			c0.414,0.076,0.704,0.112,1.149-0.055c1.438-0.549,2.914-0.914,4.525-0.804c1.484,0.119,2.998,0.088,4.487,0
			c0.937-0.036,1.889-0.182,2.799-0.452c1.636-0.441,3.294-0.791,4.976-0.871c1.008-0.039,1.997,0,2.982-0.032
			c0.158,0,0.287-0.21,0.449-0.311c9.185,0,18.411,0,27.607,0c0.152,0.1,0.297,0.304,0.436,0.311
			c0.442,0.057,0.977-0.131,1.331,0.057c1.38,0.809,3.019,0.66,4.451,1.311c0.224,0.105,0.619,0.105,0.815-0.014
			c0.651-0.452,1.354-0.23,2.025-0.323c0.68-0.075,1.355-0.28,2.034-0.311c0.456-0.015,0.938,0.347,1.362,0.311
			c0.976-0.125,1.748,0.389,2.477,0.875c0.479,0.323,0.891,0.522,1.458,0.49c1.562,0,3.126-0.081,4.662,0.032
			c1.478,0.099,2.931,0.38,4.384,0.646c0.672,0.138,1.303,0.361,1.932,0.574c1.176,0.375,2.385,0.646,3.564,1.049
			c1.036,0.367,2.225,0.279,3.333,0.402c0.793,0.082,1.579,0.206,2.358,0.331c0.195,0.043,0.354,0.279,0.535,0.317
			c1.018,0.255,2.021,0.583,3.062,0.644c1.216,0.087,2.42,0.64,3.688,0.374c0.57,0.689,1.402,0.241,2.129,0.535
			c1.439,0.621,3.01,0.993,4.519,1.493c1.712,0.581,3.434,1.154,5.137,1.665c1.921,0.604,3.895,1.114,5.802,1.697
			c1.283,0.402,2.51,0.96,3.771,1.359c3.847,1.155,7.584,2.639,11.286,4.209c1.17,0.479,2.353,1.078,3.521,1.458
			c2.219,0.736,4.274,1.79,6.447,2.624c2.519,0.968,4.967,2.205,7.422,3.409c3.461,1.728,6.977,3.336,10.303,5.362
			c1.486,0.907,3.068,1.715,4.564,2.639c2.104,1.272,4.141,2.611,6.227,3.896c1.271,0.818,2.641,1.446,3.894,2.311
			c3.66,2.464,7.345,4.908,10.859,7.613c1.816,1.359,3.694,2.604,5.561,3.925c1.065,0.762,2.201,1.436,3.209,2.281
			c1.603,1.292,3.126,2.69,4.674,4.038c0.779,0.665,1.53,1.435,2.347,2.009c1.218,0.834,2.298,1.795,3.364,2.767
			c1.067,0.935,2.062,1.969,3.182,2.831c1.739,1.416,3.461,2.796,5.017,4.439c3.145,3.36,6.628,6.384,9.531,9.981
			c1.068,1.329,2.354,2.479,3.391,3.833c0.688,0.906,1.561,1.651,2.228,2.579c1.325,1.872,2.934,3.454,4.275,5.287
			c1.157,1.571,2.601,2.918,3.731,4.525c1.312,1.857,2.916,3.546,4.157,5.48c0.625,0.989,1.499,1.833,2.074,2.853
			c0.581,1.005,1.268,1.937,1.949,2.854c2.688,3.758,5.062,7.714,7.812,11.438c2.334,3.19,4.374,6.627,6.155,10.199
			c2.082,4.145,4.158,8.264,6.307,12.375c1.435,2.738,2.76,5.573,3.997,8.426c0.244,0.626,0.818,1.167,0.937,1.784
			c0.187,1.093,0.856,1.901,1.233,2.872c0.393,1.013,0.672,2.093,1.159,3.056c0.77,1.477,1.374,3.025,1.913,4.59
			c0.962,2.754,2.075,5.423,2.936,8.215c0.37,1.203,0.688,2.404,1.146,3.56c0.453,1.208,0.658,2.521,1.324,3.677
			c0.191,2.437,1.514,4.601,1.635,7.039c0.874,1.559,0.923,3.33,1.343,5.026c0.413,1.582,0.749,3.179,1.104,4.769
			c0.329,1.57,0.811,3.149,1.188,4.721c0.387,1.626,0.847,3.254,1.104,4.934c0.246,1.666,0.653,3.268,0.612,4.958
			c-0.022,0.342,0.018,0.689,0,1.013c-0.097,0.692,0.148,1.291,0.545,1.79c0.584,0.701,0.787,1.487,0.787,2.392
			c-0.023,1.516-0.023,3.02,0,4.541c0,0.333-0.062,0.709,0.043,0.974c0.55,1.215,0.651,2.5,0.616,3.777
			c-0.041,1.989,0.576,3.944,0.33,5.954c-0.029,0.101-0.056,0.254,0,0.325c0.779,1.519,0.511,3.24,0.978,4.844
			c0.183,0.704,0.006,1.549,0.031,2.322C499.647,236.796,499.853,236.945,499.983,237.081z"/>
		<path fill="none" d="M176.413,489.969c0.087-0.106,0.182-0.322,0.271-0.322c1.074,0,2.063-0.273,3.061-0.683
			c0.428-0.167,0.9-0.273,1.365-0.316c0.411-0.083,0.838-0.257,1.182-0.31c0.679-0.039,1.017-0.396,1.354-0.812
			c0.817-1.056,1.623-2.116,2.438-3.191c0.308-0.438,0.604-0.862,0.986-1.26c0.464-0.484,0.709-1.052,0.666-1.743
			c-0.012-0.281,0-0.563,0-0.842c0-16.026,0-32.028,0-48.045c0-0.562,0-1.127,0-1.778c-0.666-0.13-1.356-0.056-2.018-0.321
			c-0.5-0.193-1.318,0-1.793,0.325c-1.459,0.963-3.01,1.004-4.617,0.963c-0.289,0-0.568,0-0.84,0c-0.438,0-0.89-0.044-1.322,0.022
			c-0.349,0.062-0.698,0.192-1.03,0.308c-1.042,0.398-2.126,0.537-3.213,0.73c-3.23,0.558-6.472,0.186-9.697,0.269
			c-3.201,0.081-6.438,0.02-9.66,0c-0.771-0.006-1.554-0.219-2.35-0.318c-0.79-0.083-1.56,0.03-2.383-0.278
			c-0.917-0.347-1.994-0.273-2.998-0.4c-0.443-0.067-0.9-0.237-1.373-0.328c-2.749-0.478-5.456-1.27-8.128-2.084
			c-1.957-0.595-3.907-1.261-5.778-2.11c-1.825-0.843-3.612-1.767-5.378-2.739c-2.049-1.08-3.907-2.433-5.792-3.778
			c-2.233-1.614-4.132-3.562-6.061-5.521c-1.459-1.486-2.656-3.226-3.928-4.898c-1.545-2.032-2.664-4.286-3.927-6.459
			c-0.522-0.865-0.86-1.883-1.249-2.854c-0.366-0.915-0.704-1.833-1.055-2.756c-1.022-2.554-2.146-5.056-3.394-7.506
			c-0.921-1.758-1.994-3.442-2.988-5.17c-1.116-1.928-2.491-3.653-3.613-5.552c-0.798-1.323-1.945-2.454-2.903-3.682
			c-1.087-1.396-2.069-2.854-3.195-4.2c-1.392-1.612-3.021-2.941-4.818-4.102c-2.459-1.609-4.919-3.248-7.26-5.055
			c-2.562-1.99-4.831-4.296-7.111-6.575c-0.647-0.646-1.022-1.362-0.973-2.303c0.047-1.023,0.012-2.035,0.012-3.057
			c1.758-0.722,3.593-1.346,5.422-1.714c1.949-0.397,3.99-0.993,6.014-0.227c0.24,0.105,0.535,0.055,0.823,0.055
			c1.226,0,2.377,0.384,3.551,0.606c1.143,0.249,2.257,0.471,3.373,0.771c1.263,0.32,2.506,0.663,3.71,1.122
			c1.384,0.521,2.776,1.082,4.085,1.782c1.431,0.75,2.785,1.625,4.14,2.493c2.117,1.325,3.907,3.026,5.747,4.715
			c1.123,1.04,2.387,1.962,3.33,3.159c1.253,1.617,2.716,2.976,3.947,4.565c0.962,1.216,1.988,2.414,2.891,3.672
			c0.926,1.329,1.721,2.695,2.605,3.99c1.56,2.244,2.755,4.724,4.423,6.936c1.957,2.547,4.066,4.931,6.429,7.022
			c2.332,2.068,4.85,3.902,7.556,5.466c2.171,1.262,4.347,2.435,6.585,3.484c1.875,0.844,3.832,1.53,5.892,1.873
			c1.138,0.189,2.255,0.458,3.401,0.687c2.724,0.547,5.467,0.106,8.192,0.274c1.278,0.104,2.551,0.291,3.851,0.346
			c1.326,0.036,2.647-0.022,3.987,0.013c1.56,0.023,3.016-0.523,4.508-0.811c1.789-0.356,3.5-1.02,5.313-1.237
			c1.226-0.17,2.405-0.656,3.594-1.003c1.858-0.574,3.756-1.131,5.491-2.024c1.152-0.607,2.236-1.362,3.183-1.932
			c0.848-6.199,2.373-11.958,4.771-17.483c2.416-5.544,5.83-10.418,9.697-14.827c-0.707-0.709-1.331-1.363-2.144-2.159
			c-1.935,0-4.211,0-6.482,0c-1.032,0-1.968-0.126-2.803-0.893c-0.4-0.345-0.996-0.601-1.637-0.483
			c-1.536,0.285-2.999-0.431-4.539-0.319c-2.25-0.772-4.702-0.772-6.976-1.624c-0.792-0.31-1.704-0.359-2.559-0.629
			c-0.833-0.275-1.717-0.452-2.574-0.646c-0.859-0.19-1.696-0.578-2.518-0.738c-1.829-0.426-3.58-1.055-5.363-1.553
			c-1.73-0.493-3.385-1.25-5.109-1.768c-2.368-0.688-4.588-1.825-6.973-2.513c-0.91-0.248-1.772-0.777-2.647-1.194
			c-1.923-0.902-3.865-1.745-5.708-2.762c-1.818-0.985-3.633-1.957-5.42-3.021c-1.72-0.992-3.476-1.914-5.057-3.129
			c-1.198-0.855-2.383-1.754-3.563-2.662c-1.757-1.315-3.32-2.868-5.112-4.18c-1.354-0.977-2.561-2.121-3.863-3.194
			c-0.605-0.52-1.355-0.931-1.807-1.566c-0.326-0.466-0.553-1.012-0.839-1.506c-0.361-0.639-0.838-1.138-1.335-1.632
			c-0.643-0.683-1.294-1.385-1.98-2.04c-1.791-1.604-3.06-3.639-4.452-5.53c-1.204-1.612-2.225-3.341-3.327-5.019
			c-1.022-1.592-1.978-3.195-2.844-4.889c-0.771-1.526-1.779-2.928-2.43-4.537c-1.518-3.694-3.368-7.215-4.549-11.072
			c-0.574-1.829-1.079-3.694-1.791-5.476c-0.434-1.072-0.539-2.254-0.829-3.38c-0.393-1.569-0.857-3.111-1.174-4.706
			c-0.251-1.203-0.476-2.385-0.786-3.559c-0.249-0.814-0.295-1.639-0.673-2.414c-0.171-0.339-0.377-0.704-0.329-1.037
			c0.2-1.019-0.425-1.898-0.354-2.893c0.046-0.845,0-1.696,0.009-2.53c0.012-1.286-0.285-2.539-0.659-3.785
			c-0.581-1.881-0.871-3.816-0.643-5.763c0.083-0.749,0.333-1.461,0.315-2.231c-0.04-0.76,0-1.484-0.315-2.249
			c-0.261-0.612,0.036-1.325-0.295-2.058c-0.341-0.715-0.141-1.658-0.341-2.543c-0.336-1.289-0.336-2.687-0.384-4.066
			c-0.056-1.392-0.213-2.842,0.048-4.201c0.336-1.759,0.191-3.518,0.261-5.267c0.755-1.216,0.108-2.651,0.614-3.945
			c0.416-1.088,0.276-2.37,0.408-3.549c0.059-0.589,0.234-1.154,0.314-1.725c0.07-0.583,0.12-1.124,0.29-1.745
			c0.234-0.825,0.22-1.798,0.322-2.685c0.153-1.405,0.514-2.723,0.728-4.102c0.194-1.316,0.688-2.535,0.925-3.823
			c0.626-3.149,1.791-6.12,2.755-9.138c0.417-1.346,1.072-2.592,1.499-3.906c0.662-2.007,1.738-3.772,2.528-5.687
			c0.547-1.327,1.207-2.696,2.003-3.863c1.134-1.672,1.969-3.501,3.212-5.107c0.854-1.12,1.662-2.336,2.509-3.467
			c2.024-2.692,4.077-5.354,6.002-8.103c0.574-0.843,0.755-1.769,0.413-2.616c-0.204-0.49-0.225-0.949-0.204-1.41
			c0.108-1.54-0.224-3.021-0.688-4.438c-0.56-1.7-0.902-3.447-1.331-5.169c-0.307-1.302-0.709-2.603-0.653-3.945
			c-0.803-0.961,0.144-2.308-0.671-3.279c0-1.093,0-2.238,0-3.343c0-3.877,0.022-7.779-0.024-11.656c0-1.315,0.531-2.542,0.385-3.9
			c-0.135-1.274-0.194-2.611,0.028-3.866c0.135-0.842,0.225-1.713,0.296-2.566c0.049-0.795,0.129-1.619,0.332-2.38
			c0.345-1.33,0.657-2.657,1.069-3.945c0.577-1.782,0.958-3.64,1.598-5.409c1.043-2.981,1.806-6.052,3.177-8.941
			c0.281-0.604,0.459-1.249,0.733-1.967c2.574,0,5.055-0.113,7.528,0.048c0.819,0.061,1.671,0.304,2.517,0.267
			c0.881-0.042,1.646,0.561,2.535,0.344c2.015,0.682,4.171,0.791,6.191,1.546c1.297,0.491,2.7,0.728,4.024,1.123
			c0.824,0.224,1.585,0.492,2.377,0.722c1.29,0.348,2.593,0.734,3.848,1.188c2.631,0.907,5.164,2.003,7.619,3.325
			c1.413,0.727,2.803,1.521,4.242,2.202c1.022,0.517,2.138,0.791,3.107,1.391c2.728,1.583,5.616,2.865,8.365,4.387
			c2.939,1.622,5.843,3.342,8.746,5.076c1.853,1.092,3.561,2.423,5.332,3.627c0.248,0.18,0.589,0.274,0.79,0.491
			c0.555,0.638,1.062,0.599,1.848,0.331c1.284-0.419,2.69-0.451,3.994-0.807c1.213-0.358,2.45-0.454,3.652-0.864
			c1.213-0.438,2.536-0.523,3.833-0.808c1.105-0.243,2.221-0.516,3.336-0.78c1.733-0.394,3.385-1.024,5.147-1.249
			c0.77-0.1,1.547-0.275,2.264-0.559c0.712-0.318,1.416,0.03,2.184-0.367c0.857-0.423,1.987-0.298,3.001-0.411
			c0.835-0.094,1.671-0.224,2.519-0.337c0.844-0.086,1.737,0.275,2.509-0.316c0.09-0.057,0.225,0,0.363,0
			c1.717-0.125,3.446-0.225,5.175-0.361c0.62-0.045,1.231-0.211,1.847-0.331c0.63-0.112,1.329,0.298,1.878-0.321
			c0.056-0.073,0.206,0,0.316,0c1.134-0.067,2.243-0.168,3.368-0.278c2.82-0.3,5.687-0.576,8.497-0.324
			c2.469,0.206,4.913,0.206,7.366,0.241c2.479,0.057,4.998,0.033,7.489,0c0.507-0.019,1.099,0.218,1.555-0.304
			c0.07-0.088,0.328-0.088,0.461,0c1.241,0.665,2.574,0.185,3.856,0.304c0.756,0.083,1.486-0.019,2.213,0.294
			c0.666,0.306,1.52-0.237,2.189,0.39c0.023,0.012,0.09,0,0.15,0.012c1.466,0.094,2.902,0.192,4.357,0.33
			c0.465,0.038,0.912,0.038,1.398,0.243c0.684,0.243,1.646,0.347,2.273,0.031c1.283-0.64,2.375-0.168,3.518,0.19
			c1.13,0.374,2.262,0.686,3.456,0.899c1.692,0.294,3.377,0.568,5.067,0.742c0.861,0.068,1.779,0.173,2.684,0.261
			c0.909,0.1,1.793,0.269,2.691,0.393c1.541,0.16,3.088,0.533,4.545,1.022c1.322,0.393,2.645,0.516,3.951,0.949
			c2.539,0.734,5.171,1.139,7.705,1.889c0.938,0.282,1.934,0.404,2.896,0.605c0.283,0.074,0.666-0.1,0.931-0.257
			c2.12-1.444,4.21-2.981,6.377-4.382c2.166-1.435,4.347-2.838,6.614-4.101c3.159-1.764,6.474-3.223,9.598-5.025
			c2.526-1.432,5.102-2.72,7.702-4c3.358-1.671,6.832-3.054,10.379-4.289c1.704-0.61,3.428-1.229,5.164-1.589
			c2.047-0.418,3.954-1.435,6.077-1.454c1.243-0.628,2.688-0.342,3.918-1.025c0.078-0.013,0.223-0.005,0.324,0
			c1.086,0.231,2.105-0.398,3.199-0.337c1.061,0.045,2.094,0.015,3.152,0.015c1.557,0,3.099,0,4.489,0
			c1.175,0.524,1.157,1.65,1.528,2.48c0.751,1.707,1.206,3.54,1.775,5.329c0.385,1.181,0.686,2.4,1.116,3.56
			c0.425,1.167,0.567,2.369,0.938,3.486c0.479,1.5,0.653,3.066,1.247,4.535c0.317,0.832,0.233,1.834,0.379,2.736
			c0.061,0.495,0.205,1.004,0.323,1.547c0.077,0.461-0.217,1.004,0.258,1.396c0.063,0.062,0.055,0.193,0.063,0.3
			c0.121,1.577,0.295,3.167,0.295,4.742c0.064,5.754,0,11.473,0.056,17.197c0.012,0.813-0.199,1.51-0.351,2.226
			c-0.147,0.755,0.338,1.578-0.315,2.218c-0.174,2.573-1.075,4.929-1.92,7.306c-0.224,0.598,0.245,1.349-0.421,1.827
			c-0.118,1.08-0.223,2.169-0.342,3.235c-0.132,1.247-0.265,2.501-0.413,3.629c1.565,2.001,3.106,3.862,4.436,5.884
			c0.706,1.105,1.637,2.118,2.43,3.172c1.723,2.369,3.39,4.734,4.92,7.214c1.639,2.667,3,5.479,4.393,8.298
			c0.749,1.54,1.242,3.173,1.907,4.763c1.108,2.632,1.858,5.38,2.777,8.09c0.238,0.75,0.336,1.547,0.539,2.323
			c0.462,1.837,0.612,3.722,1.22,5.52c0.365,1.23,0.497,2.522,0.778,3.75c0.283,1.295,0.246,2.614,0.367,3.901
			c0.112,0.893,0.348,1.823,0.28,2.722c0.743,0.726-0.065,1.869,0.678,2.589c-0.224,1.162,0.332,2.271,0.332,3.407
			c0,3.527,0.106,7.083-0.049,10.601c-0.084,1.816-0.203,3.648-0.813,5.379c-0.271,0.717-0.361,1.472-0.434,2.175
			c-0.209,2.25-0.548,4.496-0.373,6.771c0.049,0.787,0,1.572,0.012,2.377c0.031,1.597-0.229,3.202-0.646,4.795
			c-0.252,0.899-0.106,1.944-0.401,2.849c-0.461,1.477-0.455,3.019-0.911,4.509c-0.223,0.729-0.205,1.563-0.359,2.379
			c-0.289,1.486-0.33,2.974-0.714,4.409c-0.799,2.934-1.429,5.908-2.417,8.763c-0.72,2.172-1.501,4.323-2.25,6.49
			c-0.414,1.204-0.946,2.427-1.429,3.605c-0.905,2.192-1.806,4.415-2.904,6.545c-1.021,2.046-2.227,4.016-3.441,5.967
			c-1.346,2.161-2.771,4.232-4.169,6.322c-0.827,1.209-1.62,2.399-2.525,3.491c-2.65,3.237-5.586,6.185-8.621,9.02
			c-2.004,1.896-3.918,3.904-5.977,5.738c-1.758,1.558-3.694,2.973-5.775,4.138c-2.43,1.374-4.902,2.669-7.324,4.052
			c-3.141,1.791-6.386,3.399-9.63,4.994c-2.438,1.163-4.983,2.174-7.518,3.153c-1.979,0.759-3.981,1.378-5.957,2.145
			c-0.995,0.396-2.076,0.558-3.153,0.806c-0.66,0.162-1.458,0.085-1.97,0.469c-0.629,0.479-1.456-0.193-1.967,0.509
			c-0.082,0.106-0.421,0.058-0.644,0.034c-1.212-0.063-2.236,0.357-3.301,0.922c-1.408,0.72-2.878,1.489-4.555,1.439
			c-0.599,0.52-1.409,0.145-1.987,0.378c-0.708,0.321-1.423,0.142-2.041,0.338c-1.477,0.422-3.012,0.33-4.452,0.932
			c-0.54,0.244-1.247,0.258-1.834,0.307c-1.687,0.199-3.361,0.625-5.034,0.84c-1.253,0.133-2.475,0.237-3.735,0.237
			c-0.431,0-0.869,0.07-1.369-0.237c-0.565-0.367-1.196,0.113-1.799,0.374c0,0.89,0,1.785,0,2.777
			c0.826,0.834,1.771,1.688,2.621,2.678c1.006,1.149,2.059,2.343,2.92,3.655c1.129,1.708,2.041,3.595,2.767,5.551
			c0.356,1.042,0.914,1.988,1.31,2.999c0.869,2.182,1.771,4.335,2.52,6.536c0.439,1.383,0.763,2.817,1.134,4.257
			c0.401,1.498,0.905,3.006,0.692,4.602c0.459,1.039,0.274,2.133,0.332,3.22c0.032,0.565,0.207,1.119,0.313,1.72
			c0.139,0.617,0.234,1.245,0.333,1.866c0.098,0.596-0.082,1.167,0.312,1.774c0.207,0.357,0.021,0.96,0.021,1.458
			c0,25.413,0,50.825,0,76.229c0,1.376-0.047,1.416,0.691,2.389c0.925,1.249,1.686,2.64,2.865,3.718
			c0.787,0.673,1.596,1.239,2.45,1.75c0.634,0.377,1.202,0.954,1.883,1.119c0.853,0.208,1.764,0.058,2.634,0.058
			c0.625,0,1.218-0.027,1.841,0.008c0.106,0,0.19,0.212,0.301,0.318C275.396,489.969,225.91,489.969,176.413,489.969z"/>
		<path fill="none" d="M238.346,0.029c-0.158,0.099-0.288,0.31-0.448,0.31c-0.982,0.033-1.977-0.006-2.98,0.033
			c-1.683,0.081-3.342,0.427-4.977,0.871c-0.906,0.267-1.862,0.411-2.799,0.451c-1.493,0.086-3.007,0.118-4.487,0
			c-1.609-0.112-3.086,0.256-4.525,0.805c-0.442,0.168-0.73,0.129-1.149,0.053c-0.841-0.125-1.741-0.193-2.546,0.012
			c-0.436,0.101-0.835,0.138-1.245,0.169c-1.14,0-2.189,0.444-3.271,0.553c-1.363,0.181-2.669,0.566-4.003,0.83
			c-1.916,0.392-3.83,0.679-5.753,0.992c-0.35,0.036-0.795,0.124-0.97,0.403c-0.485,0.654-1.116,0.604-1.772,0.585
			c-0.773-0.012-1.549,0-2.326,0c-0.691,0-2.178,0.513-2.782,0.944c-0.258,0.161-0.544,0.38-0.833,0.41
			c-2.705,0.081-5.234,0.99-7.796,1.708c-2.342,0.635-4.611,1.448-7.001,2.034c-2.691,0.675-5.311,1.582-7.952,2.5
			c-2.969,1.018-5.826,2.232-8.726,3.436c-2.47,1.049-4.938,2.083-7.423,3.076c-2.143,0.843-4.282,1.72-6.402,2.591
			c-3.325,1.39-6.524,3.047-9.716,4.727c-1.146,0.631-2.294,1.216-3.44,1.79c-1.885,0.976-3.723,2.081-5.505,3.243
			c-1.752,1.111-3.552,2.131-5.329,3.229c-1.333,0.81-2.648,1.64-3.983,2.491c-2.077,1.298-4.052,2.754-6.199,3.951
			c-1.806,1.046-3.478,2.353-5.196,3.56c-1.826,1.268-3.585,2.606-5.457,3.786c-1.164,0.749-2.232,1.595-3.324,2.423
			c-1.967,1.44-3.901,3-5.805,4.529c-0.885,0.727-1.706,1.513-2.593,2.25c-1.809,1.559-3.625,3.129-5.384,4.726
			c-0.817,0.715-1.603,1.472-2.426,2.185c-0.687,0.622-1.401,1.201-2.099,1.795c-0.709,0.59-1.152,1.508-2.101,1.807
			c-0.092,0.018-0.15,0.136-0.233,0.21c-2.772,2.723-5.637,5.331-8.288,8.166c-1.167,1.211-2.355,2.447-3.449,3.753
			c-1.339,1.645-2.794,3.197-4.102,4.851c-1.428,1.833-2.981,3.561-4.353,5.43c-1.726,2.326-3.561,4.582-5.449,6.814
			c-1.176,1.459-2.294,2.968-3.399,4.454c-1.909,2.614-3.806,5.212-5.41,8.02c-0.862,1.503-1.874,2.934-2.844,4.388
			c-1.563,2.361-2.977,4.832-4.53,7.193c-1.472,2.231-2.794,4.558-4.218,6.839c-1.437,2.266-2.515,4.776-3.72,7.194
			c-1.354,2.791-2.705,5.597-3.959,8.441c-1.363,3.037-2.764,6.059-4.159,9.052c-1.143,2.571-2.205,5.15-3.286,7.723
			c-0.78,1.881-1.609,3.715-2.252,5.629c-0.626,1.933-1.443,3.828-1.887,5.773c-0.567,2.355-1.618,4.595-1.773,7.039
			c-0.779,1.39-0.898,2.993-1.294,4.514c-0.365,1.479-0.657,2.985-1.065,4.444c-0.938,3.316-1.626,6.728-2.56,10.045
			c-0.368,1.291-0.464,2.743-0.799,4.071c-0.384,1.583-0.405,3.241-0.886,4.837c-0.208,0.627-0.048,1.362-0.344,2.051
			c-0.261,0.657-0.046,1.619-0.411,2.167c-0.461,0.702-0.132,1.478-0.448,2.175c-0.277,0.63-0.193,1.429-0.154,2.122
			c0.059,0.777-0.252,1.559,0.2,2.279c0.065,0.062-0.132,0.337-0.214,0.473c-0.754,1.465-1.173,2.976-0.997,4.649
			c0,0.048,0,0.119,0,0.162c0,0.784,0,1.578,0,2.366c0,0.751-0.048,1.492-0.282,2.231c-0.234,0.687-0.065,1.467-0.338,2.218
			c-0.302,0.849-0.302,1.817-0.362,2.691c-0.059,0.917,0,1.816-0.024,2.729c-0.014,0.225,0.132,0.587-0.323,0.599
			c0-79.008,0-158.02,0-237.054C79.451,0.029,158.884,0.029,238.346,0.029z"/>
		<path fill="none" d="M499.983,237.081c-0.134-0.136-0.336-0.285-0.336-0.452c-0.023-0.773,0.149-1.62-0.029-2.321
			c-0.469-1.604-0.199-3.325-0.979-4.845c-0.057-0.07-0.028-0.224,0-0.324c0.238-2.008-0.373-3.966-0.33-5.953
			c0.035-1.279-0.065-2.565-0.617-3.776c-0.103-0.269-0.041-0.642-0.041-0.975c-0.025-1.527-0.025-3.027,0-4.541
			c0-0.904-0.205-1.688-0.787-2.391c-0.396-0.502-0.643-1.097-0.547-1.79c0.018-0.323-0.022-0.666,0-1.012
			c0.043-1.689-0.366-3.291-0.612-4.956c-0.258-1.683-0.718-3.308-1.104-4.934c-0.379-1.572-0.856-3.15-1.188-4.72
			c-0.354-1.59-0.689-3.187-1.103-4.77c-0.427-1.698-0.47-3.466-1.346-5.025c-0.119-2.437-1.439-4.602-1.632-7.04
			c-0.668-1.161-0.865-2.469-1.327-3.676c-0.455-1.154-0.772-2.357-1.144-3.56c-0.859-2.791-1.979-5.461-2.937-8.215
			c-0.541-1.564-1.144-3.112-1.915-4.59c-0.482-0.963-0.767-2.044-1.156-3.055c-0.378-0.971-1.051-1.782-1.233-2.872
			c-0.115-0.616-0.69-1.161-0.938-1.785c-1.229-2.853-2.561-5.689-3.996-8.425c-2.147-4.106-4.225-8.229-6.307-12.374
			c-1.782-3.573-3.822-7.007-6.156-10.201c-2.748-3.727-5.123-7.678-7.811-11.438c-0.683-0.916-1.368-1.853-1.949-2.854
			c-0.576-1.024-1.45-1.865-2.075-2.852c-1.24-1.934-2.844-3.623-4.156-5.481c-1.135-1.608-2.574-2.954-3.737-4.525
			c-1.337-1.833-2.945-3.415-4.271-5.284c-0.667-0.929-1.535-1.677-2.227-2.582c-1.038-1.353-2.32-2.508-3.391-3.832
			c-2.896-3.598-6.385-6.619-9.531-9.983c-1.557-1.642-3.271-3.025-5.018-4.438c-1.115-0.857-2.11-1.894-3.181-2.83
			c-1.067-0.971-2.146-1.933-3.365-2.766c-0.814-0.576-1.563-1.34-2.346-2.009c-1.548-1.347-3.066-2.747-4.674-4.039
			c-1.008-0.845-2.145-1.522-3.209-2.281c-1.859-1.321-3.745-2.567-5.562-3.925c-3.517-2.708-7.198-5.15-10.858-7.612
			c-1.255-0.866-2.623-1.493-3.895-2.311c-2.086-1.287-4.128-2.624-6.227-3.895c-1.494-0.921-3.078-1.729-4.564-2.64
			c-3.324-2.025-6.841-3.633-10.302-5.362c-2.455-1.203-4.902-2.444-7.422-3.409c-2.173-0.833-4.229-1.888-6.448-2.624
			c-1.171-0.38-2.352-0.977-3.521-1.458c-3.702-1.571-7.439-3.057-11.286-4.211c-1.266-0.399-2.488-0.953-3.772-1.359
			c-1.907-0.583-3.88-1.093-5.801-1.696c-1.706-0.512-3.425-1.086-5.137-1.666c-1.503-0.5-3.078-0.872-4.52-1.494
			c-0.726-0.293-1.562,0.154-2.129-0.535c-1.271,0.267-2.473-0.288-3.687-0.375c-1.039-0.061-2.047-0.388-3.062-0.644
			c-0.184-0.038-0.336-0.275-0.534-0.317c-0.781-0.125-1.566-0.249-2.359-0.329c-1.108-0.125-2.297-0.038-3.336-0.404
			c-1.178-0.399-2.389-0.675-3.563-1.049c-0.628-0.212-1.259-0.436-1.93-0.573c-1.456-0.267-2.904-0.549-4.384-0.647
			c-1.536-0.111-3.103-0.033-4.662-0.033c-0.568,0.033-0.979-0.167-1.458-0.489c-0.728-0.486-1.499-1-2.478-0.876
			c-0.428,0.038-0.904-0.323-1.359-0.309c-0.68,0.031-1.356,0.233-2.034,0.309c-0.671,0.094-1.374-0.124-2.027,0.325
			c-0.196,0.119-0.596,0.119-0.815,0.014c-1.436-0.647-3.069-0.502-4.449-1.311c-0.354-0.187-0.889,0-1.333-0.057
			c-0.138-0.005-0.281-0.21-0.435-0.311c78.004,0,156.014,0,234.022,0C499.983,79.063,499.983,158.077,499.983,237.081z"/>
		<path fill="none" d="M327.545,489.969c0.15-0.106,0.274-0.322,0.438-0.322c0.856,0.015,1.597-0.284,2.411-0.64
			c1.471-0.695,3.091-1.101,4.592-1.749c2.284-0.965,4.647-1.646,6.958-2.528c2.021-0.772,4.021-1.564,5.986-2.448
			c2.018-0.908,3.973-1.967,5.939-2.975c2.309-1.148,4.553-2.442,6.896-3.477c3.749-1.628,7.33-3.513,10.92-5.421
			c1.549-0.837,3.072-1.737,4.579-2.648c1.723-1.04,3.454-2.13,5.185-3.215c1.302-0.864,2.561-1.796,3.911-2.613
			c3.102-1.887,6.022-4.019,9.021-6.017c1.809-1.203,3.539-2.495,5.305-3.746c2.021-1.447,3.895-3.091,6-4.457
			c0.7-0.448,1.352-1.049,1.968-1.653c1.513-1.412,3.19-2.615,4.71-3.983c1.478-1.376,3.012-2.661,4.547-3.951
			c1.234-1.054,2.269-2.215,3.486-3.234c4.354-3.733,8.104-8.082,12.2-12.069c0.709-0.689,1.263-1.485,1.885-2.238
			c0.618-0.69,1.271-1.292,1.816-2.101c0.618-1.01,1.556-1.818,2.293-2.751c1.296-1.63,2.67-3.229,3.905-4.909
			c1.062-1.47,2.328-2.734,3.384-4.186c1.045-1.413,2.196-2.738,3.244-4.172c0.858-1.176,1.771-2.297,2.652-3.459
			c2.219-2.857,4.31-5.782,6.251-8.814c1.728-2.709,3.455-5.397,5.164-8.137c0.77-1.227,1.423-2.554,2.175-3.797
			c0.939-1.562,1.967-3.102,2.879-4.707c0.474-0.864,0.911-1.737,1.409-2.586c0.863-1.434,1.59-2.954,2.356-4.422
			c0.995-1.878,1.998-3.773,3.006-5.631c0.624-1.217,1.073-2.475,1.597-3.72c0.521-1.173,1.067-2.358,1.452-3.623
			c0.448-1.415,1.374-2.658,1.925-4.084c0.974-2.5,2.131-4.931,3.126-7.431c0.875-2.14,1.638-4.378,2.419-6.568
			c0.833-2.356,1.476-4.766,2.43-7.063c0.604-1.454,0.954-2.964,1.352-4.504c0.42-1.472,0.729-2.971,1.064-4.453
			c0.566-2.536,1.214-5.078,2.096-7.519c0.834-2.275,1.444-4.617,1.907-6.979c0.234-1.215,0.455-2.468,0.899-3.634
			c0.301-0.864,0.24-1.819,0.391-2.747c0.078-0.564,0.217-1.13,0.318-1.714c0.084-0.562,0.084-1.111,0.258-1.713
			c0.282-0.836,0.06-1.818,0.378-2.729c0.252-0.734,0.035-1.714,0.42-2.347c0.455-0.742,0.18-1.542,0.527-2.321
			c0.349-0.789,0.061-1.854,0.09-2.806c0-1.149-0.221-2.332,0.653-3.271c0.295-1.582,1.009-3.191,0.59-4.749
			c-0.295-1.185-0.338-2.334-0.211-3.416c0.196-1.747,0.308-3.506,0.87-5.194c0.139-0.456,0.028-0.995,0.09-1.477
			c0.022-0.147,0.203-0.287,0.342-0.439c0,74.513,0,149.037,0,223.549C442.486,489.969,385.013,489.969,327.545,489.969z"/>
		<path fill="none" d="M0.003,252.591c0.66,0.126,0.309,0.652,0.309,0.933c0.038,4.279,0.05,8.541-0.012,12.828
			c0,0.732,0.258,1.365,0.377,2.047c0.105,0.631-0.167,1.249,0.258,1.918c0.298,0.456,0.24,1.228,0.322,1.841
			c0.215,1.338,0.604,2.692,0.416,4.084c-0.062,0.604,0,1.21,0,1.846c0,1.099,0.08,2.161,0.267,3.241
			c0.179,1.032,0.209,2.109,0.695,3.09c0.042,0.095,0.021,0.237,0.042,0.329c0.099,1.472,0.252,2.936,0.299,4.42
			c0.015,0.462,0.224,0.805,0.344,1.188c0.459,1.52,0.857,3.035,0.661,4.619c-0.128,1.16,0.267,2.233,0.722,3.248
			c0.147,0.354,0.344,0.656,0.285,1.057c-0.239,1.371,0.158,2.764,0.395,4.063c0.329,1.801,0.746,3.607,1.167,5.376
			c0.458,1.952,1.044,3.854,1.482,5.809c0.273,1.213,0.581,2.449,1,3.631c0.39,1.147,0.66,2.313,0.936,3.48
			c0.677,2.951,1.497,5.877,2.434,8.75c0.986,3.064,2.102,6.106,3.354,9.05c1.013,2.404,1.895,4.809,2.96,7.19
			c0.629,1.344,1.202,2.766,1.641,4.206c0.27,0.854,0.743,1.69,1.114,2.543c2.024,4.507,4.16,8.979,6.445,13.33
			c0.937,1.732,1.724,3.544,2.721,5.259c2.083,3.5,4.003,7.09,6.179,10.561c1.914,3.077,3.872,6.157,5.896,9.14
			c1.812,2.678,3.649,5.379,5.651,7.938c1.812,2.321,3.529,4.691,5.317,7.023c1.447,1.884,2.958,3.729,4.473,5.551
			c1.634,1.979,3.419,3.852,5.029,5.839c1.343,1.634,2.92,2.99,4.266,4.596c2.655,3.086,5.462,5.975,8.399,8.754
			c1.964,1.856,3.857,3.787,5.865,5.593c1.773,1.614,3.563,3.21,5.36,4.78c1.438,1.236,2.896,2.466,4.338,3.688
			c2.85,2.47,5.824,4.77,8.969,6.891c2.396,1.624,4.748,3.318,7.111,5.056c2.279,1.666,4.656,3.23,7.021,4.762
			c1.748,1.129,3.566,2.123,5.335,3.229c2.506,1.572,5.099,2.999,7.666,4.419c1.512,0.821,3.066,1.534,4.519,2.389
			c4.435,2.654,9.123,4.815,13.752,7.107c2.24,1.126,4.555,2.121,6.94,2.96c1.677,0.615,3.312,1.43,4.897,2.285
			c1.882,1.046,3.943,1.816,5.998,2.336c2.228,0.573,4.283,1.512,6.427,2.24c1.082,0.364,2.146,0.591,3.281,0.551
			c0.261-0.006,0.707-0.248,0.766,0.318c-58.032,0-116.054,0-174.085,0C0.003,410.842,0.003,331.727,0.003,252.591z"/>
	</g>
</g>
</svg>
