<?xml version="1.0" encoding="utf-8"?>
<!-- Generator: Adobe Illustrator 16.0.0, SVG Export Plug-In . SVG Version: 6.00 Build 0)  -->
<!DOCTYPE svg PUBLIC "-//W3C//DTD SVG 1.1//EN" "http://www.w3.org/Graphics/SVG/1.1/DTD/svg11.dtd">
<svg version="1.1" id="Layer_1" xmlns="http://www.w3.org/2000/svg" xmlns:xlink="http://www.w3.org/1999/xlink" x="0px" y="0px"
	 width="500px" height="500px" viewBox="0 0 500 500" enable-background="new 0 0 500 500" xml:space="preserve">
<polygon fill="#FFFFFF" points="68.432,358.249 68.5,358.528 68.274,358.493 "/>
<circle fill="#238186" cx="250" cy="250" r="250"/>
<polygon fill="#FFFFFF" points="126.931,351.249 127,351.528 126.774,351.493 "/>
<g>
	<path fill="#FFFFFF" d="M48.22,418.899c0-15.334,0-30.668,0-46.002c0.253-0.58,0.679-1.146,0.735-1.742
		c0.842-8.686,1.52-17.391,2.467-26.062c1.373-12.57,3.575-25.025,7.631-37.012c19.131-56.492,55.934-97.402,109.491-123.401
		c1.899-0.923,3.781-1.879,6.157-3.056c-5.697-13.164-6.898-26.923-8.185-40.828c-3.958-0.403-7.541-0.772-11.125-1.131
		c-6.427-0.645-12.723-1.722-18.84-4.007c-11.066-4.133-19.908-19.045-19.047-28.537c0.676-7.482,0.652-15.03,1.134-22.537
		c0.25-3.877,0.822-7.746,1.441-11.585c1.831-11.378,8.898-19.013,18.338-24.683c4.094-2.457,8.924-2.998,13.646-2.963
		c6.98,0.056,13.955,0.439,20.931,0.708c8.712,0.333,17.036,2.119,24.68,6.534c1.702,0.985,3.549,1.727,5.499,2.661
		c8.576-9.551,15.389-20.024,22.59-30.192c0.272,0,0.542,0,0.804,0c1.661,1.109,3.267,2.293,4.979,3.311
		c5.184,3.08,10.403,6.095,15.842,9.267c-4.217,10.698-8.352,21.266-8.699,33.007c3.785,0.453,7.103,0.847,10.42,1.249
		c21.799,2.641,40.521,11.27,54.694,28.467c8.164,9.903,14.015,21.059,15.939,33.871c1.828,12.189,1.654,24.363-1.853,36.335
		c-0.627,2.117-1.723,4.254-0.922,6.582c2.89,1.047,5.713,1.916,8.408,3.069c22.781,9.733,43.764,22.14,61.861,39.397
		c17.479,16.667,32.52,34.993,43.635,56.517c12.652,24.494,19.643,50.461,20.766,78.006c0.593,14.277-0.75,28.455-2.604,42.586
		c-2.646,20.084-7.98,39.449-16.277,57.977c-0.627,1.416-0.807,3.02-1.199,4.553c-9.684,0-19.377,0-29.055,0
		c1.262-2.668,2.438-5.369,3.805-7.98c9.197-17.549,14.953-36.225,18.029-55.711c1.146-7.27,1.871-14.674,2.014-22.031
		c0.218-10.996-0.221-22.018-0.475-33.021c-0.041-1.643-0.293-3.412-1.938-4.818c-1.948,2.102-3.795,4.043-5.577,6.021
		c-4.152,4.635-8.787,8.699-14.037,12.041c-14.961,9.514-31.519,11.094-48.525,8.936c-9.012-1.135-17.914-3.422-26.77-5.6
		c-15.683-3.881-31.472-7.025-47.652-7.475c-11.819-0.334-23.655-0.178-35.479-0.057c-4.155,0.057-8.352,0.354-12.441,1.029
		c-30.366,5.016-58.547,15.734-84.13,32.941c-10.701,7.207-21.186,14.729-31.78,22.07c-1.831,1.273-3.723,2.449-6.241,4.1
		c0.24-1.479,0.283-2.105,0.453-2.695c1.268-4.391,2.508-8.787,3.861-13.143c3.381-10.904,6.816-21.781,10.228-32.68
		c0.373-1.176,1.064-2.354,0.259-3.693c-4.608,3.115-28.67,28.326-32.806,34.338c2.295,9.338,4.742,18.799,8.383,27.932
		c4.75,11.918,11.229,22.896,17.946,33.76c0.827,1.334,5.984,14.537,6.747,15.947c-1.414,0.641-7.974,6.146-9.005,6.615
		c-8.61,0-16.173-16.826-24.779-16.826c-0.183-0.502-0.307-1.035-0.551-1.496c-7.12-13.4-13.478-27.145-18.724-41.396
		c-0.17-0.455-0.466-0.871-0.958-1.771c-7.492,8.195-14.73,16.111-22.435,24.551c-0.333-6.062-0.582-11.275-0.934-16.49
		C48.919,421.384,48.491,420.151,48.22,418.899z M295.37,206.843c1.644,2.065,3.055,3.836,4.457,5.605
		c8.209,10.305,16.383,20.63,24.635,30.901c3.576,4.454,5.412,9.576,5.98,15.15c0.752,7.385-0.582,14.34-5.918,19.818
		c-7.104,7.305-15.804,10.562-25.997,8.637c-3.022-0.564-5.563-0.061-8.004,1.627c-1.104,0.783-2.209,1.539-3.342,2.273
		c-10.152,6.59-20.459,6.283-29.803-1.432c-3.801-3.121-6.972-7.043-10.269-10.76c-5.689-6.402-7.993-14.082-8.436-22.559
		c-0.188-3.562-0.793-7.3-2.127-10.587c-2.348-5.784-3.042-11.648-2.62-17.76c0.088-1.427,0.007-2.863,0.007-4.054
		c-0.62-0.374-0.831-0.592-1.076-0.646c-14.15-3.037-26.946-9.025-38.591-17.557c-1.164-0.858-2.48-1.508-3.879-2.352
		c-3.92,1.824-7.698,3.549-11.448,5.335c-29.047,13.796-52.859,33.827-71.203,60.243c-16.235,23.373-26.24,49.199-29.784,77.475
		c-0.915,7.33-1.606,14.682-2.4,22.025c-0.146,1.334-0.279,2.662-0.419,3.986c18.982-18.863,37.238-38.031,55.46-57.229
		c18.268-19.246,36.306-38.713,55.295-57.432c-0.055,2.166-0.463,4.084-1.042,5.957c-3.396,11.039-6.792,22.078-10.264,33.092
		c-4.563,14.484-9.202,28.928-13.769,43.402c-0.582,1.852-0.94,3.777-1.595,6.459c6.074-2.246,11.403-4.016,16.566-6.186
		c21.865-9.209,44.693-14.443,68.27-16.402c14.48-1.213,28.974-0.969,43.479,0.395c14.611,1.381,28.988,3.895,43.26,7.254
		c9.396,2.221,18.832,4.352,28.334,6.105c11.244,2.068,21.812,0.088,31.771-5.84c7.227-4.309,11.879-10.346,14.358-18.199
		c3.26-10.305,2.152-20.473-1.586-30.391c-2.865-7.609-7.242-14.422-12.244-20.773c-21.526-27.338-48.426-47.478-81.02-59.853
		c-1.742-0.664-3.566-1.351-5.4-1.507c-1.502-0.123-3.329,0.143-4.543,0.942C298.625,203.246,297.18,205.077,295.37,206.843z
		 M216.141,84.49c-1.065,1.564-1.957,2.711-2.679,3.956c-6.826,11.789-12.006,24.323-16.708,37.067
		c-0.416,1.126-0.644,2.328-0.872,3.512c-1.429,7.308-1.334,14.644-0.864,22.065c1.021,16.184,9.273,27.974,21.834,37.288
		c1.579,1.174,3.328,2.354,6.071,1.762c0.701-1.357,1.688-2.93,2.365-4.631c3.243-8.144,9.185-13.436,17.288-16.39
		c6.387-2.334,12.668-1.985,18.699,1.307c5,2.733,9.466,6.132,13.076,10.598c1.334,1.64,2.775,3.192,4.451,5.111
		c2.205-2.671,4.141-5.04,6.105-7.385c15.707-18.686,13.535-43.741,0.111-61.038c-7.219-9.311-17.129-14.627-28.316-17.451
		c-6.351-1.603-12.912-2.481-19.425-3.289c-6.249-0.777-11.683-2.902-16.06-7.528C219.68,87.829,218.016,86.316,216.141,84.49z
		 M271.874,273.976c1.735-0.83,3.651-1.471,5.242-2.564c4.424-3.057,8.698-6.33,13.077-9.438c1.394-0.994,2.927-1.766,4.722-2.824
		c1.522,1.674,2.885,3.117,4.178,4.611c3.853,4.461,8.168,3.73,10.584-2.293c-1.576-2.416-3.139-5.238-5.118-7.736
		c-8.664-10.973-17.406-21.882-26.218-32.746c-5.928-7.307-11.963-14.532-18.077-21.689c-2.179-2.542-4.546-4.979-7.152-7.062
		c-2.692-2.157-4.989-1.442-7.093,1.94c4.013,10.883,13.433,18.306,19.874,28.154c-1.334,1.127-2.541,2.146-3.742,3.168
		c-1.232,1.051-2.506,2.042-3.668,3.158c-4.25,4.084-4.099,6.204,0.666,9.546c0.43,0.3,0.967,0.433,1.846,0.807
		c3.906-2.447,7.963-4.989,12.053-7.556c3.043,2.613,6.412,4.507,7.357,8.634c-5.355,7.134-13.674,11.343-18.5,18.603
		C262.768,262.983,266.368,268.544,271.874,273.976z M172.449,112.986c0.735-1.552,1.334-2.719,1.858-3.925
		c2.757-6.398,5.493-12.806,8.229-19.214c1.055-2.464,2.219-4.89,3.097-7.416c1.674-4.834,0.449-7.308-4.288-9.075
		c-1-0.374-2.028-0.717-3.073-0.937c-8.17-1.736-16.445-2.384-24.779-2.151c-4.165,0.116-6.607,2.792-8.067,6.297
		c-0.747,1.805-0.904,3.896-1.084,5.882c-0.491,5.471-0.913,10.953-1.237,16.434c-0.126,2.119-0.066,4.279,0.17,6.391
		c0.353,3.133,2.324,5.064,5.251,5.971C156.226,113.632,164.104,113.32,172.449,112.986z M126.931,356.249l-0.153,0.244l0.227,0.035
		L126.931,356.249z"/>
	<path fill="#FFFFFF" d="M313.073,431.179c-8.562,0.285-13.566-3.863-16.22-10.666c-3.725-9.527,2.689-20.371,12.812-21.811
		c1.834-0.273,3.748-0.391,5.584-0.188c8.076,0.947,13.035,6.086,13.865,14.191c0.074,0.668,0.106,1.34,0.133,2.008
		C329.645,424.991,323.411,431.335,313.073,431.179z"/>
	<path fill="#FFFFFF" d="M203.529,431.179c-7.531,0.895-15.739-6.834-15.433-16.051c0.351-10.412,6.52-17.02,16.553-16.871
		c11.135,0.17,16.75,8.16,16.505,16.912C220.861,425.317,214.545,431.226,203.529,431.179z"/>
</g>
</svg>
