<?xml version="1.0" encoding="utf-8"?>
<!-- Generator: Adobe Illustrator 16.0.0, SVG Export Plug-In . SVG Version: 6.00 Build 0)  -->
<!DOCTYPE svg PUBLIC "-//W3C//DTD SVG 1.1//EN" "http://www.w3.org/Graphics/SVG/1.1/DTD/svg11.dtd">
<svg version="1.1" id="Layer_1" xmlns="http://www.w3.org/2000/svg" xmlns:xlink="http://www.w3.org/1999/xlink" x="0px" y="0px"
	 width="500px" height="500px" viewBox="0 0 500 500" enable-background="new 0 0 500 500" xml:space="preserve">
<circle fill="#238186" cx="250" cy="250" r="250"/>
<path fill="#FFFFFF" d="M207.873,178.327c23.217,0,45.35,0,68.395,0c0.408,8.448,0.772,16.223,0.967,20.728
	c14.981-8.182,29.831-20.634,46.652-24.587c47.64-11.197,89.146,17.479,93.198,67.018c3.857,47.058,0.838,94.673,0.838,143.387
	c-21.109,0-42.608,0-66.192,0c-0.258-5.314-0.743-10.9-0.773-16.491c-0.069-33.073,0.345-66.157-0.167-99.202
	c-0.355-23.932-10.411-38.367-27.398-41.692c-24.979-4.881-45.997,11.786-46.337,37.612c-0.445,34.672-0.119,69.369-0.119,104.043
	c0,5.166,0,10.344,0,16.226c-23.924,0-46.052,0-69.061,0C207.873,316.473,207.873,248.392,207.873,178.327z"/>
<path fill="#FFFFFF" d="M100.773,178.421c22.458,0,43.957,0,66.43,0c0,69.295,0,137.624,0,206.886c-22.47,0-43.969,0-66.43,0
	C100.773,316.023,100.773,247.672,100.773,178.421z"/>
<path fill="#FFFFFF" d="M172.099,111.307c0.276,21.123-15.253,36.054-37.939,36.417c-21.698,0.381-38.952-15.176-39.326-35.491
	c-0.381-20.557,15.718-35.575,38.428-35.884C156.741,76.083,171.813,89.629,172.099,111.307z"/>
</svg>
