<?xml version="1.0" encoding="utf-8"?>
<!-- Generator: Adobe Illustrator 16.0.0, SVG Export Plug-In . SVG Version: 6.00 Build 0)  -->
<!DOCTYPE svg PUBLIC "-//W3C//DTD SVG 1.1//EN" "http://www.w3.org/Graphics/SVG/1.1/DTD/svg11.dtd">
<svg version="1.1" id="Layer_1" xmlns="http://www.w3.org/2000/svg" xmlns:xlink="http://www.w3.org/1999/xlink" x="0px" y="0px"
	 width="170.142px" height="170.138px" viewBox="19.552 18.425 170.142 170.138"
	 enable-background="new 19.552 18.425 170.142 170.138" xml:space="preserve">
<g>
	<path fill="none" d="M-2.574,172.745c0-43.238,0-86.479,0-129.719c69.95,0,139.899,0,209.85,0c0,43.24,0,86.48,0,129.719
		C137.325,172.745,67.376,172.745-2.574,172.745z M110.141,88.942c-4.379,0.531-8.404,0.971-12.414,1.52
		c-3.431,0.467-6.811,1.217-10.02,2.559c-5.715,2.387-10.018,6.248-12.131,12.191c-1.865,5.24-1.837,10.582-0.047,15.817
		c1.71,5,5.222,8.419,10.274,9.97c5.773,1.771,11.56,1.412,17.181-0.772c3.343-1.3,5.99-3.656,8.568-6.078
		c0.283-0.267,0.611-0.484,0.956-0.756c1.808,2.688,3.593,5.221,6.042,7.213c1.6,1.299,2.662,1.348,4.236-0.021
		c1.579-1.371,3.156-2.742,4.734-4.114c1.571-1.369,3.142-2.742,4.555-3.976c0.359-1.685,0.215-2.095-1.387-4.103
		c-2.57-3.223-3.715-6.815-3.651-10.949c0.114-7.479,0.054-14.964,0.019-22.446c-0.008-1.967-0.076-3.945-0.311-5.896
		c-0.336-2.805-1.162-5.467-2.803-7.832c-2.271-3.271-5.414-5.336-9.092-6.67c-4.197-1.52-8.527-2.037-12.984-1.881
		c-2.883,0.102-5.71,0.434-8.492,1.156c-4.287,1.115-8.193,2.977-11.364,6.139c-3.281,3.273-5.091,7.295-5.797,11.773
		c0.268,1.49,1.255,2.002,2.562,2.139c2.254,0.236,4.507,0.492,6.763,0.725c1.654,0.17,3.311,0.314,4.69,0.443
		c1.4-0.646,1.649-1.707,1.94-2.748c0.931-3.336,3.086-5.408,6.423-6.33c1.655-0.457,3.329-0.518,4.975-0.24
		c2.931,0.498,5.457,2.203,5.98,5.576C109.928,83.81,109.948,86.323,110.141,88.942z M136.753,138.218
		c-26.644,13.601-52.007,10.949-76.29-5.727c-0.959,0.129-0.923,0.782-0.815,1.559c5.239,5.867,11.166,10.957,18.251,14.654
		c6.34,3.308,13.054,5.342,20.144,5.963c5.782,0.508,11.525-0.015,17.168-1.506c3.852-1.019,7.575-2.373,11.123-4.16
		c3.837-1.937,7.359-4.367,10.6-7.205c0.84-0.735,1.248-1.563,0.848-2.813C137.5,138.771,137.131,138.499,136.753,138.218z
		 M138.277,147.714c0.857,0.511,1.344,0.084,1.848-0.364c1.541-1.379,2.621-3.086,3.443-4.947c1.256-2.84,2.162-5.769,1.858-8.713
		c-0.469-1.25-1.462-1.312-2.288-1.51c-2.89-0.689-5.791-0.49-8.656,0.147c-1.621,0.36-3.162,0.981-4.58,1.881
		c-0.508,0.321-1.088,0.56-0.862,1.449c1.093,0,2.21,0.03,3.323-0.009c2.018-0.067,4.033-0.237,6.052-0.248
		c1.06-0.006,2.155,0.162,2.778,1.351C141.359,140.669,139.264,144.064,138.277,147.714z"/>
	<path fill="#020202" d="M110.141,88.942c-0.191-2.619-0.213-5.133-0.594-7.592c-0.523-3.373-3.051-5.078-5.98-5.576
		c-1.646-0.277-3.318-0.217-4.975,0.24c-3.337,0.922-5.492,2.994-6.423,6.33c-0.291,1.041-0.54,2.102-1.94,2.748
		c-1.379-0.129-3.036-0.273-4.69-0.443c-2.255-0.232-4.508-0.488-6.763-0.725c-1.307-0.137-2.294-0.648-2.562-2.139
		c0.706-4.479,2.517-8.5,5.797-11.773c3.171-3.162,7.077-5.023,11.364-6.139c2.782-0.723,5.609-1.055,8.492-1.156
		c4.457-0.156,8.787,0.361,12.984,1.881c3.678,1.334,6.821,3.398,9.092,6.67c1.641,2.365,2.467,5.027,2.803,7.832
		c0.234,1.951,0.303,3.93,0.311,5.896c0.035,7.482,0.096,14.967-0.019,22.447c-0.063,4.133,1.081,7.727,3.651,10.949
		c1.602,2.008,1.746,2.418,1.387,4.102c-1.413,1.232-2.982,2.605-4.555,3.975c-1.578,1.373-3.155,2.744-4.734,4.115
		c-1.574,1.367-2.639,1.318-4.236,0.02c-2.449-1.992-4.234-4.522-6.042-7.213c-0.345,0.271-0.673,0.49-0.957,0.756
		c-2.577,2.422-5.226,4.779-8.567,6.078c-5.622,2.187-11.407,2.545-17.181,0.773c-5.052-1.551-8.563-4.969-10.274-9.969
		c-1.791-5.236-1.818-10.578,0.047-15.818c2.114-5.943,6.417-9.805,12.131-12.191c3.209-1.342,6.589-2.092,10.02-2.559
		C101.736,89.913,105.762,89.474,110.141,88.942z M109.988,98.753c-3.498,0.084-6.689,0.328-9.792,1.291
		c-1.667,0.521-3.211,1.274-4.572,2.381c-4.055,3.293-4.585,9.933-2.324,13.935c1.032,1.826,2.607,2.891,4.684,3.252
		c2.729,0.471,5.057-0.371,7.097-2.133c2.05-1.773,3.296-4.06,4.068-6.623C110.332,106.941,109.865,102.936,109.988,98.753z"/>
	<path fill="#F79A02" d="M136.753,138.218c0.378,0.281,0.747,0.556,1.028,0.765c0.4,1.25-0.008,2.078-0.848,2.813
		c-3.238,2.838-6.763,5.271-10.6,7.205c-3.548,1.787-7.271,3.144-11.123,4.16c-5.643,1.491-11.386,2.014-17.168,1.506
		c-7.09-0.621-13.804-2.656-20.144-5.963c-7.086-3.697-13.012-8.787-18.251-14.654c-0.108-0.774-0.144-1.43,0.815-1.559
		C84.746,149.167,110.109,151.816,136.753,138.218z"/>
	<path fill="#F79C06" d="M138.277,147.714c0.986-3.647,3.082-7.045,2.916-10.963c-0.623-1.188-1.719-1.354-2.778-1.351
		c-2.019,0.011-4.034,0.181-6.052,0.248c-1.113,0.039-2.23,0.009-3.323,0.009c-0.226-0.892,0.354-1.128,0.862-1.449
		c1.418-0.897,2.959-1.521,4.58-1.881c2.865-0.64,5.768-0.838,8.656-0.147c0.826,0.196,1.819,0.26,2.288,1.51
		c0.304,2.944-0.604,5.873-1.858,8.713c-0.822,1.861-1.902,3.567-3.443,4.947C139.621,147.798,139.137,148.225,138.277,147.714z"/>
	<path fill="none" d="M109.988,98.753c-0.123,4.183,0.344,8.188-0.836,12.103c-0.773,2.563-2.021,4.85-4.069,6.623
		c-2.04,1.762-4.368,2.604-7.097,2.133c-2.077-0.361-3.652-1.426-4.684-3.252c-2.261-4.002-1.731-10.642,2.324-13.935
		c1.36-1.104,2.905-1.86,4.572-2.381C103.299,99.081,106.49,98.837,109.988,98.753z"/>
</g>
<path fill="none" stroke="#C5C5C5" stroke-width="3" stroke-miterlimit="10" d="M104.623,19.925c46.154,0,83.57,37.414,83.57,83.568
	c0,46.155-37.416,83.569-83.57,83.569c-46.155,0-83.571-37.414-83.571-83.569C21.052,57.339,58.468,19.925,104.623,19.925z"/>
</svg>
