<?xml version="1.0" encoding="utf-8"?>
<!-- Generator: Adobe Illustrator 16.0.0, SVG Export Plug-In . SVG Version: 6.00 Build 0)  -->
<!DOCTYPE svg PUBLIC "-//W3C//DTD SVG 1.1//EN" "http://www.w3.org/Graphics/SVG/1.1/DTD/svg11.dtd">
<svg version="1.1" id="Layer_1" xmlns="http://www.w3.org/2000/svg" xmlns:xlink="http://www.w3.org/1999/xlink" x="0px" y="0px"
	 width="170.141px" height="170.133px" viewBox="-1.044 -1.674 170.141 170.133"
	 enable-background="new -1.044 -1.674 170.141 170.133" xml:space="preserve">
<g id="CMfmM7.tif_2_">
	<g>
		<path fill="none" d="M148.414,97.194c-46.559,0-93.111,0-139.668,0c0-9.054-0.001-18.105,0.007-27.159
			c0-0.174-0.178-0.528,0.28-0.43c0,7.36,0,14.723,0,22.129c4.355,0,8.612-0.021,12.869,0.021c0.625,0.008,1.211-0.104,1.739-0.328
			c0.99-0.424,2.071-0.76,2.748-1.685c1.04-1.422,1.604-3.023,1.597-4.792c-0.002-0.535-0.083-1.107-0.292-1.596
			c-0.476-1.105-0.852-2.302-2.127-2.847c-0.39-0.166-0.688-0.544-1.229-0.985c0.173-0.061,0.312-0.082,0.428-0.148
			c0.892-0.532,1.521-1.211,1.844-2.274c0.196-0.651,0.179-1.271,0.246-1.905c0.131-1.203-0.378-2.263-0.972-3.183
			c-0.617-0.955-1.57-1.681-2.806-1.83c-0.234-0.455-0.925-0.032-1.113-0.573c2.299,0,4.598,0,6.896,0c0,7.455,0,14.909,0,22.427
			c1.979-0.041,3.866,0.035,5.748-0.049c0-7.538,0-14.958,0-22.378c20.885,0,41.77,0,62.65,0c0,7.354,0,14.713,0,22.058
			c1.876,0,3.667,0,5.507,0c0-0.582,0-1.1,0-1.693c0.167,0.142,0.298,0.201,0.351,0.304c0.228,0.448,0.478,0.791,0.984,1.03
			c0.477,0.224,0.832,0.623,1.422,0.742c1.459,0.304,2.889,0.646,4.24-0.312c1.885-0.229,2.513-1.854,3.258-3.181
			c0.729-1.297,0.675-2.885,0.906-4.354c0.104-0.66-0.254-1.271-0.262-1.891c-0.021-1.65-0.588-3.089-1.47-4.427
			c-1.192-1.813-3.091-2.271-5.066-2.532c-1.335,0.387-2.729,0.645-3.729,1.75c-0.132,0.145-0.354,0.202-0.682,0.383
			c0-2.738,0-5.31,0-7.879c18.872,0,37.743,0,56.615,0c0,9.194,0,18.395,0,27.587c-2.106,0-4.218,0-6.322,0
			c0.124-0.097,0.236-0.256,0.373-0.274c2.271-0.351,3.831-1.543,4.788-3.445c0.57-1.143,0.847-2.396,0.854-3.66
			c0.041-4.267,0.021-8.523,0.021-12.787c0-0.365,0-0.729,0-1.045c-1.9,0-3.66,0-5.425,0c-0.034,0.59-0.065,1.131-0.106,1.836
			c-0.188-0.373-0.242-0.636-0.401-0.756c-0.646-0.496-1.324-0.949-1.993-1.416c-0.879,0.297-1.759-0.796-2.638,0
			c-2.212,0.159-3.532,1.521-4.437,3.375c-0.769,1.565-1.044,3.271-1.08,5.006c-0.009,0.39,0.28,0.791,0.248,1.171
			c-0.05,0.588,0.118,1.124,0.336,1.6c0.531,1.166,1.063,2.289,2.228,3.109c1.062,0.754,2.218,1.072,3.382,1.203
			c1.26,0.146,2.562-0.109,3.515-1.174c0.2-0.227,0.479-0.383,0.721-0.572c0.492,0.658-0.104,1.133-0.076,1.645
			c0.056,1.047-0.359,1.758-1.455,2.17c-0.522,0-1.192,0-1.922,0c-0.354-0.313-0.741-0.657-1.268-1.121c-1.537,0-3.295,0-5.113,0
			c-0.197,1.337,0.592,2.316,1.365,3.089c0.727,0.717,1.618,1.44,2.795,1.528C147.963,96.685,148.183,97.009,148.414,97.194z
			 M86.051,91.707c0-2.32-0.016-4.522,0.006-6.725c0.013-1.258-0.188-2.531,0.312-3.697c0.342-0.369,0.662-0.72,0.952-1.037
			c0.525,0,1.005,0,1.462,0c1.229,0.758,1.286,0.862,1.288,2.332c0.003,2.633,0,5.266,0,7.897c0,0.414,0,0.828,0,1.219
			c1.887,0,3.645,0,5.462,0c0-3.334-0.027-6.626,0.018-9.92c0.017-1.17-0.136-2.271-0.579-3.355
			c-0.486-1.198-1.284-2.006-2.479-2.508c-0.869-0.365-1.737-0.244-2.614-0.266c-1.3-0.033-2.429,0.355-3.317,1.35
			c-0.384,0.428-0.809,0.815-1.212,1.222c-0.529-0.873-1.202-1.574-2.1-2.121c-0.602-0.364-1.18-0.414-1.824-0.468
			c-1.908-0.159-3.458,0.455-4.652,1.961c-0.188,0.236-0.425,0.434-0.808,0.814c0-0.99,0-1.732,0-2.433c-1.765,0-3.426,0-5.071,0
			c0,5.279,0,10.521,0,15.719c1.922,0,3.774,0,5.68,0c0-1.666,0-3.287,0-4.906c0-1.668,0-3.338,0-4.905
			c0.224-0.36,0.362-0.646,0.56-0.892c0.208-0.261,0.468-0.479,0.699-0.711c0.519,0,1.029,0,1.27,0
			c0.5,0.472,0.843,0.793,1.116,1.052c0.493,0.866,0.375,1.762,0.38,2.642c0.007,1.102,0.001,2.2,0.001,3.302
			c0,1.474,0,2.942,0,4.44C82.438,91.707,84.197,91.707,86.051,91.707z M130.595,85.396c0-1.045,0.021-2.04-0.013-3.034
			c-0.014-0.297-0.18-0.592-0.274-0.888c-0.484-1.47-1.021-2.903-2.271-3.942c-1.355-1.129-2.86-1.885-4.675-1.892
			c-0.522-0.002-1.055,0-1.577,0c-1.864-0.006-3.464,0.714-4.773,1.976c-1.23,1.182-1.942,2.654-2.246,4.378
			c-0.373,2.119-0.331,3.885,0.386,5.649c0.414,1.021,1.229,1.712,1.92,2.517c1.225,1.418,2.897,1.856,4.582,2.104
			c1.171,0.166,2.396,0.106,3.616-0.199c2.098-0.529,3.771-1.758,4.771-3.785c0.24-0.486,0.382-0.91,0.173-1.386
			c-1.689,0-3.354,0-5.009,0c-0.127,0.715-0.75,0.958-0.968,1.263c-0.536,0.189-0.872,0.305-1.184,0.41
			c-0.652-0.438-1.534-0.232-2.111-0.861c-0.618-0.67-0.841-1.391-0.604-2.307C123.748,85.396,127.134,85.396,130.595,85.396z
			 M44.074,75.687c-0.949-0.309-2.062-0.05-3.005,0.316c-2.287,0.895-3.911,2.552-4.758,4.938c-0.242,0.686-0.039,1.448-0.325,2.008
			c-0.3,0.58-0.313,1.164-0.173,1.615c0.16,0.502,0.205,0.975,0.239,1.475c0.012,0.175,0.083,0.347,0.133,0.519
			c0.458,1.565,1.303,2.872,2.52,3.979c1.154,1.061,2.57,1.525,4.013,1.723c1.267,0.17,2.595,0.195,3.895-0.219
			c1.495-0.477,2.929-1.096,3.897-2.311c1.222-1.533,1.838-3.354,1.944-5.354c0.056-0.998-0.15-1.957-0.354-2.883
			c-0.335-1.556-1.035-3.063-2.346-4.015C48.136,76.301,46.343,75.398,44.074,75.687z M53.297,81.232
			c-0.046,0.696,0.021,1.27-0.261,1.868c-0.271,0.582,0.125,2.558,0.447,3.519c0.188,0.547,0.272,1.137,0.525,1.646
			c0.34,0.688,0.955,1.193,1.332,1.885c0.197,0.363,0.673,0.617,1.075,0.816c0.791,0.391,1.535,0.846,2.422,1.094
			c1.354,0.383,2.706,0.162,4.054,0.246c0.13,0.006,0.269-0.041,0.396-0.084c1.605-0.529,3.153-1.127,4.271-2.523
			c1.049-1.309,1.812-2.696,1.822-4.417c0.005-1.003,0-2.009,0-3.015c0-0.239,0.096-0.549-0.02-0.704
			c-0.391-0.541-0.357-1.209-0.606-1.763c-0.312-0.688-0.809-1.312-1.305-1.896c-0.317-0.373-0.759-0.67-1.188-0.918
			c-1.294-0.736-2.625-1.388-4.176-1.353c-0.67,0.017-1.347-0.048-2.01,0.019c-0.624,0.062-1.294,0.119-1.843,0.389
			c-1.342,0.66-2.655,1.078-3.8,3.188C53.682,79.674,53.927,80.68,53.297,81.232z M137.494,91.985c0-2.563-0.068-5.094,0.021-7.618
			c0.087-2.435,1.354-3.685,3.857-3.838c0.419-0.027,0.841-0.004,1.269-0.004c0-1.666,0-3.23,0-4.83
			c-2.479-0.39-4.06,0.908-5.452,2.983c0-1.062,0-1.897,0-2.715c-1.855,0-3.613,0-5.381,0c0,5.368,0,10.699,0,16.021
			C133.719,91.985,135.572,91.985,137.494,91.985z"/>
		<path fill="#030303" d="M21.965,69.605c0.188,0.541,0.879,0.118,1.113,0.573c1.232,0.149,2.188,0.875,2.806,1.83
			c0.594,0.92,1.104,1.979,0.972,3.183c-0.067,0.637-0.05,1.254-0.246,1.905c-0.319,1.063-0.954,1.741-1.844,2.274
			c-0.113,0.066-0.255,0.09-0.428,0.148c0.542,0.441,0.84,0.819,1.229,0.985c1.275,0.545,1.651,1.738,2.127,2.846
			c0.209,0.484,0.29,1.062,0.292,1.599c0.007,1.769-0.557,3.37-1.597,4.792c-0.677,0.925-1.758,1.261-2.748,1.685
			c-0.528,0.225-1.113,0.336-1.739,0.328c-4.257-0.037-8.514-0.021-12.869-0.021c0-7.405,0-14.769,0-22.128
			C13.343,69.605,17.654,69.605,21.965,69.605z M20.733,82.605c-1.767-0.632-3.521-0.236-5.22-0.371
			c-0.164,0.162-0.298,0.299-0.404,0.403c0,1.5,0,2.972,0,4.517c1.903-0.095,3.78,0.205,5.734-0.42
			c0.324-0.408,0.729-0.912,1.026-1.29C22.228,84.044,21.494,83.27,20.733,82.605z M15.095,78.228c1.301,0,2.496-0.041,3.688,0.012
			c1.066,0.049,1.896-0.224,2.363-1.664c0.121-0.652-0.275-1.438-1.021-2.041c-1.688,0-3.347,0-5.031,0
			C15.095,75.755,15.095,76.938,15.095,78.228z"/>
		<path fill="#050505" d="M148.414,97.194c-0.229-0.187-0.449-0.509-0.693-0.524c-1.178-0.088-2.069-0.812-2.795-1.529
			c-0.772-0.771-1.563-1.752-1.365-3.088c1.818,0,3.576,0,5.113,0c0.521,0.463,0.909,0.809,1.267,1.119c0.729,0,1.396,0,1.925,0
			c1.094-0.41,1.508-1.123,1.452-2.168c-0.026-0.513,0.569-0.98,0.077-1.644c-0.243,0.188-0.521,0.349-0.721,0.569
			c-0.952,1.062-2.256,1.316-3.516,1.177c-1.164-0.134-2.314-0.451-3.38-1.203c-1.159-0.821-1.691-1.944-2.229-3.111
			c-0.218-0.475-0.386-1.012-0.336-1.598c0.032-0.381-0.257-0.783-0.248-1.172c0.036-1.734,0.312-3.438,1.08-5.007
			c0.898-1.853,2.227-3.215,4.438-3.375c0.879-0.795,1.757,0.298,2.636,0c0.668,0.468,1.352,0.921,1.996,1.416
			c0.159,0.121,0.211,0.384,0.399,0.757c0.041-0.705,0.072-1.246,0.105-1.836c1.766,0,3.521,0,5.426,0c0,0.314,0,0.68,0,1.045
			c0,4.262,0.021,8.521-0.02,12.785c-0.014,1.267-0.284,2.521-0.855,3.66c-0.957,1.902-2.518,3.103-4.788,3.445
			c-0.138,0.021-0.249,0.184-0.373,0.277c-0.287,0-0.574,0-0.86,0c-0.073-0.098-0.146-0.271-0.227-0.271
			c-0.615-0.021-1.232-0.021-1.854,0c-0.077,0.002-0.146,0.178-0.226,0.271C149.373,97.194,148.892,97.194,148.414,97.194z
			 M148.787,85.115c1.051,1.756,1.051,1.756,3.239,1.709c0.302-0.203,0.742-0.34,0.865-0.619c0.283-0.639,0.778-1.203,0.708-2
			c-0.066-0.801-0.015-1.609-0.015-2.229c-0.241-0.521-0.403-0.889-0.576-1.245c-0.364-0.759-1.146-0.854-1.814-1.041
			c-0.545-0.152-1.086,0.094-1.475,0.541c-0.357,0.411-0.695,0.845-1,1.218c-0.087,0.709,0.162,1.389-0.222,1.848
			C148.6,83.919,148.683,84.451,148.787,85.115z"/>
		<path fill="#040404" d="M102.719,69.605c0,2.569,0,5.141,0,7.879c0.325-0.181,0.55-0.238,0.682-0.384
			c1.004-1.104,2.396-1.362,3.729-1.75c1.979,0.265,3.874,0.72,5.066,2.533c0.882,1.338,1.448,2.774,1.47,4.426
			c0.008,0.619,0.362,1.229,0.262,1.892c-0.231,1.471-0.179,3.059-0.906,4.355c-0.745,1.324-1.372,2.947-3.258,3.182
			c-1.354,0.953-2.78,0.609-4.239,0.312c-0.591-0.121-0.946-0.521-1.423-0.744c-0.512-0.238-0.762-0.582-0.984-1.029
			c-0.053-0.102-0.184-0.162-0.351-0.305c0,0.6,0,1.113,0,1.693c-1.84,0-3.631,0-5.507,0c0-7.345,0-14.702,0-22.058
			C99.08,69.605,100.901,69.605,102.719,69.605z M107.319,87.214c0.784-1.838,0.905-2.259,0.854-3.801
			c-0.022-0.629-0.099-1.283-0.302-1.873c-0.188-0.535-0.498-1.086-0.903-1.465c-0.38-0.353-0.947-0.517-1.531-0.42
			c-0.274,0.045-0.565,0.008-0.839,0.008c-1.229,0.773-1.867,1.917-1.872,3.354c-0.004,0.854-0.001,1.706-0.001,2.312
			c0.434,1.193,1.062,1.974,1.867,2.628c0.581,0,1.188,0,1.658,0C106.61,87.71,106.865,87.532,107.319,87.214z"/>
		<path fill="#040404" d="M34.61,69.605c0,7.42,0,14.84,0,22.379c-1.882,0.084-3.77,0.006-5.748,0.047c0-7.518,0-14.973,0-22.426
			C30.778,69.605,32.694,69.605,34.61,69.605z"/>
		<path fill="#363636" d="M149.851,97.194c0.074-0.099,0.146-0.271,0.227-0.272c0.616-0.021,1.232-0.021,1.853,0
			c0.078,0.002,0.147,0.18,0.228,0.272C151.385,97.194,150.617,97.194,149.851,97.194z"/>
		<path fill="#020202" d="M86.051,91.707c-1.854,0-3.613,0-5.458,0c0-1.496,0-2.97,0-4.44c0-1.102,0.005-2.199-0.001-3.302
			c-0.005-0.879,0.113-1.771-0.38-2.641c-0.274-0.259-0.616-0.58-1.116-1.052c-0.238,0-0.751,0-1.27,0
			c-0.231,0.229-0.491,0.45-0.7,0.711c-0.193,0.243-0.337,0.528-0.56,0.892c0,1.567,0,3.238,0,4.906c0,1.619,0,3.24,0,4.904
			c-1.902,0-3.757,0-5.679,0c0-5.195,0-10.439,0-15.717c1.646,0,3.309,0,5.07,0c0,0.698,0,1.44,0,2.433
			c0.384-0.384,0.62-0.578,0.809-0.814c1.195-1.506,2.744-2.12,4.652-1.961c0.646,0.054,1.227,0.104,1.824,0.468
			c0.896,0.547,1.564,1.248,2.1,2.12c0.404-0.403,0.83-0.793,1.212-1.221c0.894-0.992,2.021-1.383,3.316-1.351
			c0.877,0.021,1.747-0.101,2.613,0.267c1.195,0.502,1.993,1.31,2.479,2.508c0.44,1.086,0.596,2.188,0.579,3.355
			c-0.045,3.293-0.02,6.586-0.02,9.92c-1.815,0-3.573,0-5.461,0c0-0.391,0-0.805,0-1.219c0-2.633,0.002-5.266,0-7.897
			c0-1.47-0.062-1.574-1.289-2.332c-0.457,0-0.935,0-1.459,0c-0.293,0.317-0.612,0.668-0.955,1.037
			c-0.5,1.166-0.304,2.439-0.312,3.697C86.037,87.184,86.051,89.384,86.051,91.707z"/>
		<path fill="#040404" d="M130.595,85.396c-3.462,0-6.85,0-10.259,0c-0.237,0.917-0.02,1.635,0.603,2.305
			c0.578,0.628,1.46,0.428,2.112,0.863c0.311-0.107,0.646-0.225,1.184-0.41c0.218-0.307,0.841-0.548,0.968-1.264
			c1.652,0,3.313,0,5.008,0c0.21,0.476,0.067,0.896-0.172,1.387c-0.995,2.025-2.675,3.254-4.771,3.785
			c-1.226,0.311-2.446,0.363-3.616,0.197c-1.685-0.242-3.36-0.685-4.582-2.103c-0.689-0.806-1.507-1.494-1.92-2.518
			c-0.717-1.768-0.759-3.529-0.386-5.648c0.304-1.727,1.015-3.198,2.246-4.379c1.312-1.263,2.909-1.979,4.773-1.976
			c0.522,0,1.055-0.002,1.577,0c1.812,0.007,3.314,0.763,4.675,1.892c1.248,1.039,1.784,2.475,2.271,3.942
			c0.099,0.295,0.265,0.591,0.273,0.888C130.617,83.355,130.595,84.353,130.595,85.396z M120.283,82.199c1.625,0,3.218,0,4.875,0
			c-0.073-1.287-0.486-2.289-1.693-2.824c-2.106,0-2.293,0.093-3.182,1.546C120.283,81.342,120.283,81.758,120.283,82.199z"/>
		<path fill="#030303" d="M44.074,75.687c2.271-0.287,4.063,0.614,5.683,1.788c1.312,0.949,2.011,2.459,2.346,4.015
			c0.2,0.926,0.406,1.885,0.354,2.883c-0.106,2.002-0.726,3.821-1.944,5.354c-0.973,1.22-2.401,1.839-3.897,2.312
			c-1.3,0.414-2.627,0.387-3.895,0.215c-1.438-0.19-2.855-0.66-4.013-1.719c-1.215-1.109-2.061-2.414-2.52-3.981
			c-0.05-0.172-0.121-0.343-0.133-0.517c-0.034-0.5-0.079-0.975-0.239-1.478c-0.144-0.45-0.127-1.035,0.173-1.614
			c0.286-0.561,0.083-1.322,0.325-2.009c0.847-2.388,2.472-4.045,4.758-4.938C42.01,75.637,43.124,75.378,44.074,75.687z
			 M44.567,88.53c0.954-0.571,1.17-0.78,1.538-1.492c0.05-0.094,0.579-1.969,0.574-2.059c-0.062-1.065,0.056-2.118-0.245-3.196
			c-0.279-1.01-0.713-1.715-1.654-2.183c-0.516-0.256-0.903-0.325-1.389,0.024c-0.277,0.201-0.646,0.281-0.854,0.367
			c-0.88,1.306-1.036,2.672-1.062,4.124c-0.025,1.484,0.383,2.771,1.107,3.971C43.548,88.565,43.548,88.565,44.567,88.53z"/>
		<path fill="#030303" d="M53.297,81.232c0.631-0.554,0.386-1.56,1.143-2.002c1.145-2.109,2.458-2.527,3.8-3.188
			c0.548-0.27,1.219-0.328,1.843-0.389c0.664-0.064,1.341-0.002,2.01-0.019c1.551-0.035,2.882,0.614,4.176,1.353
			c0.435,0.248,0.871,0.545,1.188,0.918c0.497,0.582,0.993,1.205,1.305,1.896c0.249,0.554,0.219,1.222,0.607,1.763
			c0.111,0.155,0.019,0.465,0.019,0.705c0,1.004,0.004,2.01,0,3.014c-0.009,1.719-0.773,3.105-1.822,4.417
			c-1.118,1.396-2.666,1.994-4.271,2.521c-0.127,0.043-0.266,0.093-0.396,0.084c-1.349-0.084-2.695,0.14-4.054-0.246
			c-0.887-0.245-1.63-0.7-2.421-1.094c-0.402-0.199-0.878-0.453-1.076-0.813c-0.377-0.688-0.992-1.197-1.332-1.888
			c-0.252-0.51-0.341-1.101-0.525-1.646c-0.322-0.961-0.722-2.936-0.447-3.516C53.319,82.501,53.253,81.93,53.297,81.232z
			 M62.054,88.573c0.337-0.338,0.67-0.619,0.938-0.953c0.25-0.312,0.519-0.652,0.627-1.025c0.431-1.451,0.344-2.729,0.048-4.646
			c-0.121-0.791-0.408-1.377-0.947-1.916c-0.612-0.613-1.334-0.76-2.136-0.623c-0.085,0.084-0.144,0.168-0.223,0.219
			c-1.208,0.785-1.657,1.934-1.616,3.33c0.021,0.766,0.082,1.541-0.021,2.293c-0.083,0.604,0.207,1.094,0.354,1.598
			c0.153,0.529,0.568,1.054,1.011,1.412c0.361,0.297,0.906,0.422,1.438,0.317C61.71,88.546,61.901,88.573,62.054,88.573z"/>
		<path fill="#080808" d="M137.494,91.985c-1.923,0-3.772,0-5.688,0c0-5.318,0-10.65,0-16.021c1.769,0,3.521,0,5.381,0
			c0,0.815,0,1.653,0,2.715c1.396-2.075,2.974-3.373,5.452-2.983c0,1.6,0,3.164,0,4.83c-0.428,0-0.852-0.023-1.27,0.004
			c-2.502,0.153-3.771,1.403-3.856,3.838C137.424,86.893,137.494,89.421,137.494,91.985z"/>
		<path fill="#EEEEEE" d="M20.733,82.605c0.762,0.664,1.495,1.438,1.14,2.838c-0.302,0.377-0.701,0.881-1.026,1.29
			c-1.954,0.625-3.831,0.327-5.734,0.42c0-1.545,0-3.017,0-4.517c0.106-0.104,0.241-0.241,0.404-0.403
			C17.213,82.369,18.967,81.975,20.733,82.605z"/>
		<path fill="none" d="M15.095,78.228c0-1.289,0-2.473,0-3.693c1.688,0,3.347,0,5.031,0c0.742,0.603,1.142,1.389,1.021,2.041
			c-0.467,1.44-1.297,1.713-2.363,1.664C17.593,78.187,16.396,78.228,15.095,78.228z"/>
		<path fill="none" d="M148.787,85.115c-0.104-0.664-0.188-1.195-0.283-1.822c0.383-0.459,0.134-1.139,0.221-1.848
			c0.304-0.373,0.643-0.806,1-1.217c0.388-0.447,0.929-0.693,1.475-0.541c0.67,0.188,1.452,0.282,1.814,1.041
			c0.173,0.357,0.335,0.725,0.576,1.245c0,0.619-0.057,1.431,0.015,2.229c0.07,0.796-0.425,1.361-0.708,2
			c-0.122,0.279-0.564,0.416-0.863,0.619C149.836,86.872,149.836,86.872,148.787,85.115z"/>
		<path fill="none" d="M107.319,87.214c-0.452,0.315-0.709,0.496-1.069,0.75c-0.474,0-1.077,0-1.658,0
			c-0.807-0.657-1.438-1.436-1.867-2.628c0-0.606-0.003-1.463,0.001-2.314c0.005-1.439,0.646-2.582,1.872-3.355
			c0.271,0,0.562,0.037,0.839-0.008c0.584-0.096,1.151,0.067,1.531,0.42c0.405,0.378,0.72,0.929,0.903,1.464
			c0.203,0.59,0.273,1.244,0.302,1.873C108.224,84.956,108.103,85.376,107.319,87.214z"/>
		<path fill="none" d="M120.283,82.199c0-0.439,0-0.855,0-1.277c0.889-1.453,1.07-1.546,3.182-1.546
			c1.207,0.535,1.62,1.537,1.693,2.824C123.501,82.199,121.908,82.199,120.283,82.199z"/>
		<path fill="none" d="M44.567,88.53c-1.02,0.035-1.02,0.035-1.983-0.44c-0.728-1.198-1.135-2.48-1.106-3.972
			c0.025-1.451,0.184-2.816,1.062-4.123c0.208-0.086,0.576-0.166,0.854-0.367c0.481-0.352,0.873-0.28,1.39-0.023
			c0.94,0.467,1.375,1.172,1.653,2.183c0.301,1.078,0.188,2.131,0.245,3.194c0.005,0.09-0.522,1.965-0.574,2.061
			C45.737,87.747,45.52,87.957,44.567,88.53z"/>
		<path fill="none" d="M62.054,88.573c-0.153,0-0.349-0.026-0.526,0.006c-0.53,0.103-1.075-0.022-1.438-0.319
			c-0.438-0.355-0.854-0.881-1.011-1.411c-0.146-0.504-0.438-0.987-0.354-1.598c0.104-0.752,0.043-1.527,0.021-2.293
			c-0.042-1.396,0.407-2.545,1.616-3.33c0.079-0.051,0.139-0.135,0.223-0.219c0.802-0.137,1.521,0.01,2.136,0.623
			c0.539,0.539,0.826,1.125,0.947,1.916c0.296,1.914,0.383,3.192-0.048,4.646c-0.108,0.373-0.377,0.715-0.627,1.024
			C62.725,87.954,62.391,88.235,62.054,88.573z"/>
	</g>
</g>
<path fill="none" stroke="#C5C5C5" stroke-width="3" stroke-miterlimit="10" d="M84.027-0.174c46.154,0,83.57,37.414,83.57,83.567
	c0,46.154-37.416,83.566-83.57,83.566c-46.155,0.004-83.571-37.41-83.571-83.564C0.455,37.241,37.871-0.174,84.027-0.174z"/>
</svg>
