<?xml version="1.0" encoding="utf-8"?>
<!-- Generator: Adobe Illustrator 16.0.0, SVG Export Plug-In . SVG Version: 6.00 Build 0)  -->
<!DOCTYPE svg PUBLIC "-//W3C//DTD SVG 1.1//EN" "http://www.w3.org/Graphics/SVG/1.1/DTD/svg11.dtd">
<svg version="1.1" id="Layer_1" xmlns="http://www.w3.org/2000/svg" xmlns:xlink="http://www.w3.org/1999/xlink" x="0px" y="0px"
	 width="170.14px" height="170.139px" viewBox="18.149 19.148 170.14 170.139"
	 enable-background="new 18.149 19.148 170.14 170.139" xml:space="preserve">
<path fill="none" stroke="#0182C4" stroke-width="3" stroke-miterlimit="10" d="M103.219,20.648c46.154,0,83.57,37.416,83.57,83.569
	c0,46.155-37.416,83.57-83.57,83.57c-46.154,0-83.57-37.415-83.57-83.57C19.648,58.063,57.064,20.648,103.219,20.648z"/>
<g id="je4R0J.tif_1_">
	<g>
		<path fill="none" d="M177.695,110.004c0,3.807,0,7.613,0,11.419c-48.729,0-97.458,0-146.188,0c0-3.43,0-6.858,0-10.288
			c0.02,0.037,0.054,0.072,0.058,0.11c0.025,0.312,0.031,0.626,0.07,0.937c0.04,0.324,0.104,0.646,0.17,0.967
			c0.081,0.396,0.146,0.797,0.266,1.183c0.254,0.813,0.536,1.619,0.965,2.368c0.384,0.671,0.823,1.297,1.352,1.857
			c0.235,0.25,0.501,0.473,0.754,0.705c0.381,0.354,0.813,0.637,1.262,0.887c0.579,0.324,1.183,0.596,1.826,0.775
			c0.747,0.211,1.501,0.381,2.281,0.381c0.785,0.002,1.57,0.025,2.351-0.111c0.56-0.1,1.118-0.202,1.656-0.387
			c0.602-0.205,1.191-0.44,1.719-0.805c0.084-0.059,0.179-0.102,0.267-0.148c-0.491-1.102-0.969-2.176-1.447-3.25
			c-0.35,0.209-0.668,0.403-1.019,0.549c-0.447,0.188-0.909,0.307-1.38,0.398c-0.435,0.088-0.88,0.072-1.322,0.07
			c-0.314-0.001-0.618-0.047-0.923-0.119c-0.861-0.201-1.6-0.619-2.24-1.221c-0.366-0.344-0.675-0.736-0.925-1.168
			c-0.206-0.358-0.417-0.725-0.554-1.11c-0.191-0.542-0.354-1.094-0.444-1.669c-0.087-0.561-0.169-1.117-0.17-1.682
			c0-0.426-0.007-0.853,0.005-1.279c0.009-0.352,0.011-0.709,0.071-1.055c0.065-0.377,0.123-0.758,0.216-1.133
			c0.136-0.553,0.312-1.093,0.559-1.601c0.232-0.478,0.528-0.924,0.875-1.336c0.23-0.274,0.492-0.508,0.769-0.72
			c0.367-0.281,0.768-0.512,1.211-0.668c0.439-0.155,0.886-0.27,1.352-0.289c0.558-0.022,1.111-0.002,1.666,0.104
			c0.457,0.088,0.896,0.217,1.318,0.404c0.32,0.141,0.625,0.316,0.954,0.486c0.049-0.117,0.094-0.234,0.146-0.347
			c0.363-0.786,0.731-1.569,1.086-2.358c0.065-0.145,0.16-0.289,0.126-0.484c-0.504-0.309-1.036-0.574-1.597-0.787
			c-0.64-0.244-1.303-0.396-1.973-0.521c-0.361-0.066-0.734-0.086-1.101-0.114c-0.473-0.034-0.954-0.041-1.425,0.002
			c-0.392,0.036-0.788,0.076-1.178,0.155c-0.434,0.089-0.864,0.193-1.279,0.338c-0.544,0.189-1.074,0.416-1.573,0.715
			c-0.597,0.358-1.148,0.771-1.651,1.248c-0.3,0.284-0.559,0.604-0.82,0.924c-0.401,0.492-0.737,1.024-1.011,1.591
			c-0.275,0.568-0.509,1.156-0.69,1.768c-0.193,0.646-0.34,1.303-0.44,1.968c-0.067,0.45-0.142,0.905-0.132,1.366
			c0,0.027-0.038,0.055-0.058,0.082c0-6.521,0-13.043,0-19.566c48.729,0,97.458,0,146.187,0c0,5.908,0,11.816,0,17.723
			c-0.02-0.017-0.057-0.033-0.057-0.053c-0.01-0.438-0.094-0.865-0.174-1.295c-0.074-0.398-0.171-0.787-0.291-1.174
			c-0.191-0.617-0.436-1.209-0.76-1.77c-0.322-0.561-0.689-1.086-1.143-1.547c-0.191-0.195-0.404-0.371-0.607-0.559
			c-0.383-0.352-0.818-0.618-1.273-0.864c-0.535-0.289-1.097-0.501-1.681-0.677c-0.728-0.218-1.472-0.323-2.222-0.373
			c-0.526-0.034-1.059-0.034-1.592,0.03c-0.435,0.051-0.863,0.105-1.293,0.186c-0.656,0.121-1.283,0.33-1.89,0.605
			c-1.012,0.459-1.913,1.082-2.676,1.894c-0.267,0.284-0.502,0.6-0.741,0.907c-0.562,0.722-0.966,1.532-1.304,2.378
			c-0.269,0.671-0.456,1.365-0.604,2.066c-0.117,0.558-0.179,1.127-0.24,1.693c-0.035,0.33-0.03,0.666-0.054,0.998
			c-0.024,0.368-0.028,0.742,0.033,1.115c0.054,0.316,0.021,0.643,0.058,0.969c0.051,0.424,0.116,0.844,0.186,1.264
			c0.078,0.477,0.197,0.94,0.337,1.399c0.229,0.756,0.526,1.485,0.924,2.17c0.446,0.771,0.986,1.464,1.64,2.075
			c0.465,0.436,0.961,0.822,1.508,1.148c0.482,0.285,0.979,0.539,1.506,0.728c0.688,0.247,1.388,0.446,2.115,0.552
			c0.541,0.078,1.076,0.17,1.623,0.168c0.597-0.002,1.189,0.004,1.785-0.006c0.322-0.006,0.646-0.025,0.965-0.062
			c0.385-0.043,0.767-0.106,1.146-0.17c0.467-0.076,0.939-0.133,1.396-0.248c0.826-0.211,1.646-0.447,2.428-0.799
			c0.146-0.063,0.287-0.146,0.434-0.222c-0.22-0.563-0.424-1.103-0.638-1.638c-0.216-0.54-0.412-1.09-0.646-1.629
			c-0.32,0.147-0.609,0.309-0.916,0.421c-1.041,0.381-2.115,0.634-3.215,0.778c-0.359,0.047-0.725,0.049-1.086,0.069
			c-0.068,0.004-0.143-0.012-0.205,0.011c-0.281,0.088-0.576,0.071-0.849,0.026c-0.319-0.053-0.644,0.006-0.956-0.094
			c-0.184-0.06-0.379-0.07-0.568-0.109c-0.404-0.079-0.793-0.213-1.179-0.368c-0.498-0.203-0.954-0.475-1.36-0.818
			c-0.35-0.299-0.681-0.62-0.943-1c-0.293-0.422-0.545-0.863-0.725-1.348c-0.162-0.433-0.314-0.867-0.39-1.322
			c-0.04-0.241-0.135-0.486-0.071-0.73c0.271-0.048,0.528-0.098,0.784-0.136c0.423-0.063,0.843-0.136,1.267-0.175
			c0.436-0.041,0.863-0.111,1.295-0.183c0.42-0.065,0.842-0.125,1.265-0.179c0.433-0.055,0.864-0.102,1.296-0.176
			c0.486-0.081,0.982-0.116,1.471-0.193c0.174-0.027,0.354-0.021,0.521-0.062c0.329-0.082,0.669-0.092,0.999-0.157
			c0.353-0.069,0.715-0.083,1.069-0.134c0.363-0.049,0.725-0.117,1.086-0.17c0.349-0.047,0.697-0.066,1.041-0.133
			c0.154-0.029,0.32-0.009,0.459-0.062c0.218-0.082,0.443-0.025,0.662-0.097c0.188-0.063,0.404-0.045,0.605-0.076
			C177.402,110.092,177.548,110.042,177.695,110.004z M100.918,119.82c0.283,0.121,0.557,0.238,0.829,0.354
			c0.603,0.258,1.231,0.428,1.862,0.594c0.324,0.084,0.649,0.168,0.979,0.231c0.295,0.058,0.595,0.088,0.892,0.128
			c0.184,0.023,0.373,0.018,0.549,0.064c0.307,0.086,0.623,0.026,0.926,0.108c1.08-0.01,2.165,0.073,3.24-0.112
			c0.381-0.066,0.771-0.097,1.144-0.191c0.733-0.189,1.454-0.423,2.138-0.762c0.818-0.402,1.562-0.909,2.213-1.547
			c0.513-0.5,0.947-1.062,1.326-1.67c0.348-0.56,0.623-1.15,0.848-1.767c0.271-0.741,0.478-1.498,0.609-2.278
			c0.084-0.496,0.144-0.994,0.215-1.492c0.039-0.278,0.041-0.564,0.056-0.847c0.039-0.866,0.021-1.735-0.05-2.602
			c-0.002-0.021,0.004-0.041-0.002-0.06c-0.096-0.326-0.104-0.666-0.162-0.998c-0.071-0.42-0.159-0.834-0.278-1.238
			c-0.242-0.82-0.556-1.615-0.981-2.362c-0.297-0.517-0.64-1-1.033-1.442c-0.446-0.498-0.941-0.947-1.494-1.33
			c-0.504-0.349-1.039-0.642-1.604-0.862c-0.488-0.193-0.992-0.347-1.515-0.454c-0.506-0.104-1.015-0.174-1.521-0.207
			c-0.498-0.032-1-0.047-1.502,0.031c-0.314,0.049-0.636,0.072-0.951,0.128c-0.476,0.083-0.941,0.188-1.398,0.341
			c-0.305,0.104-0.609,0.206-0.91,0.309c-0.015-0.016-0.025-0.023-0.027-0.031c-0.004-0.02-0.002-0.039-0.002-0.059
			c0-3.35,0-6.7,0-10.051c0-0.029,0-0.059-0.002-0.088c0-0.01-0.006-0.018-0.012-0.025c-0.006-0.007-0.014-0.016-0.02-0.022
			c-0.938-0.041-4.111-0.023-4.359,0.026C100.918,99.686,100.918,109.732,100.918,119.82z M66.893,110.014
			c-0.027-0.322,0.017-0.754-0.042-1.188c-0.052-0.385-0.077-0.775-0.128-1.16c-0.054-0.402-0.144-0.796-0.228-1.191
			c-0.106-0.498-0.257-0.982-0.435-1.459c-0.233-0.623-0.501-1.228-0.854-1.795c-0.272-0.438-0.559-0.861-0.894-1.258
			c-0.377-0.445-0.786-0.857-1.245-1.211c-0.591-0.454-1.223-0.844-1.924-1.114c-0.403-0.157-0.808-0.3-1.229-0.397
			c-0.338-0.08-0.677-0.15-1.024-0.189c-0.397-0.045-0.79-0.104-1.191-0.107c-0.578-0.004-1.151,0.024-1.727,0.105
			c-0.297,0.043-0.599,0.081-0.885,0.155c-0.752,0.197-1.486,0.449-2.171,0.831c-0.643,0.359-1.223,0.795-1.759,1.296
			c-0.294,0.273-0.545,0.589-0.797,0.902c-0.361,0.447-0.668,0.93-0.935,1.436c-0.218,0.416-0.389,0.855-0.565,1.292
			c-0.296,0.736-0.47,1.501-0.632,2.271c-0.087,0.416-0.132,0.842-0.178,1.266c-0.035,0.32-0.063,0.645-0.059,0.966
			c0.006,0.58-0.05,1.16,0.042,1.74c0.041,0.259,0.021,0.524,0.06,0.788c0.056,0.393,0.11,0.785,0.18,1.176
			c0.098,0.55,0.244,1.085,0.411,1.617c0.239,0.764,0.556,1.492,0.963,2.186c0.322,0.545,0.681,1.064,1.105,1.534
			c0.515,0.568,1.095,1.06,1.747,1.474c0.582,0.371,1.199,0.656,1.848,0.873c0.373,0.123,0.753,0.224,1.145,0.287
			c0.441,0.072,0.877,0.162,1.326,0.168c0.416,0.004,0.833,0.008,1.248-0.002c0.283-0.008,0.571-0.011,0.846-0.068
			c0.348-0.071,0.698-0.137,1.045-0.215c0.818-0.184,1.573-0.521,2.285-0.938c0.832-0.49,1.541-1.138,2.155-1.888
			c0.525-0.643,0.951-1.34,1.3-2.088c0.293-0.629,0.55-1.332,0.794-2.369c0.093-0.396,0.165-0.79,0.235-1.188
			c0.031-0.176,0.022-0.354,0.061-0.521c0.078-0.336,0.057-0.676,0.099-1.014C66.922,110.719,66.893,110.418,66.893,110.014z
			 M123.677,103.469c0.198-0.082,0.392-0.164,0.585-0.244c0.57-0.232,1.156-0.412,1.752-0.562c0.391-0.1,0.783-0.2,1.182-0.262
			c0.334-0.051,0.668-0.113,1.009-0.143c0.387-0.031,0.771-0.098,1.161-0.104c0.568-0.012,1.132,0.029,1.695,0.111
			c0.582,0.084,1.129,0.258,1.631,0.551c0.461,0.27,0.81,0.651,1.064,1.134c0.248,0.464,0.352,0.963,0.393,1.468
			c0.045,0.568,0.011,1.145,0.011,1.71c-0.212,0.028-0.4,0.062-0.593,0.075c-0.282,0.021-0.564,0.006-0.85,0.057
			c-0.246,0.043-0.504,0.026-0.758,0.057c-0.396,0.045-0.793,0.08-1.189,0.125c-0.424,0.047-0.844,0.119-1.266,0.178
			c-0.459,0.062-0.914,0.146-1.365,0.249c-0.469,0.104-0.935,0.222-1.395,0.356c-0.413,0.123-0.825,0.256-1.223,0.422
			c-0.472,0.194-0.934,0.416-1.363,0.693c-0.487,0.312-0.938,0.671-1.342,1.09c-0.56,0.574-0.938,1.25-1.205,2
			c-0.264,0.739-0.32,1.512-0.348,2.287c-0.006,0.133,0.033,0.268,0.047,0.401c0.018,0.184,0.022,0.368,0.051,0.552
			c0.054,0.375,0.136,0.738,0.25,1.098c0.269,0.849,0.725,1.584,1.347,2.213c0.212,0.215,0.454,0.402,0.694,0.586
			c0.465,0.351,0.973,0.627,1.51,0.849c0.508,0.207,1.027,0.377,1.561,0.5c0.318,0.073,0.637,0.149,0.959,0.204
			c0.229,0.041,0.469,0.029,0.696,0.078c0.136,0.027,0.269,0.039,0.403,0.051c0.145,0.01,0.287,0.05,0.432,0.05
			c1.23-0.002,2.461,0.06,3.689-0.1c0.451-0.06,0.902-0.112,1.353-0.188c0.372-0.062,0.749-0.099,1.113-0.191
			c0.687-0.176,1.378-0.338,2.04-0.6c0.311-0.121,0.627-0.238,0.916-0.412c0-0.115,0-0.214,0-0.312
			c0-3.718,0.006-7.435-0.004-11.149c-0.004-1.056,0.049-2.111-0.045-3.166c-0.033-0.361-0.07-0.724-0.146-1.068
			c-0.158-0.711-0.383-1.404-0.758-2.043c-0.432-0.73-0.999-1.334-1.699-1.799c-0.627-0.417-1.324-0.705-2.051-0.904
			c-0.613-0.168-1.24-0.274-1.871-0.353c-0.35-0.043-0.704-0.063-1.057-0.061c-0.6,0.001-1.199-0.05-1.799,0.044
			c-0.221,0.035-0.445,0.031-0.67,0.055c-0.453,0.047-0.904,0.098-1.354,0.188c-0.453,0.09-0.914,0.147-1.361,0.26
			c-0.604,0.152-1.2,0.332-1.795,0.521c-0.39,0.125-0.769,0.287-1.162,0.436C122.932,101.468,123.302,102.463,123.677,103.469z
			 M96.576,120.877c0-0.105,0-0.201,0-0.299c0-4.52,0.003-9.039-0.003-13.559c0-0.709,0.059-1.422-0.058-2.127
			c-0.03-0.183-0.024-0.371-0.069-0.55c-0.176-0.688-0.399-1.362-0.758-1.985c-0.25-0.435-0.57-0.813-0.906-1.178
			c-0.184-0.199-0.415-0.355-0.629-0.525c-0.559-0.44-1.187-0.756-1.854-0.994c-0.36-0.129-0.728-0.24-1.097-0.339
			c-0.307-0.081-0.619-0.142-0.933-0.193c-0.23-0.038-0.468-0.029-0.697-0.073c-0.404-0.078-0.814-0.094-1.221-0.1
			c-0.698-0.012-1.397-0.057-2.096,0.039c-0.289,0.04-0.585,0.025-0.878,0.055c-0.483,0.049-0.963,0.109-1.443,0.186
			c-0.429,0.065-0.854,0.15-1.279,0.234c-0.614,0.121-1.216,0.284-1.808,0.479c-0.491,0.159-0.977,0.334-1.455,0.499
			c-0.054,3.316-0.025,20.193,0.035,20.439c1.985,0.037,4.148,0.018,4.354-0.041c0-2.951,0-5.906,0-8.859c0-2.951,0-5.903,0-8.86
			c0.048-0.026,0.086-0.062,0.131-0.075c0.605-0.195,1.22-0.343,1.853-0.43c0.516-0.071,1.028-0.119,1.548-0.114
			c0.048,0,0.096-0.01,0.144-0.015c0.115-0.014,0.241-0.059,0.345-0.028c0.175,0.05,0.348,0.045,0.522,0.045
			c0.333,0.002,0.658,0.07,0.975,0.147c0.556,0.137,1.068,0.367,1.532,0.722c0.433,0.332,0.748,0.747,0.975,1.224
			c0.265,0.553,0.372,1.152,0.372,1.772c-0.003,4.737-0.002,9.476-0.002,14.213c0,0.097,0,0.192,0,0.293
			C93.651,120.877,95.104,120.877,96.576,120.877z M155.779,100.467c-0.103-0.059-0.18-0.115-0.268-0.154
			c-0.41-0.187-0.818-0.378-1.236-0.552c-0.578-0.239-1.187-0.386-1.795-0.515c-0.406-0.086-0.818-0.146-1.231-0.201
			c-0.319-0.043-0.646,0.01-0.954-0.098c-0.6,0.02-1.199-0.037-1.801,0.044c-0.326,0.043-0.654,0.074-0.982,0.12
			c-0.421,0.061-0.828,0.169-1.232,0.291c-0.545,0.164-1.066,0.382-1.557,0.674c-0.629,0.376-1.168,0.85-1.623,1.428
			c-0.76,0.965-1.072,2.081-1.142,3.282c-0.015,0.271,0.007,0.544,0.04,0.819c0.033,0.278,0.072,0.556,0.132,0.83
			c0.125,0.58,0.359,1.116,0.688,1.608c0.293,0.44,0.637,0.832,1.043,1.181c0.558,0.481,1.186,0.842,1.826,1.188
			c0.303,0.164,0.627,0.293,0.946,0.422c0.462,0.188,0.931,0.357,1.394,0.541c0.68,0.27,1.367,0.516,2.016,0.857
			c0.479,0.256,0.918,0.563,1.268,0.979c0.326,0.386,0.525,0.837,0.564,1.339c0.023,0.301,0.021,0.604-0.041,0.908
			c-0.111,0.545-0.369,1.008-0.764,1.375c-0.359,0.335-0.795,0.568-1.271,0.73c-0.558,0.188-1.134,0.236-1.71,0.281
			c-0.2,0.018-0.407-0.05-0.61-0.041c-0.385,0.014-0.758-0.076-1.127-0.143c-0.566-0.1-1.123-0.255-1.668-0.439
			c-0.537-0.184-1.068-0.382-1.565-0.66c-0.072-0.041-0.155-0.062-0.241-0.099c-0.494,1.121-0.979,2.22-1.473,3.338
			c0.201,0.104,0.391,0.226,0.596,0.306c0.688,0.269,1.379,0.522,2.1,0.697c0.533,0.129,1.065,0.258,1.611,0.329
			c0.174,0.021,0.352,0.027,0.521,0.06c0.334,0.062,0.672,0.096,1.012,0.108c0.109,0.005,0.219,0.007,0.328,0.005
			c0.844-0.011,1.688,0.026,2.529-0.111c0.446-0.074,0.896-0.146,1.336-0.252c0.543-0.129,1.062-0.326,1.567-0.562
			c0.742-0.344,1.396-0.812,1.958-1.407c0.331-0.353,0.616-0.738,0.831-1.162c0.272-0.539,0.478-1.107,0.56-1.719
			c0.047-0.357,0.104-0.712,0.108-1.072c0.004-0.422-0.049-0.834-0.11-1.252c-0.07-0.472-0.218-0.914-0.408-1.346
			c-0.281-0.63-0.683-1.173-1.205-1.621c-0.268-0.229-0.525-0.476-0.816-0.671c-0.634-0.426-1.314-0.772-2.018-1.067
			c-0.902-0.375-1.83-0.688-2.733-1.066c-0.591-0.246-1.161-0.514-1.675-0.9c-0.428-0.322-0.719-0.731-0.908-1.226
			c-0.117-0.31-0.123-0.628-0.123-0.952c0-0.234,0.023-0.464,0.096-0.689c0.279-0.873,0.896-1.398,1.729-1.722
			c0.531-0.208,1.095-0.231,1.65-0.288c0.131-0.014,0.269,0.045,0.402,0.045c0.332-0.002,0.656,0.062,0.982,0.116
			c0.39,0.066,0.771,0.161,1.146,0.281c0.604,0.19,1.197,0.417,1.748,0.739c0.058,0.031,0.119,0.054,0.208,0.093
			C154.881,102.479,155.327,101.48,155.779,100.467z M70.616,99.364c-0.029,0.026-0.037,0.033-0.044,0.04
			c-0.007,0.008-0.014,0.013-0.021,0.021c-0.006,0.008-0.012,0.016-0.016,0.024c-0.004,0.008-0.007,0.019-0.007,0.028
			c0,0.03,0,0.06,0,0.089c0,7.084,0,14.17,0,21.254c0,0.011,0,0.021,0.004,0.029c0.005,0.008,0.015,0.015,0.023,0.021
			c1.468,0,2.939,0,4.413,0c0-7.156,0-14.298,0-21.403c-0.056-0.132-0.144-0.104-0.22-0.104
			C73.373,99.364,71.996,99.364,70.616,99.364z M72.756,90.529c-0.202,0.028-0.406,0.046-0.605,0.086
			c-0.694,0.139-1.237,0.516-1.615,1.104c-0.403,0.629-0.495,1.311-0.255,2.031c0.161,0.482,0.428,0.875,0.836,1.193
			c0.395,0.309,0.835,0.488,1.318,0.54c0.622,0.067,1.214-0.05,1.753-0.398c0.326-0.212,0.596-0.468,0.798-0.797
			c0.345-0.565,0.447-1.169,0.298-1.815c-0.089-0.385-0.258-0.732-0.516-1.023C74.236,90.854,73.568,90.539,72.756,90.529z"/>
		<path fill="#0182C5" d="M177.695,110.004c-0.147,0.038-0.293,0.088-0.443,0.112c-0.201,0.032-0.417,0.013-0.605,0.075
			c-0.219,0.072-0.444,0.016-0.662,0.098c-0.139,0.053-0.305,0.031-0.459,0.061c-0.344,0.066-0.692,0.086-1.041,0.135
			c-0.361,0.052-0.723,0.119-1.086,0.17c-0.354,0.05-0.719,0.062-1.069,0.133c-0.33,0.064-0.67,0.074-0.999,0.156
			c-0.166,0.043-0.348,0.037-0.521,0.063c-0.488,0.077-0.983,0.112-1.471,0.194c-0.432,0.074-0.863,0.119-1.296,0.175
			c-0.423,0.054-0.845,0.112-1.265,0.179c-0.432,0.07-0.859,0.143-1.295,0.182c-0.424,0.039-0.844,0.111-1.267,0.176
			c-0.256,0.038-0.513,0.088-0.784,0.136c-0.062,0.244,0.031,0.489,0.071,0.729c0.074,0.455,0.228,0.892,0.39,1.324
			c0.181,0.482,0.432,0.926,0.725,1.347c0.264,0.38,0.595,0.702,0.943,1c0.406,0.345,0.862,0.616,1.36,0.817
			c0.386,0.156,0.772,0.291,1.179,0.369c0.189,0.039,0.387,0.051,0.568,0.109c0.312,0.1,0.637,0.041,0.956,0.094
			c0.271,0.045,0.565,0.062,0.849-0.027c0.062-0.021,0.137-0.006,0.205-0.01c0.361-0.021,0.727-0.023,1.086-0.07
			c1.1-0.145,2.174-0.396,3.215-0.777c0.307-0.112,0.596-0.271,0.916-0.421c0.232,0.54,0.43,1.089,0.646,1.629
			c0.214,0.534,0.418,1.073,0.638,1.638c-0.146,0.075-0.285,0.157-0.434,0.223c-0.781,0.351-1.602,0.588-2.428,0.799
			c-0.457,0.115-0.93,0.172-1.396,0.248c-0.381,0.062-0.763,0.125-1.146,0.17c-0.319,0.035-0.643,0.057-0.965,0.062
			c-0.596,0.011-1.188,0.005-1.785,0.007c-0.547,0.002-1.082-0.091-1.623-0.168c-0.729-0.104-1.43-0.306-2.115-0.553
			c-0.525-0.188-1.021-0.441-1.505-0.729c-0.548-0.324-1.044-0.713-1.509-1.147c-0.652-0.61-1.192-1.306-1.64-2.075
			c-0.397-0.685-0.694-1.414-0.924-2.17c-0.14-0.459-0.259-0.924-0.337-1.398c-0.068-0.422-0.135-0.84-0.186-1.265
			c-0.037-0.325-0.004-0.651-0.058-0.969c-0.062-0.373-0.058-0.747-0.032-1.115c0.021-0.331,0.018-0.668,0.053-0.997
			c0.062-0.566,0.123-1.138,0.24-1.693c0.148-0.702,0.338-1.396,0.604-2.067c0.338-0.846,0.741-1.655,1.304-2.378
			c0.239-0.309,0.475-0.623,0.741-0.907c0.763-0.812,1.664-1.435,2.676-1.894c0.604-0.275,1.231-0.484,1.89-0.605
			c0.43-0.08,0.858-0.135,1.293-0.186c0.533-0.064,1.064-0.064,1.593-0.03c0.749,0.05,1.493,0.155,2.221,0.373
			c0.584,0.176,1.146,0.388,1.681,0.677c0.455,0.246,0.892,0.514,1.273,0.864c0.203,0.187,0.416,0.362,0.607,0.558
			c0.453,0.461,0.819,0.987,1.143,1.547c0.324,0.562,0.568,1.152,0.76,1.771c0.12,0.388,0.217,0.774,0.291,1.174
			c0.08,0.431,0.164,0.857,0.174,1.295c0,0.019,0.037,0.036,0.057,0.054C177.695,108.18,177.695,109.092,177.695,110.004z
			 M173.471,107.732c0-0.246,0.006-0.472-0.002-0.697c-0.003-0.084-0.039-0.169-0.049-0.254c-0.025-0.232-0.023-0.471-0.072-0.697
			c-0.119-0.555-0.283-1.096-0.547-1.604c-0.465-0.896-1.138-1.566-2.078-1.957c-0.541-0.226-1.107-0.332-1.688-0.363
			c-0.331-0.018-0.663,0.002-0.996,0.038c-0.486,0.052-0.953,0.163-1.398,0.344c-0.947,0.384-1.703,1.013-2.264,1.867
			c-0.215,0.331-0.406,0.675-0.555,1.045c-0.135,0.329-0.256,0.661-0.342,1.005c-0.073,0.289-0.15,0.574-0.192,0.875
			c-0.038,0.275-0.108,0.551-0.108,0.833c0,0.04,0.012,0.084-0.003,0.118c-0.108,0.268-0.024,0.541-0.058,0.824
			c0.139,0,0.268,0.031,0.369-0.008c0.125-0.05,0.248-0.037,0.373-0.052c0.174-0.019,0.354-0.021,0.521-0.063
			c0.337-0.094,0.687-0.102,1.028-0.163c0.361-0.065,0.738-0.063,1.099-0.138c0.361-0.076,0.728-0.094,1.089-0.16
			c0.342-0.064,0.693-0.082,1.039-0.131c0.363-0.052,0.723-0.121,1.088-0.17c0.365-0.051,0.731-0.084,1.1-0.127
			c0.162-0.021,0.324-0.048,0.486-0.072c0.211-0.033,0.418-0.071,0.629-0.101c0.213-0.026,0.431-0.026,0.64-0.069
			C172.863,107.797,173.148,107.758,173.471,107.732z"/>
		<path fill="#0182C4" d="M31.509,109.111c0.02-0.027,0.058-0.055,0.058-0.082c-0.01-0.461,0.064-0.915,0.132-1.366
			c0.1-0.665,0.247-1.32,0.44-1.968c0.182-0.61,0.415-1.198,0.69-1.768c0.274-0.564,0.61-1.099,1.011-1.591
			c0.261-0.317,0.52-0.64,0.82-0.924c0.503-0.478,1.055-0.89,1.651-1.248c0.499-0.299,1.029-0.525,1.573-0.715
			c0.415-0.145,0.845-0.249,1.279-0.338c0.391-0.079,0.786-0.119,1.178-0.155c0.472-0.043,0.952-0.036,1.425-0.002
			c0.367,0.028,0.739,0.048,1.101,0.114c0.669,0.125,1.333,0.277,1.973,0.521c0.561,0.213,1.092,0.479,1.597,0.787
			c0.033,0.195-0.061,0.341-0.126,0.484c-0.355,0.789-0.724,1.572-1.086,2.359c-0.052,0.11-0.096,0.229-0.146,0.346
			c-0.329-0.17-0.634-0.346-0.954-0.486c-0.422-0.188-0.861-0.316-1.318-0.404c-0.554-0.105-1.108-0.127-1.666-0.104
			c-0.465,0.021-0.912,0.134-1.352,0.289c-0.443,0.156-0.844,0.387-1.211,0.668c-0.277,0.212-0.539,0.443-0.769,0.72
			c-0.347,0.412-0.643,0.858-0.875,1.336c-0.247,0.508-0.422,1.048-0.559,1.601c-0.093,0.375-0.15,0.756-0.216,1.133
			c-0.06,0.346-0.062,0.703-0.071,1.055c-0.012,0.428-0.005,0.854-0.005,1.279c0.001,0.563,0.083,1.121,0.17,1.682
			c0.09,0.575,0.253,1.127,0.444,1.669c0.136,0.388,0.348,0.752,0.554,1.11c0.25,0.432,0.559,0.824,0.925,1.168
			c0.64,0.602,1.379,1.02,2.24,1.221c0.305,0.072,0.609,0.118,0.923,0.119c0.442,0.002,0.887,0.018,1.322-0.07
			c0.471-0.093,0.933-0.212,1.38-0.398c0.351-0.146,0.669-0.34,1.019-0.549c0.479,1.074,0.957,2.148,1.447,3.25
			c-0.088,0.047-0.183,0.09-0.267,0.148c-0.528,0.363-1.117,0.6-1.719,0.805c-0.539,0.185-1.096,0.287-1.656,0.387
			c-0.781,0.138-1.565,0.113-2.351,0.111c-0.78,0-1.534-0.17-2.281-0.381c-0.643-0.181-1.247-0.451-1.826-0.775
			c-0.449-0.25-0.881-0.533-1.262-0.887c-0.253-0.232-0.519-0.455-0.754-0.705c-0.529-0.562-0.967-1.188-1.352-1.857
			c-0.429-0.749-0.711-1.555-0.965-2.368c-0.12-0.386-0.186-0.785-0.266-1.183c-0.066-0.319-0.13-0.643-0.17-0.967
			c-0.039-0.311-0.045-0.625-0.07-0.937c-0.004-0.038-0.038-0.073-0.058-0.11C31.509,110.46,31.509,109.786,31.509,109.111z"/>
		<path fill="#0182C5" d="M100.918,119.82c0-10.088,0-20.135,0-30.185c0.248-0.05,3.421-0.067,4.359-0.026
			c0.006,0.007,0.014,0.015,0.02,0.022c0.006,0.007,0.012,0.016,0.012,0.025c0.002,0.029,0.002,0.059,0.002,0.088
			c0,3.351,0,6.701,0,10.051c0,0.02-0.002,0.039,0.002,0.059c0.002,0.008,0.014,0.016,0.027,0.031
			c0.301-0.103,0.605-0.205,0.91-0.309c0.457-0.152,0.924-0.258,1.398-0.341c0.315-0.056,0.637-0.079,0.951-0.128
			c0.502-0.078,1.004-0.063,1.502-0.031c0.508,0.033,1.016,0.104,1.521,0.207c0.521,0.107,1.024,0.261,1.515,0.454
			c0.563,0.222,1.1,0.515,1.604,0.863c0.553,0.383,1.048,0.83,1.494,1.328c0.395,0.443,0.736,0.928,1.033,1.443
			c0.428,0.747,0.739,1.542,0.981,2.363c0.119,0.404,0.207,0.818,0.278,1.236c0.059,0.332,0.066,0.674,0.162,0.998
			c0.006,0.02,0,0.039,0.002,0.061c0.07,0.865,0.088,1.734,0.05,2.602c-0.015,0.281-0.017,0.567-0.056,0.848
			c-0.072,0.496-0.131,0.994-0.215,1.49c-0.133,0.781-0.338,1.538-0.609,2.279c-0.225,0.615-0.5,1.207-0.848,1.766
			c-0.379,0.609-0.813,1.17-1.326,1.67c-0.65,0.639-1.395,1.146-2.213,1.547c-0.684,0.34-1.404,0.572-2.138,0.763
			c-0.372,0.096-0.763,0.125-1.144,0.19c-1.075,0.188-2.16,0.104-3.24,0.113c-0.303-0.082-0.619-0.023-0.926-0.107
			c-0.176-0.049-0.365-0.043-0.549-0.065c-0.297-0.04-0.597-0.069-0.892-0.128c-0.33-0.062-0.655-0.146-0.979-0.232
			c-0.631-0.164-1.26-0.336-1.862-0.593C101.475,120.059,101.201,119.941,100.918,119.82z M105.314,117.307
			c0.194,0.062,0.392,0.139,0.595,0.189c0.43,0.107,0.858,0.212,1.306,0.256c0.172,0.02,0.348,0.029,0.521,0.047
			c0.173,0.018,0.347,0.049,0.521,0.051c0.399,0.006,0.794-0.058,1.19-0.104c0.443-0.053,0.869-0.174,1.275-0.344
			c0.908-0.385,1.657-0.975,2.221-1.793c0.322-0.471,0.594-0.973,0.789-1.508c0.205-0.569,0.361-1.152,0.461-1.754
			c0.063-0.393,0.138-0.787,0.146-1.179c0.024-1.041,0.096-2.086-0.102-3.121c-0.082-0.426-0.123-0.864-0.256-1.272
			c-0.354-1.108-0.849-2.142-1.726-2.953c-0.522-0.484-1.116-0.84-1.78-1.066c-0.334-0.115-0.688-0.181-1.039-0.238
			c-0.229-0.037-0.469,0.002-0.697-0.062c-0.047-0.013-0.107-0.019-0.146,0.002c-0.16,0.078-0.328,0.035-0.492,0.051
			c-0.254,0.022-0.506,0.039-0.76,0.065c-0.133,0.014-0.268,0.037-0.398,0.068c-0.289,0.071-0.576,0.144-0.861,0.228
			c-0.266,0.079-0.521,0.182-0.77,0.31C105.314,107.891,105.314,112.587,105.314,117.307z"/>
		<path fill="#0182C4" d="M66.893,110.014c0,0.404,0.029,0.705-0.008,0.998c-0.042,0.338-0.021,0.678-0.099,1.014
			c-0.039,0.168-0.03,0.347-0.061,0.521c-0.071,0.398-0.142,0.794-0.235,1.189c-0.244,1.037-0.501,1.738-0.794,2.367
			c-0.349,0.75-0.774,1.446-1.3,2.09c-0.615,0.75-1.323,1.396-2.155,1.887c-0.712,0.419-1.466,0.756-2.285,0.939
			c-0.347,0.078-0.697,0.143-1.045,0.215c-0.274,0.058-0.563,0.061-0.846,0.067c-0.416,0.011-0.833,0.007-1.248,0.001
			c-0.449-0.005-0.885-0.095-1.326-0.167c-0.392-0.063-0.772-0.163-1.145-0.288c-0.649-0.216-1.266-0.502-1.848-0.871
			c-0.651-0.414-1.232-0.906-1.747-1.475c-0.424-0.47-0.783-0.988-1.105-1.534c-0.408-0.692-0.724-1.422-0.963-2.186
			c-0.167-0.532-0.312-1.067-0.411-1.617c-0.069-0.392-0.124-0.783-0.18-1.176c-0.038-0.265-0.019-0.529-0.06-0.788
			c-0.092-0.58-0.036-1.16-0.042-1.74c-0.004-0.322,0.024-0.646,0.059-0.966c0.046-0.425,0.091-0.851,0.178-1.265
			c0.162-0.771,0.336-1.535,0.632-2.271c0.176-0.436,0.347-0.876,0.565-1.292c0.267-0.506,0.574-0.987,0.935-1.435
			c0.252-0.314,0.503-0.629,0.797-0.903c0.536-0.501,1.116-0.937,1.759-1.296c0.685-0.382,1.419-0.634,2.171-0.831
			c0.286-0.074,0.587-0.112,0.885-0.155c0.575-0.081,1.149-0.109,1.727-0.105c0.401,0.003,0.794,0.062,1.191,0.107
			c0.348,0.039,0.686,0.109,1.024,0.189c0.42,0.098,0.826,0.24,1.229,0.396c0.701,0.271,1.333,0.66,1.924,1.114
			c0.459,0.354,0.868,0.767,1.245,1.211c0.335,0.396,0.622,0.819,0.894,1.258c0.353,0.567,0.621,1.173,0.854,1.796
			c0.178,0.476,0.329,0.959,0.435,1.459c0.083,0.396,0.174,0.789,0.228,1.19c0.051,0.385,0.076,0.774,0.128,1.16
			C66.91,109.26,66.866,109.689,66.893,110.014z M62.492,109.977c-0.027-0.268,0.008-0.647-0.038-1.033
			c-0.048-0.403-0.062-0.813-0.133-1.217c-0.05-0.285-0.079-0.576-0.146-0.855c-0.114-0.477-0.256-0.941-0.449-1.395
			c-0.318-0.75-0.736-1.422-1.347-1.973c-0.381-0.344-0.807-0.6-1.279-0.788c-0.35-0.14-0.718-0.233-1.09-0.255
			c-0.556-0.029-1.11-0.029-1.666,0.098c-0.638,0.145-1.204,0.42-1.7,0.826c-0.757,0.62-1.234,1.442-1.579,2.346
			c-0.192,0.502-0.334,1.021-0.436,1.549c-0.081,0.429-0.135,0.859-0.179,1.294c-0.037,0.358-0.059,0.724-0.059,1.086
			c0,0.42-0.029,0.842,0.04,1.264c0.047,0.287,0.03,0.584,0.056,0.877c0.041,0.455,0.107,0.907,0.205,1.351
			c0.163,0.74,0.388,1.463,0.756,2.137c0.341,0.625,0.759,1.176,1.329,1.611c0.614,0.47,1.305,0.76,2.066,0.828
			c0.593,0.053,1.195,0.051,1.783-0.105c0.596-0.158,1.144-0.41,1.613-0.812c0.623-0.535,1.085-1.189,1.415-1.943
			c0.343-0.781,0.547-1.596,0.671-2.438c0.026-0.174,0.022-0.354,0.062-0.52c0.079-0.336,0.051-0.678,0.098-1.016
			C62.521,110.629,62.492,110.357,62.492,109.977z"/>
		<path fill="#0182C4" d="M123.677,103.469c-0.375-1.006-0.745-2.001-1.124-3.016c0.395-0.148,0.772-0.311,1.162-0.436
			c0.594-0.189,1.189-0.369,1.795-0.521c0.447-0.111,0.908-0.17,1.361-0.26c0.449-0.09,0.9-0.141,1.354-0.188
			c0.226-0.023,0.45-0.02,0.672-0.055c0.599-0.094,1.199-0.043,1.799-0.044c0.352-0.003,0.705,0.018,1.056,0.061
			c0.631,0.078,1.258,0.185,1.871,0.353c0.728,0.199,1.424,0.487,2.051,0.904c0.7,0.465,1.269,1.068,1.699,1.799
			c0.375,0.639,0.599,1.332,0.758,2.043c0.076,0.346,0.113,0.707,0.146,1.067c0.095,1.056,0.043,2.111,0.045,3.166
			c0.011,3.718,0.005,7.433,0.005,11.15c0,0.098,0,0.194,0,0.312c-0.289,0.174-0.604,0.291-0.916,0.412
			c-0.662,0.262-1.354,0.424-2.04,0.6c-0.364,0.094-0.741,0.129-1.113,0.191c-0.449,0.076-0.9,0.129-1.354,0.188
			c-1.229,0.16-2.459,0.099-3.688,0.101c-0.146,0-0.287-0.04-0.432-0.05c-0.136-0.012-0.269-0.021-0.403-0.051
			c-0.229-0.049-0.468-0.037-0.695-0.078c-0.322-0.055-0.642-0.131-0.959-0.204c-0.533-0.123-1.054-0.293-1.562-0.5
			c-0.537-0.222-1.045-0.498-1.509-0.849c-0.241-0.184-0.483-0.371-0.695-0.586c-0.622-0.629-1.078-1.365-1.348-2.213
			c-0.113-0.358-0.195-0.723-0.25-1.098c-0.026-0.184-0.032-0.368-0.051-0.552c-0.013-0.134-0.052-0.269-0.047-0.401
			c0.027-0.775,0.086-1.548,0.348-2.288c0.268-0.749,0.646-1.425,1.205-2c0.404-0.418,0.854-0.776,1.343-1.089
			c0.431-0.277,0.893-0.499,1.362-0.693c0.397-0.166,0.811-0.3,1.224-0.422c0.46-0.136,0.926-0.252,1.396-0.356
			c0.45-0.103,0.905-0.188,1.364-0.249c0.422-0.059,0.843-0.131,1.267-0.178c0.396-0.045,0.793-0.08,1.188-0.125
			c0.254-0.029,0.511-0.014,0.758-0.057c0.284-0.051,0.566-0.035,0.851-0.057c0.19-0.014,0.381-0.047,0.592-0.075
			c0-0.565,0.033-1.142-0.012-1.71c-0.039-0.505-0.144-1.004-0.392-1.468c-0.256-0.481-0.604-0.864-1.063-1.134
			c-0.502-0.293-1.049-0.467-1.631-0.551c-0.564-0.082-1.129-0.123-1.696-0.111c-0.39,0.006-0.774,0.072-1.161,0.104
			c-0.34,0.028-0.674,0.092-1.008,0.143c-0.398,0.062-0.791,0.162-1.182,0.262c-0.597,0.15-1.183,0.33-1.752,0.562
			C124.068,103.305,123.875,103.387,123.677,103.469z M134.148,110.118c-0.101,0-0.188,0-0.273,0
			c-0.354,0.004-0.703,0.017-1.057,0.057c-0.369,0.043-0.744,0.028-1.112,0.079c-0.194,0.023-0.394,0.016-0.579,0.057
			c-0.359,0.08-0.729,0.082-1.088,0.166c-0.346,0.082-0.702,0.121-1.045,0.215c-0.396,0.107-0.793,0.229-1.17,0.39
			c-0.676,0.287-1.293,0.657-1.75,1.262c-0.398,0.527-0.596,1.123-0.648,1.767c-0.029,0.357-0.027,0.722,0.045,1.084
			c0.064,0.334,0.15,0.666,0.316,0.953c0.338,0.584,0.812,1.043,1.422,1.354c0.465,0.235,0.953,0.394,1.471,0.483
			c0.528,0.095,1.055,0.166,1.592,0.17c0.627,0.006,1.25-0.031,1.873-0.108c0.402-0.052,0.808-0.096,1.201-0.192
			c0.277-0.068,0.568-0.101,0.803-0.264C134.148,115.098,134.148,112.615,134.148,110.118z"/>
		<path fill="#0282C5" d="M96.576,120.877c-1.472,0-2.925,0-4.402,0c0-0.1,0-0.197,0-0.293c0-4.738,0-9.477,0.002-14.213
			c0-0.62-0.106-1.221-0.372-1.773c-0.227-0.476-0.542-0.891-0.975-1.223c-0.464-0.354-0.977-0.585-1.532-0.721
			c-0.317-0.078-0.642-0.146-0.975-0.148c-0.174,0-0.348,0.005-0.522-0.045c-0.104-0.029-0.23,0.016-0.345,0.028
			c-0.048,0.005-0.096,0.015-0.144,0.015c-0.52-0.005-1.032,0.043-1.548,0.114c-0.633,0.087-1.248,0.233-1.853,0.43
			c-0.044,0.015-0.083,0.048-0.131,0.075c0,2.957,0,5.909,0,8.861c0,2.953,0,5.908,0,8.858c-0.206,0.058-2.37,0.078-4.354,0.041
			c-0.06-0.245-0.089-17.123-0.035-20.439c0.479-0.165,0.964-0.34,1.455-0.499c0.592-0.193,1.194-0.356,1.808-0.478
			c0.425-0.084,0.85-0.169,1.279-0.234c0.48-0.076,0.96-0.137,1.443-0.186c0.293-0.029,0.589-0.015,0.878-0.055
			c0.698-0.096,1.398-0.051,2.096-0.039c0.406,0.006,0.817,0.021,1.221,0.1c0.229,0.044,0.467,0.035,0.697,0.073
			c0.313,0.052,0.626,0.112,0.933,0.193c0.37,0.099,0.737,0.21,1.097,0.339c0.667,0.238,1.295,0.554,1.854,0.993
			c0.214,0.171,0.445,0.326,0.629,0.525c0.336,0.364,0.656,0.744,0.906,1.18c0.359,0.623,0.583,1.295,0.758,1.984
			c0.045,0.178,0.039,0.367,0.069,0.549c0.117,0.707,0.057,1.418,0.058,2.127c0.006,4.521,0.003,9.039,0.003,13.56
			C96.576,120.676,96.576,120.771,96.576,120.877z"/>
		<path fill="#0182C5" d="M155.779,100.467c-0.452,1.014-0.898,2.014-1.354,3.028c-0.089-0.039-0.15-0.062-0.208-0.093
			c-0.551-0.322-1.145-0.549-1.747-0.739c-0.375-0.12-0.758-0.215-1.146-0.281c-0.326-0.055-0.65-0.118-0.982-0.116
			c-0.135,0-0.271-0.059-0.402-0.045c-0.557,0.057-1.119,0.08-1.65,0.288c-0.831,0.322-1.448,0.849-1.729,1.722
			c-0.071,0.227-0.096,0.455-0.096,0.689c0,0.324,0.006,0.643,0.123,0.952c0.189,0.493,0.48,0.903,0.908,1.226
			c0.514,0.387,1.084,0.654,1.675,0.9c0.903,0.379,1.831,0.691,2.733,1.066c0.703,0.295,1.384,0.643,2.018,1.067
			c0.291,0.195,0.551,0.44,0.816,0.671c0.523,0.448,0.924,0.991,1.205,1.621c0.191,0.432,0.338,0.874,0.408,1.346
			c0.062,0.418,0.114,0.83,0.11,1.252c-0.005,0.36-0.062,0.715-0.108,1.072c-0.082,0.61-0.285,1.18-0.56,1.719
			c-0.215,0.424-0.5,0.811-0.831,1.162c-0.562,0.596-1.216,1.063-1.958,1.407c-0.505,0.234-1.024,0.433-1.567,0.562
			c-0.44,0.106-0.89,0.178-1.336,0.252c-0.842,0.139-1.687,0.102-2.529,0.111c-0.109,0.002-0.219,0-0.328-0.005
			c-0.34-0.014-0.678-0.047-1.012-0.108c-0.172-0.031-0.348-0.037-0.521-0.06c-0.546-0.071-1.078-0.2-1.611-0.329
			c-0.721-0.175-1.412-0.43-2.1-0.697c-0.205-0.08-0.395-0.2-0.596-0.306c0.494-1.118,0.979-2.217,1.473-3.338
			c0.086,0.035,0.169,0.058,0.241,0.099c0.497,0.278,1.028,0.478,1.565,0.66c0.545,0.186,1.102,0.342,1.668,0.439
			c0.369,0.064,0.742,0.154,1.127,0.143c0.203-0.009,0.41,0.059,0.61,0.041c0.576-0.045,1.152-0.093,1.71-0.281
			c0.477-0.162,0.911-0.396,1.271-0.73c0.395-0.367,0.652-0.83,0.764-1.375c0.062-0.305,0.064-0.607,0.041-0.908
			c-0.039-0.502-0.238-0.953-0.564-1.339c-0.35-0.415-0.789-0.724-1.268-0.979c-0.648-0.344-1.336-0.59-2.015-0.857
			c-0.464-0.184-0.933-0.354-1.394-0.541c-0.32-0.129-0.646-0.258-0.947-0.422c-0.642-0.346-1.27-0.705-1.826-1.188
			c-0.406-0.349-0.75-0.74-1.043-1.181c-0.329-0.491-0.563-1.028-0.688-1.608c-0.06-0.274-0.099-0.552-0.132-0.83
			c-0.033-0.275-0.055-0.549-0.04-0.819c0.067-1.201,0.382-2.317,1.142-3.282c0.455-0.578,0.994-1.052,1.623-1.428
			c0.489-0.292,1.012-0.51,1.557-0.674c0.404-0.122,0.812-0.23,1.232-0.291c0.328-0.046,0.656-0.077,0.982-0.12
			c0.602-0.081,1.201-0.024,1.801-0.044c0.309,0.107,0.635,0.055,0.954,0.098c0.413,0.055,0.825,0.115,1.231,0.201
			c0.608,0.129,1.217,0.275,1.795,0.515c0.418,0.174,0.826,0.365,1.236,0.552C155.6,100.352,155.678,100.408,155.779,100.467z"/>
		<path fill="#0483C5" d="M70.616,99.364c1.38,0,2.757,0,4.134,0.001c0.076,0,0.164-0.028,0.22,0.104c0,7.105,0,14.247,0,21.403
			c-1.474,0-2.945,0-4.413,0c-0.008-0.007-0.018-0.015-0.023-0.021c-0.004-0.009-0.004-0.02-0.004-0.028c0-7.085,0-14.171,0-21.255
			c0-0.029-0.001-0.059,0-0.089c0-0.01,0.003-0.02,0.007-0.028c0.004-0.008,0.009-0.017,0.016-0.024
			c0.006-0.009,0.014-0.014,0.021-0.021C70.58,99.397,70.587,99.391,70.616,99.364z"/>
		<path fill="#0182C5" d="M72.756,90.529c0.812,0.01,1.48,0.324,2.011,0.92c0.258,0.291,0.427,0.639,0.516,1.023
			c0.149,0.646,0.047,1.25-0.298,1.815c-0.202,0.329-0.472,0.585-0.798,0.797c-0.54,0.349-1.132,0.466-1.753,0.398
			c-0.483-0.052-0.923-0.231-1.318-0.54c-0.408-0.318-0.675-0.711-0.836-1.193c-0.24-0.721-0.147-1.402,0.255-2.031
			c0.378-0.588,0.921-0.965,1.615-1.104C72.35,90.575,72.554,90.558,72.756,90.529z"/>
		<path fill="none" d="M173.471,107.732c-0.32,0.024-0.607,0.063-0.893,0.123c-0.209,0.043-0.428,0.043-0.639,0.069
			c-0.211,0.028-0.42,0.066-0.629,0.101c-0.162,0.024-0.324,0.053-0.488,0.072c-0.366,0.043-0.732,0.076-1.1,0.127
			c-0.363,0.049-0.724,0.118-1.087,0.17c-0.346,0.049-0.696,0.065-1.04,0.131c-0.361,0.066-0.728,0.086-1.088,0.16
			c-0.359,0.073-0.736,0.071-1.099,0.138c-0.343,0.062-0.691,0.069-1.028,0.163c-0.167,0.045-0.347,0.046-0.521,0.063
			c-0.125,0.015-0.246,0.002-0.373,0.052c-0.102,0.039-0.229,0.008-0.368,0.008c0.032-0.283-0.052-0.558,0.058-0.824
			c0.014-0.034,0.004-0.078,0.004-0.118c0-0.282,0.069-0.558,0.107-0.833c0.042-0.301,0.119-0.586,0.191-0.875
			c0.086-0.344,0.209-0.676,0.342-1.005c0.148-0.37,0.341-0.714,0.556-1.045c0.56-0.854,1.315-1.483,2.263-1.867
			c0.446-0.181,0.913-0.292,1.399-0.344c0.333-0.036,0.665-0.056,0.996-0.038c0.579,0.031,1.146,0.139,1.688,0.363
			c0.939,0.391,1.612,1.062,2.077,1.957c0.265,0.508,0.427,1.049,0.546,1.604c0.049,0.229,0.049,0.465,0.073,0.697
			c0.011,0.085,0.046,0.17,0.049,0.254C173.477,107.262,173.471,107.486,173.471,107.732z"/>
		<path fill="none" d="M105.314,117.307c0-4.72,0-9.416,0-14.127c0.246-0.129,0.502-0.23,0.769-0.311
			c0.285-0.084,0.573-0.155,0.862-0.227c0.131-0.031,0.266-0.057,0.397-0.069c0.253-0.026,0.507-0.044,0.759-0.065
			c0.164-0.016,0.334,0.027,0.492-0.051c0.04-0.02,0.102-0.014,0.147-0.002c0.229,0.062,0.469,0.023,0.698,0.062
			c0.35,0.058,0.703,0.123,1.037,0.237c0.666,0.228,1.26,0.582,1.781,1.065c0.877,0.812,1.371,1.846,1.727,2.953
			c0.132,0.408,0.173,0.849,0.254,1.273c0.197,1.035,0.127,2.08,0.103,3.121c-0.01,0.391-0.083,0.786-0.147,1.178
			c-0.098,0.603-0.254,1.186-0.461,1.754c-0.194,0.537-0.465,1.039-0.789,1.508c-0.562,0.819-1.312,1.41-2.219,1.793
			c-0.406,0.17-0.832,0.291-1.277,0.345c-0.396,0.046-0.79,0.108-1.189,0.104c-0.175-0.004-0.348-0.033-0.521-0.052
			c-0.172-0.019-0.35-0.028-0.521-0.047c-0.446-0.044-0.876-0.147-1.306-0.256C105.706,117.445,105.51,117.369,105.314,117.307z"/>
		<path fill="none" d="M62.492,109.977c0,0.381,0.029,0.652-0.007,0.914c-0.046,0.338-0.019,0.68-0.098,1.017
			c-0.04,0.166-0.036,0.346-0.062,0.52c-0.125,0.841-0.329,1.655-0.671,2.437c-0.33,0.755-0.792,1.408-1.415,1.945
			c-0.469,0.401-1.017,0.653-1.613,0.812c-0.588,0.155-1.19,0.157-1.783,0.104c-0.761-0.067-1.452-0.357-2.066-0.828
			c-0.57-0.436-0.988-0.985-1.329-1.61c-0.368-0.675-0.594-1.396-0.756-2.138c-0.098-0.441-0.164-0.895-0.205-1.35
			c-0.026-0.293-0.009-0.59-0.056-0.877c-0.069-0.422-0.039-0.844-0.04-1.264c0-0.362,0.022-0.727,0.059-1.086
			c0.044-0.434,0.098-0.865,0.179-1.293c0.101-0.527,0.243-1.047,0.436-1.551c0.345-0.901,0.822-1.725,1.579-2.345
			c0.496-0.405,1.062-0.683,1.7-0.825c0.556-0.127,1.11-0.127,1.666-0.099c0.372,0.021,0.74,0.115,1.09,0.255
			c0.472,0.188,0.898,0.444,1.279,0.788c0.611,0.552,1.029,1.224,1.347,1.972c0.193,0.452,0.335,0.92,0.449,1.396
			c0.067,0.28,0.096,0.571,0.146,0.854c0.071,0.403,0.085,0.813,0.133,1.219C62.5,109.328,62.465,109.709,62.492,109.977z"/>
		<path fill="none" d="M134.148,110.118c0,2.497,0,4.979,0,7.471c-0.234,0.163-0.525,0.194-0.803,0.263
			c-0.396,0.099-0.8,0.143-1.201,0.193c-0.625,0.077-1.246,0.114-1.875,0.109c-0.535-0.006-1.062-0.076-1.59-0.17
			c-0.519-0.092-1.007-0.248-1.472-0.484c-0.608-0.312-1.084-0.771-1.422-1.355c-0.166-0.287-0.252-0.619-0.317-0.951
			c-0.07-0.363-0.074-0.728-0.044-1.086c0.054-0.643,0.25-1.237,0.648-1.766c0.456-0.604,1.073-0.975,1.75-1.262
			c0.377-0.16,0.772-0.281,1.17-0.391c0.343-0.092,0.698-0.133,1.045-0.215c0.358-0.082,0.729-0.086,1.088-0.164
			c0.187-0.041,0.386-0.033,0.579-0.058c0.368-0.051,0.743-0.036,1.113-0.079c0.353-0.04,0.701-0.053,1.056-0.057
			C133.962,110.118,134.049,110.118,134.148,110.118z"/>
	</g>
</g>
</svg>
