<?xml version="1.0" encoding="utf-8"?>
<!-- Generator: Adobe Illustrator 16.0.0, SVG Export Plug-In . SVG Version: 6.00 Build 0)  -->
<!DOCTYPE svg PUBLIC "-//W3C//DTD SVG 1.1//EN" "http://www.w3.org/Graphics/SVG/1.1/DTD/svg11.dtd">
<svg version="1.1" id="Layer_1" xmlns="http://www.w3.org/2000/svg" xmlns:xlink="http://www.w3.org/1999/xlink" x="0px" y="0px"
	 width="179.017px" height="100.407px" viewBox="11.983 60.828 179.017 100.407"
	 enable-background="new 11.983 60.828 179.017 100.407" xml:space="preserve">
<path fill="#218185" d="M58.426,113.562c-15.389-6.055-29.638-11.662-46.443-18.276c15.483-6.05,28.348-11.186,41.291-16.105
	c13.098-4.979,26.629-8.991,39.312-14.855c9.729-4.499,17.712-4.797,27.739-0.085C143.423,75.105,167.288,84.344,191,94.305
	c0,22.38,0,44.347,0,66.929c-1.837,0-5.227,0-7.381,0c0.537-6.447,1.07-12.745,1.793-21.344c3.484-11.567,0.283-25.932,1.498-41.591
	c-13.506,4.988-25.564,9.441-38.541,14.232c1.656,2.293,2.972,3.768,3.887,5.461c7.107,13.194,3.493,20.817-11.189,24.015
	c-23.121,5.049-46.22,6.004-69.272-0.271c-3.444-0.941-6.79-2.307-10.083-3.721c-7.265-3.127-9.825-7.785-5.34-15.314
	C57.78,120.33,57.691,117.07,58.426,113.562z M144.91,110.118c-27.497-6.351-54.983-6.929-82.48-0.443
	c13.582-0.302,27.176-1.667,40.769-1.659C117.104,108.018,131.008,109.359,144.91,110.118z"/>
</svg>
