<?xml version="1.0" encoding="utf-8"?>
<!-- Generator: Adobe Illustrator 16.0.0, SVG Export Plug-In . SVG Version: 6.00 Build 0)  -->
<!DOCTYPE svg PUBLIC "-//W3C//DTD SVG 1.1//EN" "http://www.w3.org/Graphics/SVG/1.1/DTD/svg11.dtd">
<svg version="1.1" id="Layer_1" xmlns="http://www.w3.org/2000/svg" xmlns:xlink="http://www.w3.org/1999/xlink" x="0px" y="0px"
	 width="600px" height="600px" viewBox="0 0 600 600" enable-background="new 0 0 600 600" xml:space="preserve">
<circle fill="#218185" cx="286.5" cy="293.5" r="246.5"/>
<g>
	<path fill="#FCFCFC" d="M368.736,202.671l-13.261,112.356c-0.965,7.877-1.446,15.431-1.446,22.664
		c0,10.771,3.857,16.154,11.572,16.154c12.376,0,24.231-8.477,35.563-25.438c11.332-16.956,16.998-37.492,16.998-61.603
		c0-34.878-12.578-63.208-37.733-84.991c-25.157-21.779-55.658-32.67-91.5-32.67c-39.383,0-72.452,13.502-99.216,40.506
		c-26.763,27.004-40.145,60.277-40.145,99.819c0,36.973,12.575,69.077,37.733,96.322c25.154,27.245,60.477,40.868,105.967,40.868
		c35.36,0,71.447-9.482,108.258-28.451L415.753,431c-39.384,20.095-80.21,30.139-122.483,30.139
		c-56.099,0-100.662-16.915-133.694-50.754c-33.031-33.834-49.547-74.22-49.547-121.156c0-49.024,17.359-90.012,52.079-122.965
		c34.72-32.949,76.672-49.427,125.858-49.427c46.292,0,85.189,14.188,116.695,42.556c31.503,28.372,47.258,64.176,47.258,107.414
		c0,31.344-8.842,59.274-26.522,83.785c-17.684,24.514-39.221,36.769-64.616,36.769c-19.771,0-33.436-8.355-40.988-25.075
		c-13.826,17.359-30.704,26.04-50.633,26.04c-20.415,0-37.896-8.519-52.441-25.558c-14.549-17.036-21.82-39.459-21.82-67.27
		c0-28.608,8.198-51.875,24.594-69.8c16.396-17.921,35.925-26.884,58.589-26.884c21.858,0,37.612,6.913,47.257,20.735l1.929-16.877
		H368.736z M272.294,349.023c12.857,0,24.472-6.228,34.84-18.687c10.367-12.454,15.551-28.65,15.551-48.583
		c0-11.249-3.978-21.338-11.935-30.259s-17.722-13.381-29.294-13.381c-12.538,0-22.905,5.508-31.104,16.516
		c-8.197,11.012-12.296,25.279-12.296,42.796c0,14.949,3.172,27.287,9.523,37.011C253.928,344.163,262.167,349.023,272.294,349.023z
		"/>
</g>
</svg>
