<?xml version="1.0" encoding="utf-8"?>
<!-- Generator: Adobe Illustrator 16.0.0, SVG Export Plug-In . SVG Version: 6.00 Build 0)  -->
<!DOCTYPE svg PUBLIC "-//W3C//DTD SVG 1.1//EN" "http://www.w3.org/Graphics/SVG/1.1/DTD/svg11.dtd">
<svg version="1.1" id="Layer_1" xmlns="http://www.w3.org/2000/svg" xmlns:xlink="http://www.w3.org/1999/xlink" x="0px" y="0px"
	 width="200px" height="200px" viewBox="0 0 200 200" enable-background="new 0 0 200 200" xml:space="preserve">
<g id="YSi5Hq_2_">
	<g>
		<path fill="#208084" d="M179.576,91.464c0,3.138,0,6.283,0,9.428c-0.044,0.049-0.103,0.095-0.11,0.141
			c-0.021,0.154,0.016,0.328-0.03,0.475c-0.185,0.543-0.219,1.108-0.284,1.669c-0.04,0.349-0.026,0.718,0.07,1.098
			c0.136,0.501-0.097,1.019-0.192,1.527c-0.285,0.302-0.213,0.683-0.213,1.052c-0.01,0.306,0.084,0.646-0.03,0.901
			c-0.112,0.25-0.021,0.507-0.172,0.745c-0.124,0.204-0.054,0.519-0.135,0.755c-0.105,0.293-0.033,0.609-0.124,0.878
			c-0.056,0.192-0.056,0.37-0.084,0.551c-0.034,0.187-0.078,0.369-0.104,0.551c-0.048,0.297-0.029,0.604-0.126,0.882
			c-0.145,0.375-0.218,0.777-0.294,1.168c-0.15,0.759-0.349,1.511-0.621,2.242c-0.287,0.785-0.497,1.601-0.682,2.416
			c-0.108,0.477-0.21,0.959-0.347,1.432c-0.13,0.495-0.242,0.98-0.44,1.447c-0.309,0.737-0.519,1.513-0.791,2.27
			c-0.253,0.705-0.501,1.423-0.786,2.111c-0.324,0.804-0.701,1.585-1.018,2.389c-0.18,0.458-0.48,0.857-0.627,1.313
			c-0.124,0.405-0.303,0.786-0.473,1.164c-0.17,0.399-0.314,0.804-0.519,1.194c-0.327,0.599-0.653,1.208-0.979,1.81
			c-0.25,0.473-0.484,0.961-0.767,1.422c-0.162,0.272-0.305,0.553-0.459,0.831c-0.297,0.516-0.631,1.01-0.938,1.513
			c-0.244,0.399-0.457,0.826-0.707,1.219c-0.556,0.881-1.118,1.746-1.681,2.616c-0.634,0.974-1.312,1.915-2.036,2.833
			c-0.286,0.374-0.583,0.733-0.863,1.111c-0.341,0.461-0.717,0.888-1.056,1.341c-0.345,0.467-0.756,0.873-1.102,1.346
			c-0.401,0.539-0.85,1.052-1.271,1.577c-0.24,0.299-0.545,0.559-0.747,0.884c-0.177,0.26-0.391,0.454-0.592,0.675
			c-0.202,0.242-0.384,0.499-0.612,0.719c-1.335,1.282-2.555,2.679-3.973,3.879c-0.396,0.328-0.731,0.701-1.135,1.04
			c-0.5,0.414-1.001,0.827-1.48,1.27c-0.494,0.439-1.041,0.826-1.534,1.28c-0.2,0.194-0.411,0.387-0.641,0.531
			c-0.686,0.438-1.294,0.968-1.952,1.433c-0.574,0.402-1.139,0.817-1.727,1.204c-0.977,0.643-1.928,1.326-2.938,1.933
			c-0.439,0.263-0.85,0.563-1.273,0.84c-0.562,0.351-1.125,0.699-1.688,1.034c-0.49,0.292-0.986,0.581-1.49,0.851
			c-1.168,0.613-2.334,1.219-3.555,1.743c-0.764,0.331-1.494,0.747-2.246,1.116c-0.641,0.324-1.275,0.665-1.934,0.956
			c-0.641,0.284-1.291,0.538-1.949,0.787c-0.752,0.282-1.52,0.501-2.264,0.812c-0.49,0.208-1.016,0.34-1.496,0.562
			c-0.264,0.114-0.504,0.21-0.785,0.206c-0.051,0-0.092,0.068-0.141,0.103c-0.293,0-0.58,0-0.865,0
			c-0.035-0.034-0.062-0.103-0.098-0.103c-0.203-0.012-0.396-0.002-0.6-0.002c-0.283,0-0.58,0.049-0.857-0.018
			c-0.223-0.055-0.406-0.24-0.613-0.36c-0.279-0.163-0.541-0.347-0.797-0.562c-0.385-0.347-0.633-0.793-0.934-1.196
			c-0.24-0.312-0.225-0.324-0.225-0.767c0-8.164,0-16.33,0-24.498c0-0.16,0.061-0.354-0.008-0.469
			c-0.127-0.196-0.068-0.379-0.1-0.571c-0.033-0.198-0.064-0.4-0.109-0.599c-0.033-0.192-0.092-0.371-0.102-0.553
			c-0.02-0.351,0.041-0.701-0.109-1.034c0.07-0.515-0.094-0.997-0.225-1.48c-0.121-0.463-0.227-0.924-0.369-1.368
			c-0.244-0.707-0.537-1.398-0.82-2.1c-0.129-0.324-0.309-0.629-0.426-0.964c-0.236-0.629-0.533-1.236-0.9-1.785
			c-0.281-0.421-0.623-0.805-0.951-1.174c-0.275-0.318-0.584-0.593-0.854-0.861c0-0.318,0-0.605,0-0.892
			c0.197-0.084,0.402-0.238,0.586-0.12c0.162,0.099,0.307,0.076,0.447,0.076c0.41,0,0.807-0.034,1.215-0.076
			c0.545-0.068,1.09-0.206,1.639-0.271c0.191-0.016,0.422-0.02,0.598-0.098c0.469-0.192,0.969-0.163,1.449-0.299
			c0.201-0.064,0.434-0.006,0.664-0.108c0.189-0.076,0.453,0.044,0.648-0.122c0.547,0.016,1.023-0.23,1.482-0.463
			c0.348-0.181,0.682-0.316,1.076-0.297c0.072,0.009,0.18,0.024,0.209-0.01c0.166-0.227,0.434-0.01,0.639-0.164
			c0.166-0.122,0.426-0.099,0.641-0.15c0.352-0.08,0.703-0.132,1.027-0.259c0.645-0.246,1.297-0.446,1.941-0.69
			c0.824-0.314,1.654-0.638,2.447-1.014c1.057-0.512,2.111-1.028,3.135-1.604c0.789-0.444,1.592-0.859,2.383-1.302
			c0.678-0.375,1.309-0.829,1.881-1.33c0.67-0.589,1.293-1.234,1.947-1.844c0.986-0.911,1.941-1.858,2.805-2.898
			c0.295-0.351,0.555-0.735,0.824-1.122c0.455-0.673,0.92-1.338,1.357-2.033c0.396-0.627,0.789-1.259,1.121-1.918
			c0.357-0.683,0.65-1.397,0.945-2.102c0.156-0.38,0.33-0.772,0.465-1.159c0.244-0.697,0.498-1.389,0.732-2.086
			c0.323-0.918,0.527-1.873,0.788-2.816c0.124-0.461,0.138-0.939,0.232-1.419c0.05-0.26,0.044-0.528,0.116-0.763
			c0.149-0.479,0.147-0.976,0.298-1.449c0.095-0.292,0.049-0.627,0.131-0.917c0.136-0.511,0.22-1.026,0.21-1.541
			c-0.004-0.258,0.012-0.509-0.004-0.763c-0.056-0.729,0.054-1.453,0.122-2.176c0.022-0.227,0.052-0.469,0.141-0.699
			c0.198-0.556,0.236-1.145,0.264-1.728c0.051-1.132,0.017-2.273,0.017-3.408c0-0.364-0.181-0.721-0.108-1.094
			c-0.242-0.232,0.022-0.599-0.221-0.833c0.022-0.289-0.054-0.589-0.092-0.875c-0.038-0.413-0.026-0.837-0.118-1.254
			c-0.092-0.395-0.136-0.81-0.254-1.204c-0.197-0.579-0.245-1.184-0.396-1.775c-0.067-0.249-0.098-0.505-0.176-0.746
			c-0.299-0.871-0.543-1.755-0.905-2.6c-0.217-0.511-0.377-1.036-0.621-1.531c-0.453-0.906-0.896-1.809-1.43-2.667
			c-0.496-0.797-1.039-1.557-1.602-2.318c-0.258-0.339-0.559-0.665-0.791-1.02c-0.432-0.649-0.934-1.248-1.443-1.891
			c0.049-0.362,0.092-0.765,0.135-1.166c0.039-0.342,0.072-0.693,0.111-1.04c0.217-0.154,0.064-0.395,0.137-0.587
			c0.275-0.764,0.568-1.521,0.625-2.348c0.213-0.207,0.055-0.471,0.104-0.713c0.049-0.23,0.117-0.455,0.113-0.715
			c-0.018-1.841,0.004-3.678-0.018-5.527c0-0.507-0.057-1.018-0.096-1.524c-0.004-0.034,0-0.076-0.02-0.096
			c-0.156-0.126-0.059-0.3-0.084-0.449c-0.039-0.174-0.088-0.338-0.107-0.497c-0.047-0.291-0.02-0.613-0.123-0.879
			c-0.193-0.473-0.25-0.976-0.406-1.458c-0.119-0.358-0.166-0.745-0.305-1.12c-0.141-0.373-0.238-0.764-0.363-1.144
			c-0.186-0.575-0.334-1.164-0.578-1.713c-0.121-0.267-0.115-0.629-0.498-0.797c-0.453,0-0.955,0-1.461,0
			c-0.346,0-0.682,0.01-1.027-0.004c-0.355-0.02-0.688,0.182-1.041,0.108c-0.033-0.002-0.08-0.004-0.105,0
			c-0.4,0.218-0.871,0.126-1.275,0.329c-0.693,0.006-1.314,0.333-1.98,0.467c-0.564,0.116-1.127,0.314-1.682,0.511
			c-1.154,0.397-2.285,0.842-3.377,1.378c-0.848,0.413-1.686,0.826-2.508,1.286c-1.018,0.579-2.096,1.048-3.125,1.615
			c-0.74,0.407-1.449,0.857-2.154,1.318c-0.705,0.451-1.385,0.944-2.076,1.408c-0.086,0.05-0.211,0.106-0.303,0.083
			c-0.314-0.064-0.639-0.104-0.943-0.194c-0.826-0.241-1.682-0.371-2.508-0.607c-0.426-0.139-0.857-0.179-1.287-0.305
			c-0.473-0.156-0.977-0.276-1.479-0.329c-0.293-0.04-0.58-0.094-0.877-0.126c-0.293-0.028-0.592-0.062-0.873-0.084
			c-0.553-0.056-1.1-0.144-1.65-0.238c-0.389-0.068-0.758-0.168-1.125-0.289c-0.371-0.116-0.727-0.267-1.145-0.062
			c-0.205,0.102-0.52,0.068-0.74-0.01c-0.16-0.066-0.305-0.066-0.457-0.078c-0.473-0.044-0.941-0.076-1.418-0.106
			c-0.02-0.004-0.041,0-0.049-0.004c-0.219-0.201-0.496-0.026-0.713-0.125c-0.236-0.1-0.475-0.068-0.721-0.094
			c-0.418-0.038-0.852,0.116-1.256-0.098c-0.043-0.028-0.127-0.028-0.151,0c-0.148,0.168-0.34,0.092-0.505,0.098
			c-0.811,0.01-1.631,0.018-2.438,0c-0.799-0.012-1.595-0.012-2.398-0.078c-0.916-0.08-1.849,0.008-2.767,0.104
			c-0.365,0.036-0.727,0.068-1.096,0.09c-0.036,0-0.085-0.024-0.103,0c-0.179,0.199-0.407,0.066-0.612,0.103
			c-0.2,0.038-0.399,0.092-0.601,0.106c-0.563,0.044-1.125,0.076-1.685,0.116c-0.045,0-0.089-0.018-0.118,0
			c-0.251,0.19-0.542,0.074-0.817,0.102c-0.276,0.036-0.548,0.078-0.82,0.108c-0.33,0.036-0.698-0.004-0.977,0.132
			c-0.25,0.128-0.479,0.016-0.711,0.118c-0.233,0.092-0.486,0.148-0.737,0.18c-0.574,0.072-1.112,0.274-1.676,0.401
			c-0.363,0.086-0.726,0.172-1.086,0.25c-0.422,0.092-0.854,0.12-1.248,0.26c-0.391,0.132-0.794,0.162-1.189,0.278
			c-0.424,0.114-0.882,0.125-1.3,0.259c-0.256,0.086-0.421,0.098-0.601-0.106c-0.066-0.07-0.177-0.1-0.258-0.158
			c-0.576-0.387-1.133-0.815-1.736-1.166c-0.944-0.557-1.89-1.11-2.847-1.631c-0.895-0.489-1.835-0.901-2.723-1.41
			c-0.315-0.192-0.679-0.281-1.012-0.447c-0.469-0.219-0.921-0.473-1.381-0.708c-0.799-0.424-1.624-0.775-2.48-1.068
			c-0.41-0.146-0.833-0.27-1.253-0.382c-0.258-0.074-0.507-0.16-0.774-0.232c-0.431-0.126-0.888-0.203-1.31-0.361
			c-0.657-0.242-1.359-0.276-2.016-0.497c-0.289,0.07-0.539-0.125-0.825-0.11c-0.275,0.012-0.553-0.066-0.819-0.086
			c-0.805-0.052-1.613-0.016-2.451-0.016c-0.089,0.23-0.147,0.438-0.239,0.633c-0.446,0.928-0.694,1.916-1.034,2.873
			c-0.208,0.569-0.332,1.166-0.52,1.739c-0.133,0.413-0.235,0.84-0.348,1.267c-0.066,0.244-0.092,0.509-0.108,0.765
			c-0.023,0.274-0.052,0.555-0.096,0.825c-0.073,0.403-0.054,0.833-0.01,1.242c0.048,0.437-0.125,0.832-0.125,1.254
			c0.015,1.246,0.008,2.5,0.008,3.746c0,0.354,0,0.723,0,1.074c0.265,0.312-0.043,0.746,0.218,1.054
			c-0.018,0.431,0.113,0.849,0.213,1.268c0.138,0.553,0.25,1.114,0.433,1.661c0.15,0.455,0.258,0.932,0.224,1.426
			c-0.007,0.148,0,0.295,0.066,0.453c0.111,0.272,0.052,0.571-0.134,0.841c-0.627,0.883-1.295,1.739-1.954,2.604
			c-0.277,0.363-0.539,0.753-0.817,1.114c-0.405,0.515-0.677,1.104-1.046,1.641c-0.259,0.375-0.475,0.815-0.652,1.242
			c-0.257,0.615-0.608,1.182-0.823,1.827c-0.139,0.423-0.352,0.824-0.488,1.256c-0.314,0.97-0.693,1.925-0.897,2.937
			c-0.077,0.413-0.237,0.805-0.301,1.228c-0.07,0.443-0.187,0.868-0.237,1.318c-0.033,0.286-0.029,0.599-0.105,0.863
			c-0.055,0.2-0.071,0.375-0.094,0.561c-0.026,0.184-0.083,0.365-0.102,0.555c-0.043,0.379,0.002,0.792-0.133,1.14
			c-0.166,0.417,0.046,0.877-0.2,1.268c-0.023,0.563,0.024,1.128-0.085,1.693c-0.085,0.437-0.034,0.901-0.016,1.35
			c0.016,0.443,0.016,0.892,0.125,1.307c0.065,0.284,0,0.587,0.111,0.817c0.108,0.236,0.011,0.465,0.096,0.661
			c0.103,0.246,0.089,0.479,0.103,0.723c0.007,0.247-0.075,0.476-0.103,0.716c-0.074,0.627,0.02,1.248,0.209,1.854
			c0.123,0.4,0.22,0.803,0.215,1.216c-0.003,0.269,0.012,0.543-0.003,0.813c-0.023,0.32,0.181,0.603,0.116,0.93
			c-0.015,0.107,0.051,0.224,0.107,0.334c0.123,0.249,0.138,0.515,0.219,0.775c0.101,0.377,0.174,0.758,0.256,1.144
			c0.103,0.512,0.253,1.008,0.382,1.513c0.094,0.361,0.129,0.741,0.27,1.086c0.232,0.573,0.396,1.172,0.583,1.759
			c0.385,1.24,0.987,2.37,1.481,3.559c0.212,0.517,0.54,0.968,0.791,1.458c0.282,0.545,0.593,1.061,0.926,1.571
			c0.359,0.539,0.691,1.096,1.083,1.614c0.454,0.607,0.866,1.263,1.449,1.777c0.224,0.21,0.436,0.437,0.645,0.655
			c0.162,0.16,0.317,0.32,0.435,0.524c0.094,0.16,0.167,0.335,0.273,0.485c0.147,0.204,0.391,0.336,0.588,0.503
			c0.424,0.347,0.817,0.713,1.258,1.027c0.583,0.421,1.092,0.92,1.664,1.343c0.384,0.292,0.771,0.581,1.16,0.855
			c0.515,0.391,1.086,0.687,1.646,1.007c0.582,0.341,1.173,0.653,1.765,0.97c0.6,0.327,1.232,0.598,1.858,0.888
			c0.285,0.133,0.566,0.303,0.862,0.383c0.776,0.221,1.5,0.587,2.27,0.808c0.561,0.166,1.1,0.41,1.663,0.568
			c0.581,0.159,1.151,0.363,1.746,0.499c0.269,0.053,0.54,0.177,0.82,0.238c0.279,0.062,0.568,0.118,0.838,0.207
			c0.277,0.086,0.574,0.104,0.833,0.202c0.74,0.274,1.538,0.274,2.271,0.522c0.5-0.036,0.977,0.194,1.477,0.103
			c0.209-0.038,0.402,0.044,0.533,0.154c0.271,0.246,0.576,0.288,0.913,0.288c0.739,0,1.48,0,2.11,0
			c0.266,0.257,0.468,0.465,0.698,0.693c-1.259,1.417-2.371,2.983-3.157,4.765c-0.779,1.776-1.276,3.628-1.553,5.619
			c-0.308,0.183-0.66,0.427-1.036,0.621c-0.565,0.288-1.183,0.467-1.788,0.651c-0.387,0.112-0.771,0.269-1.17,0.322
			c-0.59,0.07-1.147,0.284-1.729,0.398c-0.486,0.093-0.959,0.269-1.468,0.261c-0.436-0.012-0.866,0.008-1.298-0.004
			c-0.424-0.019-0.838-0.078-1.254-0.112c-0.886-0.052-1.78,0.088-2.667-0.088c-0.373-0.072-0.737-0.16-1.107-0.221
			c-0.671-0.108-1.308-0.33-1.918-0.601c-0.729-0.337-1.437-0.714-2.144-1.12c-0.882-0.503-1.701-1.092-2.46-1.757
			c-0.769-0.672-1.456-1.437-2.093-2.256c-0.543-0.71-0.932-1.507-1.44-2.229c-0.288-0.416-0.547-0.855-0.848-1.282
			c-0.293-0.404-0.628-0.789-0.941-1.18c-0.401-0.511-0.877-0.947-1.285-1.467c-0.307-0.384-0.719-0.681-1.084-1.016
			c-0.598-0.543-1.181-1.09-1.871-1.515c-0.441-0.278-0.882-0.561-1.348-0.801c-0.426-0.225-0.879-0.405-1.33-0.573
			c-0.392-0.148-0.797-0.259-1.208-0.36c-0.363-0.097-0.727-0.169-1.098-0.249c-0.381-0.071-0.756-0.194-1.156-0.194
			c-0.093,0-0.189,0.017-0.268-0.016c-0.659-0.248-1.323-0.056-1.958,0.072c-0.595,0.118-1.193,0.318-1.765,0.551
			c0,0.328,0.011,0.653-0.004,0.981c-0.015,0.303,0.106,0.533,0.317,0.741c0.742,0.733,1.48,1.475,2.315,2.114
			c0.762,0.579,1.562,1.107,2.363,1.624c0.585,0.371,1.116,0.8,1.569,1.318c0.366,0.433,0.686,0.901,1.04,1.351
			c0.312,0.393,0.685,0.757,0.945,1.182c0.365,0.611,0.812,1.164,1.176,1.785c0.324,0.555,0.672,1.096,0.973,1.661
			c0.406,0.787,0.771,1.591,1.105,2.412c0.114,0.297,0.224,0.591,0.343,0.886c0.127,0.311,0.236,0.639,0.407,0.917
			c0.411,0.697,0.774,1.423,1.278,2.076c0.414,0.538,0.805,1.098,1.279,1.574c0.628,0.629,1.246,1.258,1.973,1.775
			c0.614,0.433,1.22,0.867,1.886,1.214c0.575,0.312,1.157,0.609,1.751,0.88c0.609,0.272,1.244,0.486,1.881,0.679
			c0.871,0.261,1.752,0.515,2.646,0.669c0.153,0.03,0.303,0.086,0.447,0.106c0.327,0.04,0.676,0.018,0.976,0.128
			c0.269,0.101,0.519,0.062,0.776,0.091c0.259,0.031,0.513,0.1,0.765,0.102c1.049,0.006,2.103,0.026,3.145,0
			c1.05-0.026,2.104,0.093,3.157-0.086c0.354-0.062,0.707-0.106,1.046-0.234c0.108-0.036,0.222-0.08,0.335-0.099
			c0.141-0.021,0.288-0.008,0.431-0.008c0.089,0,0.179,0,0.273,0c0.523,0.015,1.029,0,1.503-0.309
			c0.155-0.105,0.421-0.168,0.584-0.105c0.215,0.086,0.44,0.062,0.657,0.104c0,0.209,0,0.391,0,0.571c0,5.148,0,10.289,0,15.44
			c0,0.09-0.004,0.18,0,0.271c0.014,0.222-0.066,0.404-0.217,0.559c-0.124,0.13-0.221,0.267-0.321,0.406
			c-0.267,0.347-0.529,0.688-0.794,1.026c-0.111,0.134-0.22,0.248-0.441,0.261c-0.111,0.016-0.25,0.071-0.385,0.098
			c-0.15,0.016-0.305,0.05-0.444,0.103c-0.325,0.132-0.647,0.22-0.997,0.22c-0.029,0-0.06,0.068-0.088,0.103
			c-0.25,0-0.502,0-0.756,0c-0.019-0.183-0.164-0.104-0.249-0.103c-0.369,0.013-0.716-0.06-1.068-0.178
			c-0.698-0.232-1.367-0.535-2.092-0.72c-0.669-0.166-1.34-0.414-1.953-0.749c-0.516-0.276-1.048-0.537-1.594-0.735
			c-0.776-0.271-1.531-0.589-2.26-0.951c-1.507-0.737-3.032-1.431-4.477-2.284c-0.473-0.274-0.979-0.503-1.471-0.768
			c-0.836-0.456-1.68-0.915-2.496-1.42c-0.576-0.356-1.168-0.674-1.737-1.038c-0.77-0.491-1.543-0.995-2.286-1.53
			c-0.769-0.558-1.535-1.104-2.315-1.625c-1.024-0.682-1.992-1.421-2.92-2.214c-0.469-0.393-0.944-0.787-1.412-1.186
			c-0.585-0.503-1.168-1.017-1.745-1.535c-0.654-0.581-1.27-1.202-1.91-1.799c-0.957-0.892-1.87-1.821-2.734-2.812
			c-0.438-0.516-0.952-0.95-1.389-1.477c-0.524-0.638-1.104-1.24-1.637-1.876c-0.493-0.587-0.984-1.178-1.456-1.784
			c-0.582-0.75-1.141-1.511-1.731-2.258c-0.652-0.822-1.25-1.689-1.84-2.551c-0.659-0.958-1.297-1.947-1.92-2.937
			c-0.708-1.114-1.333-2.269-2.011-3.395c-0.325-0.551-0.581-1.134-0.886-1.69c-0.744-1.398-1.438-2.835-2.098-4.283
			c-0.121-0.274-0.275-0.543-0.363-0.817c-0.144-0.463-0.33-0.92-0.534-1.353c-0.348-0.764-0.635-1.536-0.964-2.31
			c-0.408-0.946-0.771-1.924-1.092-2.909c-0.305-0.924-0.571-1.863-0.792-2.812c-0.089-0.375-0.177-0.75-0.305-1.118
			c-0.135-0.379-0.235-0.777-0.325-1.166c-0.143-0.629-0.334-1.24-0.483-1.867c-0.137-0.567-0.272-1.148-0.38-1.728
			c-0.077-0.418-0.206-0.863-0.128-1.306c0.019-0.128-0.045-0.227-0.093-0.339c-0.148-0.326-0.278-0.671-0.235-1.044
			c0.064-0.511-0.066-0.997-0.215-1.484c-0.039-0.124-0.107-0.234-0.112-0.383c-0.015-0.477-0.065-0.947-0.097-1.42
			c-0.007-0.03,0-0.076-0.014-0.106c-0.157-0.316-0.167-0.661-0.226-0.993c-0.061-0.347-0.087-0.689-0.087-1.042
			c0-0.204-0.02-0.398,0-0.593c0.061-0.447-0.065-0.884-0.135-1.312c-0.027-0.198-0.008-0.445-0.105-0.593
			c-0.138-0.215-0.05-0.413-0.084-0.617c-0.039-0.219-0.123-0.421-0.123-0.657c0.02-1.377,0.016-2.747,0.004-4.123
			c0-0.09,0.114-0.259-0.101-0.299c0-1.667,0-3.321,0-4.984c0.148-0.004,0.101-0.12,0.105-0.192
			c0.008-0.294-0.011-0.583,0.008-0.877c0.02-0.282,0.02-0.593,0.118-0.865c0.089-0.243,0.034-0.493,0.11-0.713
			c0.076-0.238,0.092-0.477,0.092-0.717c0-0.254,0-0.509,0-0.761c0-0.014,0-0.036,0-0.052c-0.058-0.539,0.079-1.023,0.324-1.494
			c0.027-0.044,0.091-0.132,0.07-0.152c-0.147-0.232-0.046-0.483-0.065-0.733c-0.013-0.222-0.04-0.479,0.05-0.681
			c0.103-0.225-0.004-0.475,0.146-0.699c0.119-0.176,0.049-0.485,0.134-0.697c0.096-0.222,0.044-0.458,0.112-0.659
			c0.155-0.513,0.162-1.045,0.288-1.555c0.109-0.426,0.14-0.893,0.26-1.308c0.305-1.066,0.529-2.162,0.833-3.228
			c0.132-0.469,0.228-0.954,0.347-1.428c0.129-0.489,0.168-1.004,0.421-1.451c0.051-0.785,0.393-1.504,0.578-2.262
			c0.145-0.625,0.411-1.234,0.614-1.855c0.209-0.615,0.479-1.204,0.733-1.809c0.352-0.828,0.698-1.657,1.07-2.482
			c0.454-0.961,0.911-1.933,1.354-2.909c0.408-0.914,0.848-1.815,1.289-2.713c0.393-0.777,0.744-1.584,1.211-2.312
			c0.463-0.733,0.895-1.48,1.373-2.198c0.506-0.759,0.966-1.553,1.475-2.312c0.315-0.467,0.645-0.927,0.926-1.41
			c0.521-0.901,1.14-1.737,1.761-2.577c0.36-0.479,0.724-0.963,1.107-1.432c0.614-0.717,1.212-1.442,1.774-2.19
			c0.447-0.601,0.953-1.156,1.417-1.745c0.426-0.531,0.899-1.03,1.335-1.559c0.355-0.42,0.742-0.817,1.123-1.206
			c0.863-0.911,1.795-1.749,2.698-2.624c0.027-0.024,0.046-0.062,0.076-0.068c0.31-0.096,0.453-0.391,0.684-0.581
			c0.228-0.19,0.46-0.376,0.683-0.577c0.268-0.229,0.524-0.473,0.79-0.702c0.573-0.513,1.164-1.018,1.753-1.519
			c0.29-0.236,0.556-0.489,0.844-0.723c0.62-0.491,1.25-0.992,1.89-1.455c0.355-0.266,0.703-0.539,1.082-0.779
			c0.609-0.378,1.182-0.809,1.776-1.216c0.56-0.389,1.104-0.808,1.692-1.144c0.698-0.385,1.341-0.854,2.018-1.27
			c0.436-0.274,0.863-0.541,1.297-0.801c0.578-0.353,1.164-0.681,1.735-1.038c0.58-0.373,1.178-0.727,1.792-1.042
			c0.374-0.185,0.747-0.373,1.12-0.575c1.04-0.539,2.082-1.072,3.163-1.519c0.69-0.28,1.388-0.563,2.084-0.833
			c0.81-0.318,1.614-0.651,2.417-0.988c0.943-0.386,1.874-0.777,2.841-1.104c0.86-0.294,1.713-0.587,2.589-0.804
			c0.777-0.188,1.517-0.449,2.279-0.653c0.834-0.23,1.658-0.523,2.538-0.549c0.094-0.01,0.188-0.08,0.271-0.132
			c0.196-0.138,0.681-0.303,0.906-0.303c0.253,0,0.506-0.004,0.757,0c0.214,0.006,0.419,0.022,0.577-0.188
			c0.058-0.09,0.202-0.118,0.316-0.13c0.626-0.1,1.249-0.192,1.873-0.318c0.435-0.084,0.859-0.208,1.303-0.267
			c0.352-0.036,0.694-0.178,1.065-0.178c0.132-0.01,0.263-0.022,0.405-0.054c0.262-0.066,0.555-0.044,0.829-0.004
			c0.135,0.024,0.229,0.036,0.374-0.018c0.468-0.176,0.949-0.294,1.473-0.258c0.483,0.038,0.976,0.028,1.461,0
			c0.305-0.012,0.615-0.058,0.911-0.145c0.533-0.142,1.073-0.254,1.62-0.28c0.328-0.012,0.65,0,0.971-0.01
			c0.052,0,0.094-0.068,0.146-0.1c2.991,0,5.994,0,8.988,0c0.049,0.032,0.096,0.098,0.141,0.1c0.145,0.018,0.318-0.042,0.434,0.018
			c0.449,0.26,0.982,0.212,1.449,0.421c0.072,0.034,0.201,0.034,0.266-0.004c0.213-0.145,0.441-0.074,0.66-0.104
			c0.221-0.024,0.441-0.09,0.662-0.1c0.148-0.004,0.305,0.112,0.443,0.1c0.318-0.04,0.57,0.125,0.807,0.281
			c0.156,0.104,0.289,0.168,0.475,0.158c0.508,0,1.018-0.026,1.518,0.01c0.48,0.032,0.953,0.122,1.426,0.208
			c0.219,0.044,0.424,0.116,0.629,0.184c0.383,0.121,0.777,0.208,1.16,0.337c0.338,0.118,0.725,0.09,1.086,0.13
			c0.258,0.026,0.514,0.066,0.768,0.106c0.064,0.014,0.115,0.09,0.174,0.102c0.33,0.082,0.658,0.187,0.996,0.207
			c0.396,0.028,0.787,0.206,1.201,0.12c0.186,0.222,0.457,0.078,0.693,0.172c0.469,0.2,0.98,0.32,1.471,0.48
			c0.557,0.187,1.117,0.371,1.672,0.535c0.625,0.194,1.268,0.358,1.889,0.545c0.418,0.13,0.816,0.309,1.229,0.437
			c1.252,0.371,2.469,0.848,3.674,1.353c0.381,0.154,0.766,0.347,1.146,0.469c0.723,0.236,1.393,0.575,2.1,0.843
			c0.82,0.311,1.617,0.709,2.416,1.096c1.127,0.555,2.271,1.072,3.354,1.723c0.484,0.292,1,0.551,1.486,0.848
			c0.684,0.409,1.348,0.839,2.027,1.252c0.414,0.263,0.859,0.465,1.268,0.743c1.191,0.792,2.389,1.577,3.535,2.446
			c0.592,0.437,1.203,0.837,1.811,1.262c0.346,0.245,0.715,0.461,1.044,0.733c0.522,0.415,1.018,0.865,1.521,1.298
			c0.254,0.214,0.499,0.461,0.765,0.646c0.396,0.268,0.748,0.577,1.095,0.889c0.347,0.301,0.671,0.633,1.035,0.91
			c0.567,0.455,1.126,0.899,1.633,1.426c1.024,1.08,2.158,2.052,3.104,3.208c0.347,0.427,0.764,0.797,1.102,1.232
			c0.225,0.291,0.509,0.531,0.726,0.829c0.431,0.601,0.955,1.11,1.391,1.699c0.378,0.505,0.847,0.938,1.216,1.454
			c0.427,0.597,0.949,1.14,1.353,1.761c0.204,0.318,0.488,0.589,0.677,0.917c0.188,0.323,0.411,0.623,0.633,0.917
			c0.876,1.208,1.649,2.479,2.543,3.676c0.761,1.026,1.424,2.13,2.005,3.278c0.678,1.332,1.353,2.656,2.052,3.977
			c0.467,0.879,0.899,1.791,1.302,2.708c0.08,0.201,0.267,0.375,0.303,0.573c0.062,0.351,0.28,0.611,0.403,0.923
			c0.128,0.325,0.22,0.673,0.378,0.982c0.249,0.475,0.447,0.972,0.623,1.475c0.311,0.885,0.676,1.743,0.954,2.64
			c0.122,0.387,0.225,0.773,0.374,1.144c0.148,0.389,0.215,0.81,0.432,1.182c0.062,0.783,0.492,1.479,0.53,2.262
			c0.286,0.501,0.301,1.07,0.438,1.615c0.135,0.509,0.243,1.022,0.359,1.533c0.107,0.505,0.264,1.012,0.387,1.517
			c0.124,0.523,0.276,1.046,0.36,1.586c0.08,0.535,0.212,1.05,0.198,1.593c-0.008,0.11,0.006,0.221,0,0.325
			c-0.03,0.222,0.05,0.415,0.179,0.575c0.188,0.226,0.256,0.477,0.256,0.769c-0.008,0.487-0.008,0.97,0,1.458
			c0,0.108-0.021,0.229,0.012,0.314c0.181,0.391,0.213,0.804,0.201,1.214c-0.013,0.639,0.188,1.268,0.109,1.913
			c-0.01,0.032-0.018,0.082,0,0.104c0.253,0.489,0.165,1.042,0.317,1.557c0.06,0.227,0.002,0.499,0.01,0.747
			C179.466,91.372,179.532,91.42,179.576,91.464z"/>
		<path fill-rule="evenodd" clip-rule="evenodd" fill="none" d="M74.235,172.736c0.028-0.034,0.059-0.103,0.088-0.103
			c0.35,0,0.672-0.088,0.997-0.22c0.139-0.053,0.293-0.087,0.444-0.103c0.134-0.026,0.273-0.082,0.385-0.098
			c0.221-0.013,0.331-0.127,0.441-0.261c0.266-0.339,0.528-0.68,0.794-1.026c0.1-0.14,0.197-0.276,0.321-0.406
			c0.151-0.154,0.231-0.337,0.217-0.559c-0.004-0.091,0-0.181,0-0.271c0-5.151,0-10.292,0-15.44c0-0.181,0-0.362,0-0.571
			c-0.217-0.042-0.442-0.018-0.657-0.104c-0.163-0.062-0.429,0-0.584,0.105c-0.475,0.309-0.98,0.323-1.503,0.309
			c-0.094,0-0.185,0-0.273,0c-0.143,0-0.29-0.014-0.431,0.008c-0.113,0.019-0.227,0.062-0.335,0.099
			c-0.339,0.128-0.692,0.172-1.046,0.234c-1.052,0.179-2.107,0.06-3.157,0.086c-1.042,0.026-2.096,0.006-3.145,0
			c-0.251-0.002-0.506-0.07-0.765-0.102c-0.257-0.028-0.508,0.01-0.776-0.091c-0.299-0.11-0.649-0.088-0.976-0.128
			c-0.144-0.021-0.293-0.076-0.447-0.106c-0.895-0.154-1.776-0.408-2.646-0.669c-0.637-0.192-1.272-0.406-1.881-0.679
			c-0.594-0.271-1.176-0.567-1.751-0.88c-0.667-0.347-1.272-0.781-1.886-1.214c-0.727-0.518-1.345-1.146-1.973-1.775
			c-0.475-0.477-0.865-1.036-1.279-1.574c-0.503-0.653-0.867-1.379-1.278-2.076c-0.17-0.278-0.28-0.606-0.407-0.917
			c-0.119-0.295-0.229-0.589-0.343-0.886c-0.333-0.821-0.699-1.625-1.105-2.412c-0.3-0.565-0.649-1.106-0.973-1.661
			c-0.363-0.621-0.811-1.174-1.176-1.785c-0.26-0.425-0.633-0.789-0.945-1.182c-0.354-0.449-0.674-0.918-1.04-1.351
			c-0.453-0.519-0.984-0.947-1.569-1.318c-0.8-0.517-1.601-1.045-2.363-1.624c-0.834-0.64-1.573-1.381-2.315-2.114
			c-0.211-0.208-0.333-0.438-0.317-0.741c0.015-0.328,0.004-0.653,0.004-0.981c0.572-0.232,1.17-0.433,1.765-0.551
			c0.635-0.128,1.299-0.32,1.958-0.072c0.078,0.032,0.174,0.016,0.268,0.016c0.399,0,0.774,0.123,1.156,0.194
			c0.372,0.08,0.735,0.152,1.098,0.249c0.411,0.102,0.816,0.212,1.208,0.36c0.451,0.168,0.904,0.349,1.33,0.573
			c0.466,0.24,0.907,0.522,1.348,0.801c0.689,0.425,1.272,0.972,1.871,1.515c0.365,0.335,0.777,0.632,1.084,1.016
			c0.408,0.52,0.884,0.956,1.285,1.467c0.313,0.391,0.647,0.775,0.941,1.18c0.301,0.427,0.56,0.866,0.848,1.282
			c0.508,0.722,0.897,1.519,1.44,2.229c0.637,0.819,1.324,1.584,2.093,2.256c0.759,0.665,1.579,1.254,2.46,1.757
			c0.707,0.406,1.415,0.783,2.144,1.12c0.61,0.271,1.247,0.492,1.918,0.601c0.37,0.061,0.734,0.148,1.107,0.221
			c0.887,0.176,1.78,0.036,2.667,0.088c0.416,0.034,0.831,0.094,1.254,0.112c0.432,0.012,0.862-0.008,1.298,0.004
			c0.508,0.008,0.982-0.168,1.468-0.261c0.582-0.114,1.139-0.328,1.729-0.398c0.399-0.054,0.783-0.21,1.17-0.322
			c0.605-0.185,1.223-0.363,1.788-0.651c0.375-0.194,0.728-0.438,1.036-0.621c0.276-1.991,0.773-3.843,1.553-5.619
			c0.786-1.781,1.898-3.348,3.157-4.765c-0.23-0.229-0.433-0.437-0.698-0.693c-0.63,0-1.371,0-2.11,0
			c-0.336,0-0.641-0.042-0.913-0.288c-0.13-0.11-0.324-0.192-0.533-0.154c-0.5,0.092-0.976-0.139-1.477-0.103
			c-0.733-0.248-1.531-0.248-2.271-0.522c-0.258-0.099-0.555-0.116-0.833-0.202c-0.271-0.089-0.559-0.145-0.838-0.207
			c-0.28-0.062-0.552-0.186-0.82-0.238c-0.595-0.136-1.165-0.34-1.746-0.499c-0.563-0.158-1.102-0.402-1.663-0.568
			c-0.771-0.221-1.494-0.587-2.27-0.808c-0.296-0.08-0.577-0.25-0.862-0.383c-0.626-0.29-1.258-0.561-1.858-0.888
			c-0.592-0.316-1.183-0.629-1.765-0.97c-0.56-0.32-1.131-0.616-1.646-1.007c-0.39-0.274-0.776-0.563-1.16-0.855
			c-0.572-0.423-1.081-0.922-1.664-1.343c-0.441-0.314-0.834-0.681-1.258-1.027c-0.197-0.167-0.441-0.299-0.588-0.503
			c-0.106-0.15-0.18-0.325-0.273-0.485c-0.118-0.204-0.273-0.364-0.435-0.524c-0.209-0.219-0.421-0.445-0.645-0.655
			c-0.583-0.515-0.996-1.17-1.449-1.777c-0.392-0.519-0.724-1.075-1.083-1.614c-0.333-0.511-0.644-1.026-0.926-1.571
			c-0.251-0.49-0.579-0.941-0.791-1.458c-0.494-1.188-1.096-2.318-1.481-3.559c-0.187-0.587-0.351-1.186-0.583-1.759
			c-0.141-0.345-0.175-0.725-0.27-1.086c-0.128-0.505-0.279-1.001-0.382-1.513c-0.082-0.386-0.155-0.767-0.256-1.144
			c-0.081-0.261-0.096-0.526-0.219-0.775c-0.056-0.11-0.123-0.227-0.107-0.334c0.065-0.327-0.139-0.609-0.116-0.93
			c0.015-0.271,0-0.545,0.003-0.813c0.004-0.413-0.093-0.815-0.215-1.216c-0.189-0.605-0.283-1.227-0.209-1.854
			c0.027-0.24,0.109-0.469,0.103-0.716c-0.013-0.244,0-0.477-0.103-0.723c-0.085-0.196,0.012-0.425-0.096-0.661
			c-0.111-0.23-0.046-0.533-0.111-0.817c-0.109-0.415-0.109-0.863-0.125-1.307c-0.018-0.448-0.069-0.913,0.016-1.35
			c0.109-0.565,0.062-1.13,0.085-1.693c0.246-0.391,0.035-0.852,0.2-1.268c0.135-0.349,0.09-0.761,0.133-1.14
			c0.019-0.19,0.076-0.371,0.102-0.555c0.023-0.187,0.039-0.361,0.094-0.561c0.076-0.265,0.072-0.577,0.105-0.863
			c0.05-0.451,0.167-0.875,0.237-1.318c0.063-0.423,0.224-0.815,0.301-1.228c0.204-1.012,0.583-1.967,0.897-2.937
			c0.136-0.433,0.349-0.833,0.488-1.256c0.215-0.645,0.566-1.212,0.823-1.827c0.178-0.427,0.393-0.867,0.652-1.242
			c0.369-0.537,0.641-1.125,1.046-1.641c0.278-0.36,0.541-0.751,0.817-1.114c0.659-0.866,1.327-1.721,1.954-2.604
			c0.187-0.271,0.246-0.569,0.134-0.841c-0.066-0.158-0.073-0.305-0.066-0.453c0.035-0.495-0.073-0.971-0.224-1.426
			c-0.182-0.547-0.294-1.108-0.433-1.661c-0.1-0.419-0.231-0.837-0.213-1.268c-0.261-0.309,0.047-0.742-0.218-1.054
			c0-0.351,0-0.719,0-1.074c0-1.246,0.007-2.5-0.008-3.746c0-0.423,0.173-0.817,0.125-1.254c-0.044-0.409-0.063-0.839,0.01-1.242
			c0.044-0.271,0.073-0.551,0.096-0.825c0.016-0.256,0.042-0.521,0.108-0.765c0.112-0.427,0.214-0.854,0.348-1.267
			c0.188-0.573,0.312-1.17,0.52-1.739c0.34-0.958,0.588-1.945,1.034-2.873c0.092-0.194,0.15-0.402,0.239-0.633
			c0.838,0,1.646-0.036,2.451,0.016c0.267,0.02,0.544,0.098,0.819,0.086c0.287-0.014,0.536,0.18,0.825,0.11
			c0.656,0.22,1.358,0.254,2.016,0.497c0.422,0.158,0.879,0.234,1.31,0.361c0.268,0.072,0.516,0.158,0.774,0.232
			c0.42,0.112,0.844,0.236,1.253,0.382c0.856,0.292,1.681,0.644,2.48,1.068c0.46,0.234,0.913,0.489,1.381,0.708
			c0.333,0.166,0.696,0.254,1.012,0.447c0.888,0.509,1.828,0.921,2.723,1.41c0.957,0.521,1.902,1.074,2.847,1.631
			c0.603,0.351,1.16,0.779,1.736,1.166c0.081,0.058,0.192,0.088,0.258,0.158c0.18,0.205,0.345,0.192,0.601,0.106
			c0.418-0.134,0.876-0.145,1.3-0.259c0.395-0.116,0.798-0.146,1.189-0.278c0.395-0.14,0.826-0.168,1.248-0.26
			c0.36-0.078,0.723-0.165,1.086-0.25c0.564-0.126,1.102-0.329,1.676-0.401c0.251-0.032,0.504-0.088,0.737-0.18
			c0.232-0.102,0.461,0.01,0.711-0.118c0.279-0.136,0.647-0.096,0.977-0.132c0.272-0.03,0.544-0.072,0.82-0.108
			c0.275-0.028,0.566,0.088,0.817-0.102c0.029-0.018,0.073,0,0.118,0c0.559-0.04,1.122-0.072,1.685-0.116
			c0.202-0.014,0.401-0.068,0.601-0.106c0.206-0.036,0.433,0.096,0.612-0.103c0.018-0.024,0.067,0,0.103,0
			c0.369-0.022,0.73-0.054,1.096-0.09c0.918-0.096,1.852-0.185,2.767-0.104c0.803,0.066,1.599,0.066,2.398,0.078
			c0.807,0.018,1.627,0.01,2.438,0c0.165-0.006,0.357,0.07,0.505-0.098c0.024-0.028,0.108-0.028,0.151,0
			c0.404,0.214,0.838,0.06,1.256,0.098c0.246,0.026,0.484-0.006,0.721,0.094c0.217,0.098,0.494-0.076,0.713,0.125
			c0.008,0.004,0.029,0,0.049,0.004c0.477,0.03,0.945,0.062,1.418,0.106c0.152,0.012,0.297,0.012,0.457,0.078
			c0.221,0.078,0.535,0.112,0.74,0.01c0.418-0.205,0.773-0.054,1.145,0.062c0.367,0.12,0.736,0.22,1.125,0.289
			c0.551,0.094,1.098,0.182,1.65,0.238c0.281,0.022,0.58,0.056,0.873,0.084c0.297,0.032,0.584,0.086,0.877,0.126
			c0.502,0.052,1.006,0.172,1.479,0.329c0.43,0.126,0.861,0.166,1.287,0.305c0.826,0.236,1.682,0.366,2.508,0.607
			c0.305,0.09,0.629,0.13,0.943,0.194c0.092,0.024,0.217-0.032,0.303-0.083c0.691-0.464,1.371-0.958,2.076-1.408
			c0.705-0.461,1.414-0.912,2.154-1.318c1.029-0.567,2.107-1.036,3.125-1.615c0.822-0.46,1.66-0.874,2.508-1.286
			c1.092-0.537,2.223-0.981,3.377-1.378c0.555-0.196,1.117-0.395,1.682-0.511c0.666-0.134,1.287-0.461,1.98-0.467
			c0.404-0.202,0.875-0.11,1.275-0.329c0.025-0.004,0.072-0.002,0.105,0c0.354,0.074,0.686-0.128,1.041-0.108
			c0.346,0.014,0.682,0.004,1.027,0.004c0.506,0,1.008,0,1.461,0c0.383,0.168,0.377,0.531,0.498,0.797
			c0.244,0.549,0.393,1.138,0.578,1.713c0.125,0.38,0.223,0.771,0.363,1.144c0.139,0.375,0.186,0.761,0.305,1.12
			c0.156,0.483,0.213,0.986,0.406,1.458c0.104,0.267,0.076,0.589,0.123,0.879c0.02,0.159,0.068,0.323,0.107,0.497
			c0.025,0.148-0.072,0.323,0.084,0.449c0.02,0.02,0.016,0.062,0.02,0.096c0.039,0.507,0.096,1.018,0.096,1.524
			c0.021,1.849,0,3.687,0.018,5.527c0.004,0.261-0.064,0.485-0.113,0.715c-0.049,0.243,0.109,0.507-0.104,0.713
			c-0.057,0.827-0.35,1.584-0.625,2.348c-0.072,0.192,0.08,0.433-0.137,0.587c-0.039,0.347-0.072,0.697-0.111,1.04
			c-0.043,0.401-0.086,0.804-0.135,1.166c0.51,0.643,1.012,1.242,1.443,1.891c0.232,0.355,0.533,0.681,0.791,1.02
			c0.562,0.761,1.105,1.521,1.602,2.318c0.533,0.857,0.977,1.761,1.43,2.667c0.244,0.495,0.404,1.02,0.621,1.531
			c0.362,0.845,0.606,1.729,0.905,2.6c0.078,0.241,0.108,0.497,0.176,0.746c0.15,0.591,0.198,1.196,0.396,1.775
			c0.118,0.395,0.162,0.81,0.254,1.204c0.092,0.417,0.08,0.841,0.118,1.254c0.038,0.287,0.114,0.587,0.092,0.875
			c0.243,0.234-0.021,0.601,0.221,0.833c-0.072,0.373,0.108,0.729,0.108,1.094c0,1.134,0.034,2.276-0.017,3.408
			c-0.027,0.583-0.065,1.172-0.264,1.728c-0.089,0.23-0.118,0.473-0.141,0.699c-0.068,0.723-0.178,1.446-0.122,2.176
			c0.016,0.254,0,0.505,0.004,0.763c0.01,0.515-0.074,1.03-0.21,1.541c-0.082,0.29-0.036,0.625-0.131,0.917
			c-0.15,0.474-0.148,0.97-0.298,1.449c-0.072,0.234-0.066,0.503-0.116,0.763c-0.095,0.479-0.108,0.958-0.232,1.419
			c-0.261,0.943-0.465,1.898-0.788,2.816c-0.234,0.697-0.488,1.389-0.732,2.086c-0.135,0.387-0.309,0.779-0.465,1.159
			c-0.295,0.704-0.588,1.419-0.945,2.102c-0.332,0.659-0.725,1.291-1.121,1.918c-0.438,0.695-0.902,1.36-1.357,2.033
			c-0.27,0.387-0.529,0.771-0.824,1.122c-0.863,1.04-1.818,1.987-2.805,2.898c-0.654,0.609-1.277,1.255-1.947,1.844
			c-0.572,0.501-1.203,0.955-1.881,1.33c-0.791,0.442-1.594,0.857-2.383,1.302c-1.023,0.575-2.078,1.092-3.135,1.604
			c-0.793,0.376-1.623,0.699-2.447,1.014c-0.645,0.244-1.297,0.444-1.941,0.69c-0.324,0.127-0.676,0.179-1.027,0.259
			c-0.215,0.052-0.475,0.028-0.641,0.15c-0.205,0.154-0.473-0.062-0.639,0.164c-0.029,0.034-0.137,0.019-0.209,0.01
			c-0.395-0.02-0.729,0.116-1.076,0.297c-0.459,0.232-0.936,0.479-1.482,0.463c-0.195,0.166-0.459,0.046-0.648,0.122
			c-0.23,0.103-0.463,0.044-0.664,0.108c-0.48,0.136-0.98,0.106-1.449,0.299c-0.176,0.078-0.406,0.082-0.598,0.098
			c-0.549,0.064-1.094,0.202-1.639,0.271c-0.408,0.042-0.805,0.076-1.215,0.076c-0.141,0-0.285,0.022-0.447-0.076
			c-0.184-0.118-0.389,0.036-0.586,0.12c0,0.286,0,0.573,0,0.892c0.27,0.269,0.578,0.543,0.854,0.861
			c0.328,0.369,0.67,0.753,0.951,1.174c0.367,0.549,0.664,1.156,0.9,1.785c0.117,0.335,0.297,0.64,0.426,0.964
			c0.283,0.701,0.576,1.393,0.82,2.1c0.143,0.444,0.248,0.905,0.369,1.368c0.131,0.483,0.295,0.966,0.225,1.48
			c0.15,0.333,0.09,0.684,0.109,1.034c0.01,0.182,0.068,0.36,0.102,0.553c0.045,0.198,0.076,0.4,0.109,0.599
			c0.031,0.192-0.027,0.375,0.1,0.571c0.068,0.114,0.008,0.309,0.008,0.469c0,8.168,0,16.334,0,24.498
			c0,0.442-0.016,0.454,0.225,0.767c0.301,0.403,0.549,0.85,0.934,1.196c0.256,0.215,0.518,0.398,0.797,0.562
			c0.207,0.12,0.391,0.306,0.613,0.36c0.277,0.066,0.574,0.018,0.857,0.018c0.203,0,0.396-0.01,0.6,0.002
			c0.035,0,0.062,0.068,0.098,0.103C106.459,172.736,90.349,172.736,74.235,172.736z"/>
		<path fill-rule="evenodd" clip-rule="evenodd" fill="none" d="M94.398,15.28c-0.052,0.032-0.094,0.1-0.146,0.1
			c-0.32,0.01-0.643-0.002-0.971,0.01c-0.547,0.026-1.087,0.138-1.62,0.28c-0.295,0.086-0.606,0.132-0.911,0.145
			c-0.486,0.028-0.979,0.038-1.461,0c-0.524-0.036-1.005,0.082-1.473,0.258c-0.144,0.054-0.238,0.042-0.374,0.018
			c-0.274-0.04-0.567-0.062-0.829,0.004c-0.142,0.032-0.272,0.044-0.405,0.054c-0.371,0-0.713,0.142-1.065,0.178
			c-0.444,0.058-0.869,0.182-1.303,0.267c-0.624,0.126-1.247,0.218-1.873,0.318c-0.114,0.012-0.259,0.04-0.316,0.13
			c-0.158,0.21-0.363,0.194-0.577,0.188c-0.251-0.004-0.504,0-0.757,0c-0.225,0-0.709,0.165-0.906,0.303
			c-0.084,0.052-0.177,0.122-0.271,0.132c-0.88,0.026-1.704,0.318-2.538,0.549c-0.762,0.204-1.501,0.465-2.279,0.653
			c-0.876,0.217-1.729,0.509-2.589,0.804c-0.967,0.327-1.897,0.717-2.841,1.104c-0.804,0.337-1.608,0.669-2.417,0.988
			c-0.697,0.271-1.394,0.553-2.084,0.833c-1.082,0.447-2.124,0.979-3.163,1.519c-0.373,0.203-0.747,0.391-1.12,0.575
			c-0.614,0.314-1.212,0.669-1.792,1.042c-0.571,0.357-1.157,0.685-1.735,1.038c-0.434,0.26-0.862,0.527-1.297,0.801
			c-0.676,0.417-1.319,0.885-2.018,1.27c-0.588,0.336-1.132,0.755-1.692,1.144c-0.594,0.407-1.167,0.837-1.776,1.216
			c-0.379,0.241-0.727,0.513-1.082,0.779c-0.641,0.463-1.27,0.964-1.89,1.455c-0.288,0.234-0.555,0.487-0.844,0.723
			c-0.589,0.501-1.18,1.006-1.753,1.519c-0.266,0.229-0.522,0.473-0.79,0.702c-0.223,0.2-0.456,0.386-0.683,0.577
			c-0.231,0.19-0.375,0.485-0.684,0.581c-0.03,0.006-0.049,0.044-0.076,0.068c-0.902,0.875-1.835,1.713-2.698,2.624
			c-0.38,0.389-0.767,0.786-1.123,1.206c-0.436,0.529-0.91,1.028-1.335,1.559c-0.465,0.589-0.971,1.144-1.417,1.745
			c-0.562,0.748-1.16,1.473-1.774,2.19c-0.383,0.469-0.747,0.954-1.107,1.432c-0.621,0.84-1.239,1.675-1.761,2.577
			c-0.281,0.483-0.61,0.943-0.926,1.41c-0.509,0.759-0.969,1.553-1.475,2.312c-0.479,0.717-0.91,1.465-1.373,2.198
			c-0.468,0.728-0.819,1.535-1.211,2.312c-0.441,0.897-0.881,1.799-1.289,2.713c-0.444,0.976-0.9,1.947-1.354,2.909
			c-0.372,0.826-0.718,1.655-1.07,2.482c-0.254,0.605-0.524,1.194-0.733,1.809c-0.204,0.621-0.47,1.23-0.614,1.855
			c-0.185,0.757-0.527,1.477-0.578,2.262c-0.253,0.447-0.292,0.962-0.421,1.451c-0.119,0.475-0.214,0.959-0.347,1.428
			c-0.305,1.066-0.529,2.162-0.833,3.228c-0.12,0.415-0.151,0.882-0.26,1.308c-0.125,0.509-0.132,1.042-0.288,1.555
			c-0.068,0.201-0.016,0.437-0.112,0.659c-0.085,0.212-0.015,0.521-0.134,0.697c-0.15,0.225-0.043,0.475-0.146,0.699
			c-0.09,0.202-0.063,0.459-0.05,0.681c0.019,0.25-0.082,0.501,0.065,0.733c0.021,0.02-0.043,0.108-0.07,0.152
			c-0.245,0.471-0.382,0.956-0.324,1.494c0,0.016,0,0.038,0,0.052c0,0.252,0,0.507,0,0.761c0,0.241-0.016,0.479-0.092,0.717
			c-0.076,0.22-0.021,0.471-0.11,0.713c-0.098,0.272-0.098,0.583-0.118,0.865c-0.019,0.294,0,0.583-0.008,0.877
			c-0.004,0.072,0.043,0.188-0.105,0.192c0-25.391,0-50.784,0-76.184C42.668,15.28,68.529,15.28,94.398,15.28z"/>
		<path fill-rule="evenodd" clip-rule="evenodd" fill="none" d="M179.576,91.464c-0.044-0.044-0.11-0.092-0.11-0.145
			c-0.008-0.248,0.05-0.521-0.01-0.747c-0.152-0.515-0.064-1.068-0.317-1.557c-0.018-0.022-0.01-0.072,0-0.104
			c0.078-0.645-0.122-1.274-0.109-1.913c0.012-0.411-0.021-0.824-0.201-1.214c-0.033-0.086-0.012-0.206-0.012-0.314
			c-0.008-0.489-0.008-0.972,0-1.458c0-0.292-0.068-0.543-0.256-0.769c-0.129-0.161-0.209-0.353-0.179-0.575
			c0.006-0.104-0.008-0.214,0-0.325c0.014-0.543-0.118-1.058-0.198-1.593c-0.084-0.541-0.236-1.063-0.36-1.586
			c-0.123-0.505-0.279-1.012-0.387-1.517c-0.116-0.511-0.225-1.024-0.359-1.533c-0.138-0.545-0.152-1.114-0.438-1.615
			c-0.038-0.783-0.469-1.479-0.53-2.262c-0.217-0.373-0.283-0.793-0.432-1.182c-0.149-0.371-0.252-0.757-0.374-1.144
			c-0.278-0.897-0.644-1.755-0.954-2.64c-0.176-0.503-0.374-1-0.623-1.475c-0.158-0.309-0.25-0.657-0.378-0.982
			c-0.123-0.312-0.341-0.573-0.403-0.923c-0.036-0.198-0.223-0.373-0.303-0.573c-0.402-0.917-0.835-1.829-1.302-2.708
			c-0.699-1.32-1.374-2.645-2.052-3.977c-0.581-1.148-1.244-2.252-2.005-3.278c-0.894-1.198-1.667-2.468-2.543-3.676
			c-0.222-0.294-0.444-0.595-0.633-0.917c-0.188-0.329-0.473-0.599-0.677-0.917c-0.403-0.621-0.926-1.164-1.353-1.761
			c-0.369-0.517-0.838-0.949-1.216-1.454c-0.436-0.589-0.96-1.098-1.391-1.699c-0.217-0.298-0.501-0.539-0.726-0.829
			c-0.338-0.435-0.755-0.806-1.102-1.232c-0.945-1.156-2.079-2.127-3.104-3.208c-0.507-0.527-1.065-0.972-1.633-1.426
			c-0.364-0.276-0.688-0.609-1.035-0.91c-0.347-0.312-0.699-0.621-1.095-0.889c-0.266-0.185-0.511-0.431-0.765-0.646
			c-0.503-0.433-0.998-0.883-1.521-1.298c-0.329-0.272-0.698-0.489-1.044-0.733c-0.607-0.425-1.219-0.825-1.811-1.262
			c-1.146-0.87-2.344-1.655-3.535-2.446c-0.408-0.278-0.854-0.48-1.268-0.743c-0.68-0.413-1.344-0.843-2.027-1.252
			c-0.486-0.296-1.002-0.555-1.486-0.848c-1.082-0.651-2.227-1.168-3.354-1.723c-0.799-0.387-1.596-0.786-2.416-1.096
			c-0.707-0.268-1.377-0.607-2.1-0.843c-0.381-0.122-0.766-0.314-1.146-0.469c-1.205-0.505-2.422-0.982-3.674-1.353
			c-0.412-0.128-0.811-0.306-1.229-0.437c-0.621-0.187-1.264-0.351-1.889-0.545c-0.555-0.164-1.115-0.349-1.672-0.535
			c-0.49-0.16-1.002-0.28-1.471-0.48c-0.236-0.094-0.508,0.05-0.693-0.172c-0.414,0.086-0.805-0.092-1.201-0.12
			c-0.338-0.02-0.666-0.125-0.996-0.207c-0.059-0.012-0.109-0.088-0.174-0.102c-0.254-0.04-0.51-0.08-0.768-0.106
			c-0.361-0.04-0.748-0.012-1.086-0.13c-0.383-0.128-0.777-0.216-1.16-0.337c-0.205-0.068-0.41-0.14-0.629-0.184
			c-0.473-0.086-0.945-0.176-1.426-0.208c-0.5-0.036-1.01-0.01-1.518-0.01c-0.186,0.01-0.318-0.054-0.475-0.158
			c-0.236-0.156-0.488-0.321-0.807-0.281c-0.139,0.012-0.295-0.104-0.443-0.1c-0.221,0.01-0.441,0.076-0.662,0.1
			c-0.219,0.03-0.447-0.04-0.66,0.104c-0.064,0.038-0.193,0.038-0.266,0.004c-0.467-0.208-1-0.161-1.449-0.421
			c-0.115-0.06-0.289,0-0.434-0.018c-0.045-0.002-0.092-0.068-0.141-0.1c25.395,0,50.792,0,76.189,0
			C179.576,40.68,179.576,66.073,179.576,91.464z"/>
		<path fill-rule="evenodd" clip-rule="evenodd" fill="none" d="M123.438,172.736c0.049-0.034,0.09-0.103,0.141-0.103
			c0.281,0.004,0.521-0.092,0.785-0.206c0.48-0.223,1.006-0.354,1.496-0.562c0.744-0.311,1.512-0.529,2.264-0.812
			c0.658-0.249,1.309-0.503,1.949-0.787c0.658-0.291,1.293-0.632,1.934-0.956c0.752-0.369,1.482-0.785,2.246-1.116
			c1.221-0.524,2.387-1.13,3.555-1.743c0.504-0.27,1-0.559,1.49-0.851c0.562-0.335,1.125-0.684,1.688-1.034
			c0.424-0.276,0.834-0.577,1.273-0.84c1.01-0.606,1.961-1.29,2.938-1.933c0.588-0.387,1.152-0.802,1.727-1.204
			c0.658-0.465,1.267-0.994,1.952-1.433c0.229-0.145,0.44-0.337,0.641-0.531c0.493-0.454,1.04-0.841,1.534-1.28
			c0.479-0.442,0.98-0.855,1.48-1.27c0.403-0.339,0.739-0.712,1.135-1.04c1.418-1.2,2.638-2.597,3.973-3.879
			c0.229-0.22,0.41-0.477,0.612-0.719c0.201-0.221,0.415-0.415,0.592-0.675c0.202-0.325,0.507-0.585,0.747-0.884
			c0.421-0.525,0.869-1.038,1.271-1.577c0.346-0.473,0.757-0.879,1.102-1.346c0.339-0.453,0.715-0.88,1.056-1.341
			c0.28-0.378,0.577-0.737,0.863-1.111c0.724-0.918,1.402-1.859,2.036-2.833c0.562-0.87,1.125-1.735,1.681-2.616
			c0.25-0.393,0.463-0.819,0.707-1.219c0.307-0.503,0.641-0.997,0.938-1.513c0.154-0.278,0.297-0.559,0.459-0.831
			c0.282-0.461,0.517-0.949,0.767-1.422c0.325-0.602,0.651-1.211,0.979-1.81c0.204-0.391,0.349-0.795,0.519-1.194
			c0.17-0.378,0.349-0.759,0.473-1.164c0.146-0.456,0.447-0.855,0.627-1.313c0.316-0.804,0.693-1.585,1.018-2.389
			c0.285-0.688,0.533-1.406,0.786-2.111c0.272-0.757,0.482-1.532,0.791-2.27c0.198-0.467,0.311-0.952,0.44-1.447
			c0.137-0.473,0.238-0.955,0.347-1.432c0.185-0.815,0.395-1.631,0.682-2.416c0.272-0.731,0.471-1.483,0.621-2.242
			c0.076-0.391,0.149-0.793,0.294-1.168c0.097-0.278,0.078-0.585,0.126-0.882c0.026-0.182,0.07-0.364,0.104-0.551
			c0.028-0.181,0.028-0.358,0.084-0.551c0.091-0.269,0.019-0.585,0.124-0.878c0.081-0.236,0.011-0.551,0.135-0.755
			c0.15-0.238,0.06-0.495,0.172-0.745c0.114-0.255,0.021-0.596,0.03-0.901c0-0.369-0.072-0.75,0.213-1.052
			c0.096-0.509,0.328-1.026,0.192-1.527c-0.097-0.38-0.11-0.749-0.07-1.098c0.065-0.561,0.1-1.126,0.284-1.669
			c0.046-0.146,0.01-0.32,0.03-0.475c0.008-0.046,0.066-0.092,0.11-0.141c0,23.947,0,47.898,0,71.845
			C160.858,172.736,142.146,172.736,123.438,172.736z"/>
		<path fill-rule="evenodd" clip-rule="evenodd" fill="none" d="M16.803,96.448c0.215,0.04,0.101,0.209,0.101,0.299
			c0.012,1.376,0.016,2.746-0.004,4.123c0,0.236,0.084,0.438,0.123,0.657c0.034,0.204-0.054,0.402,0.084,0.617
			c0.097,0.147,0.078,0.395,0.105,0.593c0.07,0.429,0.196,0.865,0.135,1.312c-0.02,0.194,0,0.389,0,0.593
			c0,0.353,0.026,0.695,0.087,1.042c0.058,0.332,0.068,0.677,0.226,0.993c0.014,0.03,0.007,0.076,0.014,0.106
			c0.032,0.473,0.082,0.943,0.097,1.42c0.005,0.148,0.073,0.259,0.112,0.383c0.149,0.487,0.279,0.974,0.215,1.484
			c-0.042,0.373,0.087,0.718,0.235,1.044c0.048,0.112,0.112,0.211,0.093,0.339c-0.078,0.442,0.051,0.888,0.128,1.306
			c0.107,0.579,0.243,1.16,0.38,1.728c0.149,0.627,0.34,1.238,0.483,1.867c0.089,0.389,0.189,0.787,0.325,1.166
			c0.127,0.368,0.215,0.743,0.305,1.118c0.22,0.949,0.487,1.889,0.792,2.812c0.321,0.985,0.684,1.963,1.092,2.909
			c0.33,0.773,0.617,1.546,0.964,2.31c0.205,0.433,0.391,0.89,0.534,1.353c0.088,0.274,0.242,0.543,0.363,0.817
			c0.659,1.448,1.354,2.885,2.098,4.283c0.305,0.557,0.561,1.14,0.886,1.69c0.678,1.126,1.303,2.28,2.011,3.395
			c0.623,0.989,1.261,1.979,1.92,2.937c0.59,0.861,1.188,1.729,1.84,2.551c0.59,0.747,1.149,1.508,1.731,2.258
			c0.471,0.606,0.963,1.197,1.456,1.784c0.532,0.636,1.113,1.238,1.637,1.876c0.437,0.526,0.951,0.961,1.389,1.477
			c0.864,0.991,1.778,1.921,2.734,2.812c0.64,0.597,1.256,1.218,1.91,1.799c0.577,0.519,1.16,1.032,1.745,1.535
			c0.468,0.398,0.943,0.793,1.412,1.186c0.928,0.793,1.896,1.532,2.92,2.214c0.78,0.521,1.546,1.067,2.315,1.625
			c0.742,0.535,1.516,1.039,2.286,1.53c0.569,0.364,1.161,0.682,1.737,1.038c0.816,0.505,1.66,0.964,2.496,1.42
			c0.492,0.265,0.998,0.493,1.471,0.768c1.444,0.854,2.97,1.547,4.477,2.284c0.729,0.362,1.483,0.681,2.26,0.951
			c0.546,0.198,1.078,0.459,1.594,0.735c0.613,0.335,1.284,0.583,1.953,0.749c0.725,0.185,1.394,0.487,2.092,0.72
			c0.352,0.118,0.699,0.19,1.068,0.178c0.085-0.002,0.23-0.08,0.249,0.103c-18.893,0-37.782,0-56.675,0
			C16.803,147.307,16.803,121.88,16.803,96.448z"/>
	</g>
</g>
</svg>
