<?xml version="1.0" encoding="utf-8"?>
<!-- Generator: Adobe Illustrator 16.0.0, SVG Export Plug-In . SVG Version: 6.00 Build 0)  -->
<!DOCTYPE svg PUBLIC "-//W3C//DTD SVG 1.1//EN" "http://www.w3.org/Graphics/SVG/1.1/DTD/svg11.dtd">
<svg version="1.1" id="Layer_1" xmlns="http://www.w3.org/2000/svg" xmlns:xlink="http://www.w3.org/1999/xlink" x="0px" y="0px"
	 width="200px" height="200px" viewBox="0 0 200 200" enable-background="new 0 0 200 200" xml:space="preserve">
<g id="iEhXe7_1_">
	<g>
		<path fill="#D7FE33" d="M93.08,17.829c3.457,0,6.914,0,10.371,0c0.067,0.158,0.228,0.163,0.358,0.21
			c0.313,0.114,0.648,0.134,0.97,0.214c0.128,0.031,0.293,0.138,0.372,0.092c0.232-0.135,0.471-0.064,0.704-0.095
			c0.25-0.033,0.488-0.147,0.75-0.104c0.215,0.036,0.43,0.101,0.644,0.097c0.181-0.003,0.363,0.041,0.478,0.126
			c0.383,0.285,0.801,0.342,1.252,0.307c0.035-0.003,0.07,0,0.106,0c0.299,0,0.6-0.014,0.898,0.004
			c0.304,0.018,0.612,0.041,0.907,0.11c0.25,0.058,0.528,0.032,0.744,0.116c0.462,0.181,0.944,0.275,1.41,0.428
			c0.304,0.101,0.602,0.198,0.927,0.19c0.377-0.009,0.736,0.18,1.12,0.106c0.027-0.005,0.06,0.025,0.09,0.035
			c0.359,0.123,0.701,0.319,1.102,0.28c0.189,0.184,0.435,0.053,0.642,0.112c0.231,0.066,0.458,0.12,0.699,0.099
			c0.275-0.024,0.521,0.177,0.802,0.107c0.648,0.328,1.371,0.433,2.049,0.673c0.462,0.164,0.912,0.379,1.388,0.477
			c0.599,0.123,1.174,0.329,1.766,0.474c0.663,0.162,1.282,0.482,1.946,0.662c0.361,0.098,0.716,0.227,1.066,0.361
			c0.776,0.296,1.563,0.571,2.318,0.917c0.608,0.279,1.264,0.441,1.849,0.774c0.307-0.016,0.506,0.231,0.77,0.314
			c0.733,0.229,1.431,0.55,2.132,0.856c0.553,0.241,1.079,0.544,1.621,0.812c0.541,0.268,1.094,0.512,1.632,0.786
			c0.35,0.178,0.721,0.32,1.048,0.532c0.485,0.313,0.979,0.605,1.499,0.856c0.118,0.057,0.219,0.151,0.332,0.221
			c0.547,0.338,1.093,0.678,1.646,1.009c0.408,0.245,0.833,0.462,1.236,0.716c0.562,0.353,1.104,0.738,1.666,1.091
			c0.89,0.559,1.736,1.178,2.592,1.787c0.546,0.389,1.066,0.816,1.633,1.171c0.726,0.454,1.413,0.956,2.078,1.49
			c0.444,0.357,0.847,0.769,1.271,1.154c0.088,0.079,0.184,0.149,0.278,0.221c0.374,0.289,0.761,0.562,1.12,0.868
			c0.436,0.371,0.847,0.77,1.269,1.156c0.025,0.024,0.046,0.055,0.075,0.074c0.371,0.241,0.727,0.504,1.033,0.824
			c1.323,1.38,2.769,2.642,4.006,4.107c0.3,0.356,0.634,0.687,0.95,1.026c0.505,0.544,0.924,1.156,1.439,1.689
			c0.238,0.246,0.477,0.5,0.67,0.781c0.241,0.351,0.492,0.688,0.789,0.995c0.153,0.158,0.287,0.341,0.43,0.501
			c0.317,0.358,0.577,0.758,0.88,1.125c0.302,0.365,0.595,0.738,0.877,1.118c0.328,0.443,0.641,0.898,0.958,1.349
			c0.212,0.3,0.427,0.598,0.63,0.903c0.367,0.552,0.694,1.135,1.099,1.658c0.586,0.757,1.095,1.566,1.668,2.331
			c0.444,0.593,0.813,1.241,1.167,1.895c0.155,0.288,0.298,0.582,0.45,0.872c0.159,0.304,0.326,0.605,0.485,0.91
			c0.565,1.088,1.134,2.175,1.691,3.268c0.355,0.698,0.701,1.402,1.038,2.109c0.421,0.883,0.852,1.761,1.204,2.676
			c0.14,0.364,0.39,0.69,0.499,1.061c0.189,0.645,0.552,1.228,0.655,1.899c0.538,1.021,0.779,2.147,1.156,3.225
			c0.135,0.385,0.302,0.759,0.417,1.149c0.12,0.41,0.182,0.836,0.319,1.244c0.089,0.265,0.213,0.544,0.197,0.81
			c-0.018,0.317,0.218,0.525,0.234,0.812c0.007,0.111,0.079,0.216,0.099,0.327c0.093,0.542,0.31,1.058,0.319,1.614
			c0.2,0.316,0.177,0.696,0.306,1.038c0.128,0.336,0.112,0.727,0.232,1.068c0.303,0.863,0.46,1.761,0.606,2.653
			c0.076,0.465,0.204,0.946,0.127,1.434c-0.034,0.214,0.052,0.402,0.179,0.559c0.179,0.222,0.248,0.47,0.244,0.747
			c-0.002,0.159-0.01,0.318,0.001,0.476c0.043,0.644-0.141,1.312,0.208,1.924c0.016,0.027,0.006,0.07,0.002,0.105
			c-0.08,0.731,0.135,1.448,0.108,2.178c-0.013,0.355-0.029,0.715,0.178,1.037c0.033,0.051,0.024,0.131,0.031,0.198
			c0.041,0.371,0.08,0.743,0.125,1.114c0.002,0.016,0.057,0.025,0.087,0.038c0,3.598,0,7.196,0,10.793
			c-0.03,0.013-0.087,0.025-0.088,0.038c-0.006,0.475-0.148,0.928-0.215,1.39c-0.086,0.595-0.171,1.196-0.125,1.806
			c0.025,0.35-0.007,0.705,0.008,1.057c0.016,0.402-0.117,0.752-0.321,1.088c0,0.35,0.009,0.703-0.003,1.055
			c-0.008,0.252-0.002,0.496-0.081,0.757c-0.08,0.264-0.016,0.571-0.229,0.808c-0.026,0.029-0.008,0.104-0.003,0.156
			c0.036,0.414-0.174,0.808-0.106,1.225c-0.166,0.228-0.053,0.504-0.126,0.742c-0.11,0.355-0.196,0.709-0.193,1.084
			c0.001,0.102,0.01,0.215-0.03,0.304c-0.269,0.61-0.298,1.281-0.493,1.911c-0.146,0.47-0.204,0.963-0.396,1.423
			c-0.106,0.255-0.153,0.537-0.271,0.786c-0.128,0.27-0.072,0.598-0.289,0.832c0.023,0.395-0.146,0.756-0.233,1.125
			c-0.091,0.379-0.157,0.77-0.279,1.148c-0.12,0.371-0.271,0.752-0.315,1.134c-0.047,0.409-0.348,0.724-0.336,1.136
			c-0.517,1.008-0.713,2.133-1.157,3.17c-0.256,0.599-0.49,1.208-0.729,1.813c-0.179,0.454-0.417,0.883-0.569,1.353
			c-0.104,0.315-0.222,0.649-0.404,0.941c-0.097,0.156-0.268,0.289-0.303,0.454c-0.066,0.312-0.265,0.571-0.32,0.873
			c-0.059,0.321-0.275,0.558-0.366,0.854c-0.02,0.062-0.043,0.123-0.067,0.185c-0.141,0.347-0.225,0.735-0.436,1.032
			c-0.349,0.488-0.562,1.042-0.871,1.549c-0.398,0.655-0.731,1.352-1.093,2.031c-0.162,0.303-0.289,0.633-0.493,0.903
			c-0.501,0.665-0.877,1.405-1.323,2.103c-0.185,0.287-0.383,0.577-0.543,0.883c-0.339,0.646-0.779,1.227-1.167,1.841
			c-0.39,0.62-0.811,1.225-1.243,1.819c-0.452,0.622-0.911,1.242-1.374,1.855c-0.519,0.688-1.064,1.359-1.6,2.037
			c-0.485,0.614-1.011,1.198-1.485,1.821c-0.199,0.262-0.446,0.48-0.636,0.741c-0.239,0.329-0.463,0.668-0.756,0.954
			c-0.126,0.123-0.288,0.229-0.367,0.378c-0.323,0.614-0.907,1.013-1.278,1.585c-1.32,1.257-2.521,2.637-3.916,3.818
			c-0.544,0.461-1.047,0.968-1.568,1.455c-0.052,0.048-0.094,0.107-0.15,0.147c-0.506,0.356-0.968,0.763-1.41,1.195
			c-0.232,0.228-0.475,0.453-0.743,0.633c-0.384,0.257-0.715,0.574-1.062,0.873c-0.232,0.199-0.468,0.388-0.728,0.548
			c-0.156,0.096-0.309,0.197-0.455,0.307c-0.579,0.434-1.146,0.884-1.735,1.304c-0.716,0.512-1.446,1-2.192,1.469
			c-0.887,0.557-1.737,1.169-2.609,1.749c-0.481,0.32-0.964,0.644-1.466,0.932c-0.599,0.344-1.163,0.743-1.777,1.065
			c-0.405,0.212-0.789,0.479-1.2,0.682c-1.171,0.576-2.316,1.201-3.521,1.713c-1.035,0.439-2.016,1.007-3.021,1.518
			c-0.524,0.266-1.03,0.583-1.579,0.782c-0.705,0.257-1.397,0.547-2.101,0.806c-0.734,0.271-1.488,0.486-2.211,0.792
			c-0.494,0.209-1.004,0.384-1.508,0.572c-0.233,0.088-0.458,0.203-0.723,0.178c-0.042-0.005-0.091,0.064-0.136,0.1
			c-0.882,0-1.764,0-2.646,0c-0.15-0.152-0.368-0.189-0.538-0.313c-0.172-0.124-0.402-0.182-0.546-0.328
			c-0.269-0.275-0.646-0.406-0.846-0.787c-0.209-0.397-0.545-0.729-0.822-1.083c0-7.82,0.007-15.634-0.007-23.446
			c-0.002-1.132,0.111-2.268-0.088-3.397c-0.032-0.182-0.073-0.358-0.114-0.537c-0.04-0.178-0.014-0.353-0.087-0.546
			c-0.116-0.307-0.11-0.667-0.123-1.007c-0.018-0.48-0.181-0.949-0.113-1.438c0.006-0.042-0.039-0.089-0.051-0.136
			c-0.089-0.352-0.173-0.703-0.264-1.055c-0.084-0.318-0.129-0.656-0.272-0.945c-0.183-0.367-0.273-0.766-0.448-1.139
			c-0.192-0.41-0.364-0.837-0.531-1.26c-0.174-0.439-0.359-0.874-0.549-1.307c-0.306-0.697-0.663-1.371-1.158-1.953
			c-0.473-0.556-0.981-1.08-1.463-1.607c0-0.296,0-0.59,0-0.887c0.261-0.14,0.485-0.373,0.788-0.113
			c0.021,0.019,0.069,0.002,0.104,0.004c0.659,0.035,1.319,0.003,1.964-0.118c0.447-0.084,0.884-0.205,1.344-0.202
			c0.066,0.001,0.137-0.008,0.198-0.029c0.564-0.204,1.161-0.263,1.743-0.391c0.178-0.04,0.358-0.1,0.537-0.102
			c0.344-0.004,0.665-0.189,1.015-0.111c0.179-0.185,0.43-0.049,0.629-0.144c0.339-0.161,0.669-0.346,1.018-0.479
			c0.291-0.111,0.58-0.237,0.913-0.232c0.296,0.004,0.585-0.1,0.874-0.178c0.223-0.062,0.446-0.123,0.687-0.145
			c0.357-0.031,0.731-0.102,1.057-0.248c0.702-0.316,1.446-0.508,2.163-0.781c0.854-0.324,1.699-0.672,2.527-1.053
			c0.846-0.387,1.678-0.81,2.49-1.273c0.823-0.471,1.654-0.941,2.506-1.356c0.951-0.464,1.814-1.044,2.621-1.707
			c0.509-0.418,0.982-0.887,1.449-1.351c1.168-1.161,2.396-2.265,3.461-3.529c0.327-0.391,0.611-0.803,0.896-1.219
			c0.395-0.578,0.805-1.146,1.188-1.731c0.442-0.675,0.864-1.362,1.253-2.072c0.503-0.919,0.932-1.872,1.319-2.841
			c0.169-0.421,0.343-0.846,0.489-1.28c0.151-0.446,0.289-0.901,0.458-1.343c0.239-0.629,0.457-1.262,0.598-1.926
			c0.063-0.301,0.11-0.625,0.237-0.902c0.246-0.545,0.262-1.131,0.371-1.697c0.091-0.476,0.121-0.968,0.231-1.441
			c0.051-0.216,0.119-0.422,0.101-0.646c-0.004-0.047,0.021-0.096,0.034-0.143c0.09-0.306,0.202-0.605,0.177-0.934
			c-0.008-0.104-0.021-0.22,0.015-0.311c0.191-0.471,0.241-0.977,0.285-1.464c0.097-1.074-0.06-2.158,0.104-3.238
			c0.045-0.298,0.07-0.618,0.153-0.896c0.087-0.291,0.164-0.568,0.192-0.874c0.029-0.303,0.107-0.598,0.101-0.91
			c-0.016-0.705,0.009-1.411-0.009-2.116c-0.017-0.709,0.075-1.421-0.095-2.128c-0.078-0.328-0.021-0.694-0.13-1.006
			c-0.092-0.26-0.01-0.529-0.104-0.75c-0.104-0.241-0.103-0.473-0.081-0.703c0.023-0.251-0.092-0.464-0.115-0.698
			c-0.032-0.32-0.022-0.656-0.117-0.958c-0.129-0.411-0.19-0.839-0.32-1.243c-0.134-0.413-0.066-0.868-0.303-1.249
			c0.032-0.279-0.082-0.522-0.175-0.774c-0.09-0.246-0.165-0.499-0.225-0.753c-0.18-0.767-0.505-1.486-0.784-2.216
			c-0.207-0.543-0.419-1.094-0.702-1.615c-0.29-0.531-0.572-1.069-0.851-1.605c-0.267-0.515-0.595-0.987-0.887-1.482
			c-0.186-0.314-0.396-0.616-0.612-0.911c-0.36-0.488-0.734-0.966-1.105-1.447c-0.156-0.201-0.349-0.38-0.474-0.599
			c-0.381-0.667-0.899-1.223-1.391-1.827c0.081-0.318-0.061-0.657,0.084-1.008c0.132-0.322,0.048-0.7,0.113-1.059
			c0.107-0.59,0.25-1.159,0.431-1.73c0.17-0.534,0.432-1.067,0.322-1.644c0.253-0.411,0.253-0.411,0.153-0.647
			c0.066-0.42,0.16-0.764,0.168-1.109c0.021-0.97,0.025-1.94,0.002-2.91c-0.023-0.956,0.086-1.913-0.088-2.869
			c-0.074-0.41-0.012-0.844-0.012-1.237c-0.083-0.153-0.152-0.284-0.226-0.42c0.036-0.045,0.103-0.093,0.095-0.12
			c-0.125-0.437-0.217-0.876-0.19-1.335c0.002-0.042-0.046-0.085-0.065-0.13c-0.219-0.517-0.294-1.076-0.445-1.612
			c-0.168-0.6-0.347-1.197-0.527-1.794c-0.113-0.376-0.203-0.761-0.34-1.129c-0.143-0.382-0.182-0.798-0.411-1.154
			c-0.085-0.131-0.087-0.316-0.134-0.506c-0.102-0.1-0.228-0.223-0.355-0.349c-0.418,0-0.842,0-1.265,0
			c-0.406,0-0.812-0.014-1.217,0.004c-0.409,0.018-0.817,0.074-1.227,0.097c-0.126,0.007-0.23,0.092-0.327,0.098
			c-0.456,0.03-0.878,0.248-1.34,0.228c-0.062-0.003-0.123,0.043-0.186,0.06c-0.335,0.086-0.681,0.142-1.003,0.261
			c-0.341,0.126-0.699,0.175-1.043,0.289c-0.838,0.276-1.682,0.531-2.502,0.862c-0.559,0.226-1.131,0.421-1.674,0.685
			c-0.177,0.085-0.339,0.215-0.523,0.268c-0.668,0.19-1.259,0.556-1.857,0.875c-0.562,0.3-1.129,0.605-1.683,0.927
			c-0.991,0.575-2.057,1.007-3.049,1.583c-0.961,0.559-1.861,1.208-2.794,1.809c-0.444,0.287-0.884,0.582-1.265,0.833
			c-0.308-0.047-0.547-0.052-0.766-0.124c-0.802-0.261-1.634-0.394-2.448-0.6c-0.514-0.13-1.015-0.333-1.558-0.33
			c-0.247-0.181-0.561-0.177-0.837-0.277c-0.286-0.104-0.616-0.208-0.948-0.141c-0.149-0.186-0.356-0.077-0.538-0.106
			c-0.197-0.032-0.396-0.107-0.591-0.098c-0.485,0.023-0.949-0.194-1.438-0.115c-0.032,0.005-0.083,0.005-0.098-0.014
			c-0.123-0.157-0.294-0.062-0.44-0.092c-0.162-0.032-0.323-0.073-0.485-0.104c-0.146-0.028-0.295,0.037-0.443-0.091
			c-0.098-0.083-0.312,0.046-0.421-0.122c-0.434-0.045-0.837-0.281-1.288-0.21c-0.163,0.026-0.322,0.091-0.486,0.099
			c-0.253,0.013-0.505-0.056-0.751-0.079c-0.512-0.049-1.02-0.201-1.542-0.129c-0.086,0.012-0.216,0.04-0.258-0.004
			c-0.242-0.254-0.56-0.019-0.84-0.157c-0.238-0.117-0.557-0.081-0.836-0.148c-0.089-0.021-0.194,0.035-0.294,0.045
			c-0.165,0.016-0.362,0.084-0.492,0.021c-0.297-0.145-0.556-0.071-0.819,0.042c-0.033-0.032-0.057-0.074-0.084-0.077
			c-0.392-0.033-0.78-0.099-1.173,0.032c-0.147,0.049-0.329,0.001-0.495-0.013c-0.082-0.007-0.161-0.053-0.241-0.054
			c-0.705-0.005-1.412-0.024-2.116,0.003c-0.714,0.028-1.417-0.085-2.126-0.105c-0.213-0.006-0.428,0.077-0.644,0.097
			c-0.426,0.04-0.854-0.044-1.283,0.095c-0.24,0.078-0.529-0.014-0.789,0.021c-0.258,0.035-0.503,0.17-0.76,0.196
			c-0.583,0.059-1.169,0.079-1.755,0.113c-0.173,0.01-0.356-0.02-0.52,0.024c-0.34,0.091-0.684,0.16-1.033,0.185
			c-0.637,0.046-1.275,0.073-1.914,0.108c-0.035,0.002-0.08-0.014-0.104,0.002c-0.396,0.263-0.871,0.19-1.299,0.315
			c-0.11,0.032-0.217,0.099-0.327,0.101c-0.592,0.014-1.13,0.264-1.701,0.37c-0.586,0.109-1.141,0.343-1.747,0.393
			c-0.22,0.018-0.463,0.052-0.681,0.13c-0.533,0.19-1.087,0.283-1.641,0.383c-0.146,0.026-0.287,0.089-0.433,0.099
			c-0.17,0.011-0.324,0.043-0.489,0.1c-0.25,0.086-0.525,0.098-0.69,0.125c-0.335-0.215-0.592-0.371-0.839-0.542
			c-0.399-0.275-0.767-0.607-1.192-0.832c-0.712-0.376-1.375-0.832-2.09-1.206c-0.521-0.272-1.027-0.589-1.546-0.874
			c-0.586-0.321-1.2-0.592-1.797-0.896c-0.321-0.164-0.62-0.376-0.948-0.52c-0.404-0.176-0.818-0.324-1.208-0.533
			c-0.345-0.186-0.697-0.358-1.049-0.531c-0.483-0.238-0.96-0.491-1.458-0.695c-0.209-0.086-0.418-0.185-0.635-0.255
			c-0.794-0.257-1.586-0.521-2.391-0.743c-0.126-0.035-0.252-0.073-0.379-0.105c-0.335-0.085-0.682-0.141-1.004-0.26
			c-0.467-0.172-0.947-0.277-1.431-0.379c-0.41-0.086-0.815-0.178-1.233-0.229c-0.192-0.023-0.392-0.068-0.593-0.088
			c-0.199-0.019-0.395-0.095-0.592-0.097c-0.897-0.011-1.794-0.005-2.673-0.005c-0.059,0.142-0.118,0.259-0.157,0.383
			c-0.109,0.344-0.298,0.656-0.416,0.991c-0.309,0.879-0.564,1.777-0.862,2.66c-0.084,0.251-0.164,0.497-0.221,0.757
			c-0.056,0.253-0.214,0.484-0.195,0.763c-0.269,0.394-0.293,0.874-0.402,1.311c-0.137,0.551-0.137,1.138-0.224,1.708
			c-0.051,0.345,0.011,0.706-0.015,1.057c-0.025,0.338,0.04,0.67-0.078,1.022c-0.106,0.317-0.022,0.698-0.022,1.051
			c0,1.182-0.01,2.364,0.005,3.545c0.006,0.515,0.065,1.029,0.101,1.543c0.001,0.018-0.005,0.038,0.001,0.053
			c0.133,0.292,0.165,0.608,0.207,0.918c0.045,0.33,0.162,0.643,0.232,0.966c0.087,0.399,0.164,0.812,0.313,1.19
			c0.135,0.34,0.123,0.717,0.306,1.038c-0.08,0.625,0.159,1.233,0.104,1.809c-0.067,0.129-0.099,0.228-0.159,0.303
			c-0.546,0.684-1.054,1.396-1.577,2.097c-0.671,0.901-1.398,1.761-1.976,2.729c-0.278,0.467-0.583,0.92-0.832,1.403
			c-0.275,0.535-0.496,1.099-0.75,1.646c-0.09,0.193-0.249,0.361-0.307,0.561c-0.138,0.473-0.359,0.91-0.533,1.367
			c-0.181,0.473-0.334,0.955-0.496,1.435c-0.21,0.621-0.422,1.25-0.543,1.886c-0.109,0.572-0.3,1.125-0.363,1.713
			c-0.048,0.445-0.208,0.883-0.189,1.344c0.002,0.053,0.022,0.135-0.003,0.154c-0.229,0.172-0.034,0.451-0.187,0.673
			c-0.113,0.163-0.032,0.449-0.111,0.687c-0.074,0.223-0.01,0.489-0.018,0.735c-0.003,0.116-0.005,0.221-0.068,0.343
			c-0.096,0.185-0.139,0.418-0.134,0.628c0.016,0.66-0.19,1.306-0.114,1.967c0.005,0.053,0.023,0.13-0.003,0.155
			c-0.186,0.176-0.111,0.403-0.091,0.594c0.026,0.238-0.117,0.425-0.117,0.646c0,0.035-0.015,0.081,0.002,0.104
			c0.184,0.25,0.082,0.536,0.102,0.805c0.042,0.567,0.071,1.135,0.11,1.702c0.003,0.046,0.032,0.092,0.053,0.136
			c0.206,0.436,0.179,0.916,0.251,1.375c0.054,0.35-0.036,0.711-0.076,1.067c-0.076,0.69,0.005,1.378,0.269,2.048
			c0.104,0.265,0.176,0.578,0.143,0.896c-0.034,0.332,0.001,0.67-0.01,1.005c-0.011,0.327,0.173,0.629,0.113,0.962
			c-0.009,0.055,0.051,0.119,0.069,0.181c0.167,0.568,0.325,1.139,0.466,1.714c0.056,0.228,0.074,0.459,0.133,0.684
			c0.129,0.494,0.244,0.99,0.39,1.479c0.09,0.304,0.075,0.626,0.205,0.92c0.079,0.179,0.148,0.362,0.212,0.547
			c0.135,0.387,0.239,0.784,0.364,1.173c0.325,1.01,0.694,2.006,1.22,2.934c0.056,0.097,0.066,0.219,0.111,0.323
			c0.16,0.374,0.309,0.756,0.495,1.118c0.203,0.394,0.443,0.769,0.667,1.151c0.324,0.554,0.635,1.116,0.978,1.658
			c0.4,0.632,0.812,1.257,1.25,1.862c0.318,0.441,0.67,0.86,1.033,1.265c0.329,0.368,0.698,0.698,1.041,1.054
			c0.103,0.107,0.167,0.252,0.266,0.364c0.272,0.303,0.397,0.714,0.744,0.966c0.249,0.18,0.465,0.404,0.708,0.592
			c0.524,0.404,1.031,0.83,1.558,1.228c0.263,0.198,0.472,0.458,0.742,0.633c0.381,0.247,0.726,0.539,1.095,0.8
			c0.381,0.27,0.733,0.58,1.152,0.797c0.292,0.15,0.583,0.303,0.86,0.477c0.39,0.246,0.788,0.476,1.198,0.686
			c0.451,0.23,0.9,0.467,1.352,0.695c0.829,0.422,1.665,0.833,2.539,1.151c0.29,0.105,0.568,0.274,0.894,0.271
			c0.892,0.454,1.872,0.672,2.794,1.047c0.499,0.202,1.041,0.303,1.567,0.431c0.4,0.098,0.784,0.241,1.188,0.333
			c0.449,0.102,0.892,0.234,1.345,0.328c0.27,0.056,0.524,0.188,0.793,0.252c0.293,0.069,0.609,0.061,0.887,0.161
			c0.218,0.079,0.442,0.042,0.641,0.113c0.303,0.109,0.602,0.185,0.925,0.196c0.322,0.012,0.641,0.074,0.962,0.098
			c0.21,0.016,0.423,0.004,0.571,0.004c0.275,0.161,0.503,0.295,0.737,0.433c0.877,0,1.756,0,2.58,0
			c0.291,0.29,0.549,0.549,0.81,0.81c-0.265,0.297-0.555,0.594-0.811,0.918c-0.268,0.34-0.482,0.724-0.757,1.059
			c-0.404,0.492-0.74,1.032-1.029,1.588c-0.368,0.707-0.755,1.41-1.024,2.166c-0.125,0.354-0.249,0.709-0.381,1.06
			c-0.168,0.444-0.285,0.907-0.408,1.363c-0.128,0.478-0.223,0.968-0.33,1.452c-0.047,0.212-0.071,0.43-0.109,0.644
			c-0.04,0.229-0.083,0.455-0.118,0.641c-0.357,0.206-0.667,0.391-0.983,0.565c-0.545,0.301-1.386,0.581-2.072,0.748
			c-0.349,0.085-0.665,0.302-1.034,0.307c-0.392,0.005-0.764,0.141-1.122,0.243c-0.361,0.104-0.737,0.18-1.098,0.269
			c-0.535,0.131-1.086,0.275-1.653,0.233c-0.427-0.031-0.865,0.084-1.279-0.105c-0.609,0.081-1.2-0.139-1.809-0.111
			c-0.563,0.024-1.128,0.005-1.693,0.005c-0.105,0-0.228,0.033-0.313-0.008c-0.396-0.192-0.836-0.203-1.252-0.292
			c-0.681-0.146-1.333-0.347-1.956-0.651c-1.167-0.571-2.328-1.143-3.398-1.895c-0.642-0.451-1.227-0.962-1.823-1.463
			c-0.413-0.346-0.75-0.768-1.089-1.186c-0.217-0.267-0.454-0.516-0.67-0.783c-0.125-0.154-0.236-0.322-0.339-0.493
			c-0.229-0.38-0.415-0.792-0.68-1.144c-0.636-0.842-1.153-1.762-1.806-2.596c-0.497-0.633-1.07-1.194-1.562-1.828
			c-0.266-0.344-0.572-0.661-0.915-0.943c-0.469-0.385-0.874-0.849-1.354-1.217c-0.342-0.262-0.642-0.586-1.054-0.768
			c-0.239-0.105-0.442-0.293-0.664-0.44c-0.585-0.386-1.439-0.783-2.118-1.019c-0.513-0.178-1.04-0.306-1.557-0.461
			c-0.348-0.103-0.708-0.173-1.054-0.248c-0.354-0.077-0.729-0.205-1.115-0.139c-0.109,0.02-0.219-0.008-0.341-0.064
			c-0.205-0.096-0.468-0.172-0.678-0.127c-0.52,0.113-1.051,0.168-1.564,0.306c-0.348,0.094-0.69,0.206-1.033,0.316
			c-0.124,0.04-0.242,0.097-0.378,0.153c0,0.453,0,0.924,0,1.4c0.818,0.763,1.541,1.627,2.431,2.313
			c0.346,0.267,0.696,0.529,1.05,0.787c0.878,0.638,1.86,1.128,2.664,1.87c0.496,0.223,0.706,0.719,1.038,1.097
			c0.346,0.394,0.595,0.866,0.976,1.235c0.101,0.098,0.233,0.184,0.29,0.303c0.138,0.293,0.382,0.504,0.54,0.781
			c0.156,0.273,0.341,0.53,0.518,0.791c0.641,0.941,1.259,1.896,1.757,2.924c0.306,0.631,0.622,1.259,0.89,1.906
			c0.28,0.677,0.505,1.378,0.835,2.035c0.132,0.264,0.311,0.505,0.437,0.771c0.162,0.345,0.355,0.669,0.571,0.98
			c0.237,0.343,0.458,0.697,0.714,1.025c0.347,0.444,0.699,0.887,1.087,1.294c0.382,0.4,0.831,0.736,1.218,1.133
			c0.467,0.479,1.037,0.824,1.572,1.203c0.652,0.463,1.378,0.824,2.1,1.178c0.512,0.252,1.034,0.485,1.555,0.717
			c0.208,0.093,0.435,0.146,0.641,0.242c0.211,0.099,0.443,0.131,0.66,0.191c0.696,0.197,1.386,0.422,2.102,0.559
			c0.226,0.044,0.461,0.063,0.683,0.134c0.321,0.101,0.643,0.198,0.987,0.173c0.121-0.009,0.251-0.018,0.362,0.018
			c0.32,0.104,0.643,0.172,0.979,0.194c0.339,0.022,0.676,0.094,1.015,0.099c0.988,0.014,1.976,0.021,2.963,0
			c0.991-0.022,1.983,0.079,2.975-0.087c0.412-0.069,0.825-0.125,1.234-0.219c0.387-0.089,0.769-0.295,1.192-0.119
			c0.105,0.043,0.271,0.052,0.362-0.003c0.261-0.156,0.539-0.066,0.759-0.096c0.287-0.148,0.535-0.275,0.837-0.432
			c0.308,0.044,0.673,0.096,1.045,0.148c0,5.834,0,11.667,0,17.45c-0.547,0.691-1.066,1.347-1.541,1.946
			c-0.403,0.097-0.731,0.152-1.043,0.257c-0.37,0.123-0.733,0.249-1.131,0.211c-0.024-0.002-0.055,0.065-0.083,0.101
			c-0.317,0-0.635,0-0.952,0c-0.038-0.206-0.206-0.109-0.296-0.099c-0.614,0.078-1.166-0.158-1.697-0.382
			c-0.513-0.216-1.07-0.306-1.559-0.577c-0.781-0.094-1.467-0.454-2.157-0.793c-0.571-0.28-1.131-0.588-1.735-0.79
			c-0.682-0.229-1.341-0.511-1.988-0.818c-0.738-0.35-1.461-0.728-2.192-1.091c-0.672-0.334-1.353-0.653-2.018-1.003
			c-0.581-0.305-1.131-0.668-1.718-0.961c-0.63-0.316-1.249-0.648-1.86-0.998c-0.284-0.163-0.581-0.303-0.863-0.47
			c-0.44-0.26-0.874-0.531-1.307-0.802c-0.687-0.429-1.38-0.848-2.056-1.292c-0.784-0.516-1.517-1.106-2.293-1.628
			c-0.87-0.583-1.726-1.187-2.589-1.778c-0.53-0.363-1.019-0.785-1.517-1.192c-0.319-0.263-0.597-0.581-0.935-0.813
			c-0.65-0.448-1.18-1.033-1.804-1.509c-0.313-0.238-0.586-0.531-0.885-0.792c-0.63-0.548-1.218-1.146-1.827-1.718
			c-1.084-1.02-2.132-2.078-3.117-3.197c-0.302-0.343-0.674-0.627-0.962-0.98c-0.444-0.548-0.889-1.094-1.39-1.59
			c-0.038-0.037-0.083-0.07-0.111-0.113c-0.398-0.595-0.907-1.102-1.36-1.652c-0.477-0.577-0.928-1.175-1.399-1.756
			c-0.645-0.795-1.227-1.641-1.842-2.459c-0.412-0.548-0.811-1.103-1.181-1.679c-0.566-0.879-1.161-1.74-1.732-2.616
			c-0.315-0.483-0.613-0.979-0.909-1.475c-0.269-0.451-0.521-0.914-0.791-1.361c-0.307-0.508-0.611-1.019-0.897-1.536
			c-0.482-0.873-0.929-1.766-1.38-2.654c-0.244-0.479-0.467-0.97-0.699-1.455c-0.386-0.81-0.773-1.619-1.158-2.43
			c-0.021-0.043-0.035-0.092-0.049-0.138c-0.142-0.452-0.32-0.889-0.525-1.317c-0.148-0.308-0.304-0.623-0.411-0.938
			c-0.257-0.759-0.619-1.473-0.893-2.224c-0.195-0.535-0.413-1.062-0.603-1.601c-0.223-0.631-0.458-1.261-0.628-1.907
			c-0.147-0.557-0.312-1.108-0.446-1.67c-0.087-0.363-0.168-0.732-0.292-1.092c-0.138-0.402-0.261-0.813-0.336-1.238
			c-0.083-0.469-0.192-0.939-0.346-1.389c-0.231-0.677-0.355-1.374-0.493-2.07c-0.045-0.228-0.045-0.479-0.149-0.677
			c-0.085-0.162-0.001-0.32-0.07-0.448c-0.085-0.16-0.104-0.316-0.1-0.488c0.005-0.211,0.001-0.422,0.001-0.598
			c-0.199-0.354-0.332-0.683-0.322-1.069c0.01-0.41,0.052-0.825-0.098-1.227c-0.085-0.229-0.175-0.466-0.206-0.706
			c-0.036-0.277,0.049-0.578-0.024-0.84c-0.072-0.256-0.081-0.501-0.09-0.754c-0.001-0.034,0.003-0.072-0.011-0.102
			c-0.153-0.308-0.14-0.652-0.221-0.97c-0.09-0.346-0.071-0.68-0.082-1.019c-0.013-0.406-0.003-0.811-0.003-1.217
			c0-0.088,0.037-0.223-0.006-0.257c-0.217-0.172-0.005-0.437-0.165-0.627c-0.147-0.175,0.015-0.421-0.102-0.645
			c-0.095-0.182-0.044-0.438-0.059-0.681c-0.059-0.039-0.128-0.086-0.198-0.133c0-0.458,0-0.916,0-1.375
			c0.035-0.028,0.101-0.056,0.101-0.084c0.005-1.107,0.005-2.217,0-3.325c0-0.028-0.066-0.056-0.101-0.083c0-1.94,0-3.88,0-5.82
			c0.035-0.028,0.101-0.055,0.101-0.083c0.007-0.368,0.007-0.736,0-1.104c0-0.029-0.066-0.055-0.101-0.083c0-0.07,0-0.141,0-0.211
			c0.07-0.047,0.14-0.094,0.196-0.132c0.016-0.208-0.023-0.426,0.059-0.577c0.088-0.161,0.001-0.32,0.069-0.448
			c0.086-0.16,0.103-0.317,0.101-0.489c-0.004-0.458,0.01-0.917-0.005-1.375c-0.014-0.402,0.121-0.751,0.321-1.087
			c0-0.421-0.004-0.844,0.002-1.267c0.002-0.115,0.04-0.229,0.057-0.346c0.055-0.377,0.053-0.768,0.258-1.109
			c-0.007-0.511,0.156-0.998,0.23-1.497c0.035-0.231,0.016-0.49,0.101-0.693c0.19-0.457,0.165-0.946,0.288-1.413
			c0.066-0.251,0.096-0.527,0.178-0.775c0.197-0.596,0.307-1.211,0.472-1.814c0.134-0.492,0.268-0.985,0.375-1.483
			c0.116-0.533,0.284-1.052,0.375-1.593c0.07-0.417,0.164-0.84,0.416-1.226c-0.03-0.457,0.128-0.892,0.289-1.336
			c0.173-0.476,0.264-0.982,0.423-1.465c0.369-1.115,0.781-2.211,1.253-3.29c0.365-0.834,0.707-1.683,1.071-2.518
			c0.32-0.731,0.68-1.445,1.003-2.176c0.079-0.18,0.258-0.333,0.283-0.514c0.055-0.394,0.29-0.699,0.452-1.032
			c0.166-0.338,0.287-0.694,0.457-1.028c0.2-0.393,0.39-0.791,0.588-1.185c0.301-0.599,0.617-1.19,0.906-1.793
			c0.293-0.61,0.68-1.167,1.031-1.738c0.545-0.887,1.114-1.761,1.679-2.637c0.26-0.404,0.471-0.848,0.78-1.21
			c0.427-0.5,0.716-1.082,1.074-1.622c0.256-0.386,0.484-0.791,0.753-1.167c0.344-0.479,0.748-0.918,1.07-1.411
			c0.438-0.669,0.977-1.253,1.476-1.87c0.267-0.33,0.521-0.67,0.791-0.993c0.295-0.352,0.557-0.728,0.85-1.081
			c0.242-0.291,0.514-0.558,0.743-0.858c0.332-0.435,0.661-0.87,1.051-1.256c0.05-0.05,0.127-0.092,0.145-0.151
			c0.075-0.251,0.303-0.369,0.454-0.553s0.286-0.383,0.452-0.552c0.68-0.691,1.361-1.382,2.057-2.057
			c0.683-0.661,1.298-1.391,2.108-1.923c0.397-0.261,0.713-0.65,1.078-0.97c0.582-0.511,1.163-1.023,1.747-1.531
			c0.505-0.439,1.017-0.869,1.523-1.306c0.348-0.301,0.709-0.58,1.073-0.859c0.891-0.684,1.77-1.382,2.723-1.983
			c0.62-0.392,1.203-0.844,1.805-1.265c0.354-0.248,0.709-0.496,1.075-0.728c0.515-0.327,1.042-0.635,1.56-0.958
			c0.785-0.49,1.563-0.99,2.351-1.477c0.391-0.241,0.807-0.444,1.191-0.696c0.593-0.39,1.197-0.762,1.819-1.101
			c0.819-0.445,1.65-0.866,2.482-1.286c0.568-0.287,1.146-0.556,1.717-0.835c0.132-0.065,0.256-0.192,0.389-0.201
			c0.304-0.018,0.502-0.256,0.769-0.32c0.276-0.065,0.522-0.191,0.778-0.296c0.618-0.253,1.239-0.501,1.857-0.752
			c0.436-0.176,0.876-0.354,1.319-0.52c0.442-0.165,0.867-0.377,1.304-0.554c0.543-0.22,1.097-0.417,1.644-0.627
			c0.655-0.252,1.347-0.407,2.005-0.652c0.678-0.253,1.385-0.406,2.075-0.6c0.694-0.195,1.367-0.504,2.101-0.557
			c0.311-0.213,0.693-0.191,1.037-0.303c0.348-0.113,0.735-0.106,1.079-0.149c0.312-0.243,0.639-0.394,1.024-0.395
			c0.282-0.001,0.565-0.01,0.846,0.003c0.228,0.011,0.434-0.034,0.613-0.155c0.012-0.056,0.021-0.104,0.032-0.156
			c0.314-0.04,0.63-0.032,0.911-0.128c0.238-0.082,0.516-0.004,0.689-0.112c0.237-0.149,0.493-0.023,0.729-0.174
			c0.193-0.124,0.489-0.083,0.738-0.126c0.129-0.022,0.251-0.08,0.38-0.101c0.136-0.021,0.286,0.013,0.412-0.031
			c0.336-0.118,0.673-0.207,1.034-0.188c0.095,0.005,0.191-0.054,0.288-0.065c0.354-0.042,0.712-0.112,1.036,0.061
			c0.435-0.152,0.853-0.313,1.313-0.31c0.635,0.004,1.27,0.015,1.904-0.005c0.299-0.01,0.602-0.065,0.893-0.138
			c0.537-0.135,1.065-0.298,1.629-0.281c0.299,0.01,0.599,0.006,0.899-0.003C92.99,17.929,93.035,17.864,93.08,17.829z"/>
		<path fill-rule="evenodd" clip-rule="evenodd" fill="none" d="M72.445,182.171c0.028-0.035,0.059-0.103,0.083-0.101
			c0.398,0.038,0.762-0.088,1.131-0.211c0.312-0.104,0.641-0.16,1.043-0.257c0.475-0.6,0.993-1.255,1.541-1.946
			c0-5.783,0-11.616,0-17.45c-0.372-0.053-0.738-0.104-1.045-0.148c-0.302,0.156-0.551,0.283-0.837,0.432
			c-0.221,0.029-0.498-0.061-0.759,0.096c-0.091,0.055-0.257,0.046-0.362,0.003c-0.424-0.176-0.805,0.03-1.192,0.119
			c-0.41,0.094-0.822,0.149-1.234,0.219c-0.992,0.166-1.984,0.064-2.975,0.087c-0.987,0.021-1.975,0.014-2.963,0
			c-0.339-0.005-0.676-0.076-1.015-0.099c-0.336-0.022-0.659-0.091-0.979-0.194c-0.111-0.035-0.242-0.026-0.362-0.018
			c-0.345,0.025-0.666-0.072-0.987-0.173c-0.222-0.07-0.457-0.09-0.683-0.134c-0.715-0.137-1.405-0.361-2.102-0.559
			c-0.217-0.061-0.449-0.093-0.66-0.191c-0.206-0.097-0.433-0.149-0.641-0.242c-0.521-0.231-1.042-0.465-1.555-0.717
			c-0.722-0.354-1.448-0.715-2.1-1.178c-0.536-0.379-1.105-0.725-1.572-1.203c-0.387-0.396-0.835-0.732-1.218-1.133
			c-0.389-0.407-0.741-0.85-1.087-1.294c-0.256-0.328-0.478-0.683-0.714-1.025c-0.216-0.312-0.409-0.636-0.571-0.98
			c-0.125-0.267-0.304-0.508-0.437-0.771c-0.331-0.657-0.555-1.358-0.835-2.035c-0.268-0.647-0.584-1.275-0.89-1.906
			c-0.498-1.027-1.116-1.982-1.757-2.924c-0.177-0.261-0.362-0.518-0.518-0.791c-0.158-0.277-0.402-0.488-0.54-0.781
			c-0.057-0.119-0.189-0.205-0.29-0.303c-0.38-0.369-0.629-0.842-0.976-1.235c-0.332-0.378-0.542-0.874-1.038-1.097
			c-0.804-0.742-1.786-1.232-2.664-1.87c-0.354-0.258-0.704-0.521-1.05-0.787c-0.89-0.687-1.612-1.551-2.431-2.313
			c0-0.477,0-0.947,0-1.4c0.137-0.057,0.254-0.113,0.378-0.153c0.343-0.11,0.685-0.223,1.033-0.316
			c0.513-0.138,1.045-0.192,1.564-0.306c0.21-0.045,0.474,0.031,0.678,0.127c0.122,0.057,0.232,0.084,0.341,0.064
			c0.387-0.066,0.761,0.062,1.115,0.139c0.346,0.075,0.706,0.146,1.054,0.248c0.518,0.155,1.044,0.283,1.557,0.461
			c0.679,0.235,1.533,0.633,2.118,1.019c0.222,0.147,0.425,0.335,0.664,0.44c0.412,0.182,0.711,0.506,1.054,0.768
			c0.48,0.368,0.886,0.832,1.354,1.217c0.343,0.282,0.649,0.6,0.915,0.943c0.492,0.634,1.065,1.195,1.562,1.828
			c0.653,0.834,1.17,1.754,1.806,2.596c0.266,0.352,0.451,0.764,0.68,1.144c0.103,0.171,0.214,0.339,0.339,0.493
			c0.216,0.268,0.453,0.517,0.67,0.783c0.339,0.418,0.677,0.84,1.089,1.186c0.596,0.501,1.181,1.012,1.823,1.463
			c1.07,0.752,2.232,1.323,3.398,1.895c0.623,0.305,1.274,0.506,1.956,0.651c0.416,0.089,0.856,0.1,1.252,0.292
			c0.085,0.041,0.208,0.008,0.313,0.008c0.564,0,1.13,0.02,1.693-0.005c0.609-0.027,1.199,0.192,1.809,0.111
			c0.414,0.189,0.852,0.074,1.279,0.105c0.567,0.042,1.118-0.103,1.653-0.233c0.361-0.089,0.737-0.164,1.098-0.269
			c0.358-0.103,0.729-0.238,1.122-0.243c0.369-0.005,0.686-0.222,1.034-0.307c0.686-0.167,1.527-0.447,2.072-0.748
			c0.316-0.175,0.626-0.359,0.983-0.565c0.034-0.186,0.078-0.412,0.118-0.641c0.038-0.214,0.062-0.432,0.109-0.644
			c0.106-0.484,0.201-0.975,0.33-1.452c0.123-0.456,0.239-0.919,0.408-1.363c0.133-0.351,0.256-0.706,0.381-1.06
			c0.269-0.756,0.656-1.459,1.024-2.166c0.29-0.556,0.625-1.096,1.029-1.588c0.274-0.335,0.489-0.719,0.757-1.059
			c0.256-0.324,0.546-0.621,0.811-0.918c-0.261-0.261-0.52-0.52-0.81-0.81c-0.824,0-1.703,0-2.58,0
			c-0.234-0.138-0.461-0.271-0.737-0.433c-0.148,0-0.361,0.012-0.571-0.004c-0.321-0.023-0.64-0.086-0.962-0.098
			c-0.323-0.012-0.622-0.087-0.925-0.196c-0.199-0.071-0.423-0.034-0.641-0.113c-0.278-0.101-0.594-0.092-0.887-0.161
			c-0.269-0.064-0.523-0.196-0.793-0.252c-0.453-0.094-0.896-0.227-1.345-0.328c-0.403-0.092-0.788-0.235-1.188-0.333
			c-0.527-0.128-1.068-0.229-1.567-0.431c-0.922-0.375-1.902-0.593-2.794-1.047c-0.325,0.004-0.604-0.165-0.894-0.271
			c-0.874-0.318-1.709-0.729-2.539-1.151c-0.452-0.229-0.901-0.465-1.352-0.695c-0.41-0.21-0.809-0.439-1.198-0.686
			c-0.277-0.174-0.569-0.326-0.86-0.477c-0.418-0.217-0.771-0.527-1.152-0.797c-0.369-0.261-0.713-0.553-1.095-0.8
			c-0.27-0.175-0.479-0.435-0.742-0.633c-0.527-0.397-1.034-0.823-1.558-1.228c-0.244-0.188-0.46-0.412-0.708-0.592
			c-0.346-0.252-0.472-0.663-0.744-0.966c-0.1-0.112-0.163-0.257-0.266-0.364c-0.343-0.355-0.712-0.686-1.041-1.054
			c-0.363-0.404-0.715-0.823-1.033-1.265c-0.437-0.605-0.85-1.23-1.25-1.862c-0.343-0.542-0.653-1.104-0.978-1.658
			c-0.225-0.383-0.464-0.758-0.667-1.151c-0.187-0.362-0.335-0.744-0.495-1.118c-0.045-0.104-0.056-0.227-0.111-0.323
			c-0.526-0.928-0.896-1.924-1.22-2.934c-0.125-0.389-0.229-0.786-0.364-1.173c-0.064-0.185-0.133-0.368-0.212-0.547
			c-0.13-0.294-0.115-0.616-0.205-0.92c-0.146-0.489-0.261-0.985-0.39-1.479c-0.059-0.225-0.077-0.456-0.133-0.684
			c-0.141-0.575-0.3-1.146-0.466-1.714c-0.018-0.062-0.078-0.126-0.069-0.181c0.06-0.333-0.124-0.635-0.113-0.962
			c0.011-0.335-0.024-0.673,0.01-1.005c0.033-0.318-0.039-0.632-0.143-0.896c-0.264-0.67-0.345-1.357-0.269-2.048
			c0.04-0.356,0.13-0.718,0.076-1.067c-0.072-0.459-0.045-0.939-0.251-1.375c-0.021-0.044-0.05-0.09-0.053-0.136
			c-0.039-0.567-0.068-1.135-0.11-1.702c-0.02-0.269,0.082-0.554-0.102-0.805c-0.017-0.022-0.002-0.068-0.002-0.104
			c0-0.221,0.143-0.408,0.117-0.646c-0.021-0.191-0.095-0.418,0.091-0.594c0.026-0.025,0.009-0.103,0.003-0.155
			c-0.076-0.661,0.13-1.307,0.114-1.967c-0.005-0.21,0.038-0.443,0.134-0.628c0.063-0.122,0.065-0.227,0.068-0.343
			c0.007-0.246-0.056-0.512,0.018-0.735c0.079-0.238-0.001-0.524,0.111-0.687c0.153-0.222-0.042-0.5,0.187-0.673
			c0.025-0.019,0.005-0.101,0.003-0.154c-0.019-0.461,0.141-0.898,0.189-1.344c0.063-0.588,0.254-1.141,0.363-1.713
			c0.121-0.637,0.333-1.266,0.543-1.886c0.162-0.479,0.315-0.962,0.496-1.435c0.174-0.457,0.396-0.894,0.533-1.367
			c0.058-0.2,0.217-0.368,0.307-0.561c0.254-0.547,0.474-1.11,0.75-1.646c0.249-0.483,0.553-0.936,0.832-1.403
			c0.578-0.968,1.305-1.828,1.976-2.729c0.522-0.701,1.031-1.413,1.577-2.097c0.06-0.075,0.092-0.174,0.159-0.303
			c0.055-0.575-0.184-1.184-0.104-1.809c-0.183-0.32-0.171-0.697-0.306-1.038c-0.149-0.378-0.226-0.791-0.313-1.19
			c-0.07-0.323-0.187-0.636-0.232-0.966c-0.042-0.311-0.074-0.626-0.207-0.918c-0.006-0.015,0-0.035-0.001-0.053
			c-0.035-0.514-0.094-1.028-0.101-1.543c-0.016-1.181-0.005-2.363-0.005-3.545c0-0.353-0.083-0.733,0.022-1.051
			c0.118-0.352,0.053-0.684,0.078-1.022c0.025-0.351-0.037-0.711,0.015-1.057c0.086-0.569,0.087-1.156,0.224-1.708
			c0.109-0.438,0.134-0.917,0.402-1.311c-0.019-0.278,0.14-0.51,0.195-0.763c0.057-0.261,0.137-0.506,0.221-0.757
			c0.298-0.883,0.553-1.781,0.862-2.66c0.118-0.335,0.307-0.647,0.416-0.991c0.039-0.124,0.099-0.241,0.157-0.383
			c0.879,0,1.776-0.006,2.673,0.005c0.197,0.002,0.393,0.078,0.592,0.097c0.201,0.02,0.401,0.065,0.593,0.088
			c0.418,0.051,0.823,0.144,1.233,0.229c0.484,0.102,0.964,0.207,1.431,0.379c0.322,0.119,0.669,0.174,1.004,0.26
			c0.127,0.033,0.253,0.071,0.379,0.105c0.805,0.222,1.597,0.486,2.391,0.743c0.216,0.07,0.425,0.169,0.635,0.255
			c0.498,0.204,0.975,0.458,1.458,0.695c0.352,0.173,0.704,0.346,1.049,0.531c0.39,0.209,0.805,0.357,1.208,0.533
			c0.329,0.144,0.627,0.356,0.948,0.52c0.597,0.304,1.211,0.575,1.797,0.896c0.519,0.285,1.024,0.602,1.546,0.874
			c0.715,0.374,1.378,0.829,2.09,1.206c0.425,0.225,0.792,0.556,1.192,0.832c0.247,0.17,0.504,0.326,0.839,0.542
			c0.165-0.027,0.44-0.039,0.69-0.125c0.165-0.057,0.319-0.089,0.489-0.1c0.146-0.01,0.287-0.073,0.433-0.099
			c0.553-0.101,1.107-0.193,1.641-0.383c0.218-0.078,0.461-0.112,0.681-0.13c0.606-0.05,1.161-0.284,1.747-0.393
			c0.571-0.105,1.109-0.356,1.701-0.37c0.11-0.002,0.217-0.069,0.327-0.101c0.428-0.125,0.903-0.053,1.299-0.315
			c0.024-0.016,0.069,0,0.104-0.002c0.638-0.035,1.276-0.062,1.914-0.108c0.349-0.025,0.692-0.094,1.033-0.185
			c0.164-0.044,0.347-0.015,0.52-0.024c0.585-0.034,1.172-0.054,1.755-0.113c0.257-0.026,0.502-0.161,0.76-0.196
			c0.26-0.035,0.549,0.056,0.789-0.021c0.429-0.139,0.857-0.055,1.283-0.095c0.216-0.02,0.431-0.103,0.644-0.097
			c0.709,0.02,1.412,0.134,2.126,0.105c0.704-0.028,1.411-0.008,2.116-0.003c0.08,0,0.159,0.047,0.241,0.054
			c0.166,0.014,0.347,0.062,0.495,0.013c0.394-0.131,0.782-0.065,1.173-0.032c0.027,0.002,0.051,0.045,0.084,0.077
			c0.263-0.113,0.522-0.186,0.819-0.042c0.13,0.063,0.327-0.005,0.492-0.021c0.1-0.01,0.205-0.066,0.294-0.045
			c0.279,0.067,0.598,0.031,0.836,0.148c0.28,0.138,0.598-0.097,0.84,0.157c0.042,0.044,0.172,0.017,0.258,0.004
			c0.522-0.072,1.03,0.08,1.542,0.129c0.246,0.023,0.498,0.092,0.751,0.079c0.164-0.008,0.323-0.073,0.486-0.099
			c0.451-0.07,0.854,0.166,1.288,0.21c0.109,0.168,0.323,0.038,0.421,0.122c0.148,0.128,0.297,0.063,0.443,0.091
			c0.162,0.031,0.323,0.072,0.485,0.104c0.146,0.029,0.317-0.065,0.44,0.092c0.015,0.019,0.065,0.019,0.098,0.014
			c0.488-0.079,0.952,0.138,1.438,0.115c0.195-0.01,0.394,0.065,0.591,0.098c0.182,0.029,0.389-0.079,0.538,0.106
			c0.332-0.066,0.662,0.038,0.948,0.141c0.276,0.1,0.59,0.096,0.837,0.277c0.543-0.003,1.044,0.2,1.558,0.33
			c0.814,0.206,1.646,0.339,2.448,0.6c0.219,0.071,0.458,0.076,0.766,0.124c0.381-0.251,0.82-0.547,1.265-0.833
			c0.933-0.601,1.833-1.25,2.794-1.809c0.992-0.577,2.058-1.009,3.049-1.583c0.554-0.322,1.12-0.626,1.683-0.927
			c0.599-0.32,1.189-0.685,1.857-0.875c0.185-0.052,0.347-0.182,0.523-0.268c0.543-0.264,1.115-0.459,1.674-0.685
			c0.82-0.331,1.664-0.585,2.502-0.862c0.344-0.114,0.702-0.162,1.043-0.289c0.322-0.119,0.668-0.175,1.003-0.261
			c0.062-0.017,0.124-0.063,0.186-0.06c0.462,0.021,0.884-0.197,1.34-0.228c0.097-0.006,0.201-0.091,0.327-0.098
			c0.409-0.023,0.817-0.079,1.227-0.097c0.405-0.018,0.811-0.004,1.217-0.004c0.423,0,0.847,0,1.265,0
			c0.128,0.126,0.254,0.249,0.355,0.349c0.047,0.19,0.049,0.375,0.134,0.506c0.229,0.356,0.269,0.772,0.411,1.154
			c0.137,0.368,0.227,0.753,0.34,1.129c0.181,0.597,0.359,1.194,0.527,1.794c0.151,0.537,0.227,1.095,0.445,1.612
			c0.02,0.045,0.067,0.088,0.065,0.13c-0.026,0.458,0.065,0.898,0.19,1.335c0.008,0.027-0.059,0.075-0.095,0.12
			c0.073,0.136,0.143,0.267,0.226,0.42c0,0.393-0.062,0.828,0.012,1.237c0.174,0.956,0.064,1.913,0.088,2.869
			c0.023,0.969,0.02,1.94-0.002,2.91c-0.008,0.346-0.102,0.689-0.168,1.109c0.1,0.236,0.1,0.236-0.153,0.647
			c0.109,0.577-0.152,1.11-0.322,1.644c-0.181,0.572-0.323,1.14-0.431,1.73c-0.065,0.359,0.019,0.737-0.113,1.059
			c-0.145,0.352-0.003,0.69-0.084,1.008c0.491,0.604,1.01,1.16,1.391,1.827c0.125,0.218,0.317,0.397,0.474,0.599
			c0.371,0.48,0.745,0.958,1.105,1.447c0.217,0.294,0.427,0.596,0.612,0.911c0.292,0.496,0.62,0.967,0.887,1.482
			c0.278,0.537,0.561,1.074,0.851,1.605c0.283,0.521,0.495,1.071,0.702,1.615c0.279,0.73,0.604,1.449,0.784,2.216
			c0.06,0.255,0.135,0.507,0.225,0.753c0.093,0.251,0.207,0.495,0.175,0.774c0.236,0.381,0.169,0.836,0.303,1.249
			c0.13,0.404,0.191,0.832,0.32,1.243c0.095,0.302,0.085,0.638,0.117,0.958c0.023,0.234,0.139,0.447,0.115,0.698
			c-0.021,0.23-0.022,0.461,0.081,0.703c0.095,0.22,0.013,0.489,0.104,0.75c0.109,0.312,0.052,0.678,0.13,1.006
			c0.17,0.707,0.078,1.418,0.095,2.128c0.018,0.705-0.007,1.411,0.009,2.116c0.007,0.312-0.071,0.607-0.101,0.91
			c-0.028,0.306-0.105,0.583-0.192,0.874c-0.083,0.277-0.108,0.598-0.153,0.896c-0.163,1.08-0.007,2.164-0.104,3.238
			c-0.044,0.487-0.094,0.993-0.285,1.464c-0.036,0.091-0.022,0.207-0.015,0.311c0.025,0.328-0.087,0.628-0.177,0.934
			c-0.014,0.047-0.038,0.096-0.034,0.143c0.019,0.225-0.05,0.431-0.101,0.646c-0.11,0.474-0.141,0.966-0.231,1.441
			c-0.109,0.566-0.125,1.152-0.371,1.697c-0.127,0.277-0.174,0.602-0.237,0.902c-0.141,0.664-0.358,1.297-0.598,1.926
			c-0.169,0.441-0.307,0.896-0.458,1.343c-0.146,0.435-0.32,0.859-0.489,1.28c-0.388,0.969-0.816,1.922-1.319,2.841
			c-0.389,0.71-0.811,1.397-1.253,2.072c-0.383,0.585-0.793,1.153-1.188,1.731c-0.285,0.416-0.569,0.828-0.896,1.219
			c-1.064,1.265-2.293,2.368-3.461,3.529c-0.467,0.464-0.94,0.933-1.449,1.351c-0.807,0.663-1.67,1.243-2.621,1.707
			c-0.852,0.415-1.683,0.886-2.506,1.356c-0.812,0.464-1.645,0.887-2.49,1.273c-0.828,0.381-1.673,0.729-2.527,1.053
			c-0.717,0.273-1.461,0.465-2.163,0.781c-0.325,0.146-0.699,0.217-1.057,0.248c-0.24,0.021-0.464,0.082-0.687,0.145
			c-0.289,0.078-0.578,0.182-0.874,0.178c-0.333-0.005-0.622,0.121-0.913,0.232c-0.349,0.134-0.679,0.318-1.018,0.479
			c-0.199,0.095-0.45-0.041-0.629,0.144c-0.35-0.078-0.671,0.107-1.015,0.111c-0.179,0.002-0.359,0.062-0.537,0.102
			c-0.582,0.128-1.179,0.187-1.743,0.391c-0.062,0.021-0.132,0.03-0.198,0.029c-0.46-0.003-0.896,0.118-1.344,0.202
			c-0.645,0.121-1.305,0.153-1.964,0.118c-0.035-0.002-0.084,0.015-0.104-0.004c-0.303-0.26-0.527-0.026-0.788,0.113
			c0,0.297,0,0.591,0,0.887c0.481,0.527,0.99,1.052,1.463,1.607c0.495,0.582,0.853,1.256,1.158,1.953
			c0.189,0.433,0.375,0.867,0.549,1.307c0.167,0.423,0.339,0.85,0.531,1.26c0.175,0.373,0.266,0.771,0.448,1.139
			c0.144,0.289,0.188,0.627,0.272,0.945c0.091,0.352,0.175,0.703,0.264,1.055c0.012,0.047,0.057,0.094,0.051,0.136
			c-0.067,0.488,0.096,0.957,0.113,1.438c0.013,0.34,0.007,0.7,0.123,1.007c0.073,0.193,0.047,0.368,0.087,0.546
			c0.041,0.179,0.082,0.355,0.114,0.537c0.199,1.13,0.086,2.266,0.088,3.397c0.014,7.812,0.007,15.626,0.007,23.446
			c0.277,0.354,0.613,0.686,0.822,1.083c0.199,0.381,0.577,0.512,0.846,0.787c0.144,0.146,0.374,0.204,0.546,0.328
			c0.17,0.124,0.388,0.161,0.538,0.313C105.038,182.171,88.742,182.171,72.445,182.171z"/>
		<path fill-rule="evenodd" clip-rule="evenodd" fill="none" d="M93.08,17.829c-0.045,0.035-0.09,0.1-0.137,0.101
			c-0.3,0.009-0.6,0.013-0.899,0.003c-0.564-0.017-1.093,0.146-1.629,0.281c-0.292,0.073-0.594,0.128-0.893,0.138
			c-0.634,0.021-1.27,0.01-1.904,0.005c-0.46-0.004-0.878,0.157-1.313,0.31c-0.324-0.173-0.682-0.104-1.036-0.061
			c-0.097,0.012-0.193,0.07-0.288,0.065c-0.361-0.018-0.698,0.07-1.034,0.188c-0.125,0.044-0.276,0.009-0.412,0.031
			c-0.129,0.021-0.251,0.078-0.38,0.101c-0.249,0.043-0.544,0.002-0.738,0.126c-0.237,0.151-0.492,0.025-0.729,0.174
			c-0.173,0.107-0.451,0.03-0.689,0.112c-0.281,0.096-0.597,0.089-0.911,0.128c-0.011,0.052-0.021,0.101-0.032,0.156
			c-0.179,0.121-0.385,0.166-0.613,0.155c-0.281-0.013-0.564-0.004-0.846-0.003c-0.385,0.001-0.712,0.152-1.024,0.395
			c-0.344,0.042-0.731,0.036-1.079,0.149c-0.343,0.111-0.726,0.09-1.037,0.303c-0.734,0.053-1.406,0.361-2.101,0.557
			c-0.69,0.194-1.397,0.347-2.075,0.6c-0.658,0.245-1.35,0.4-2.005,0.652c-0.547,0.21-1.101,0.407-1.644,0.627
			c-0.438,0.177-0.862,0.389-1.304,0.554c-0.443,0.165-0.883,0.343-1.319,0.52c-0.618,0.25-1.239,0.499-1.857,0.752
			c-0.255,0.105-0.502,0.231-0.778,0.296c-0.267,0.064-0.465,0.302-0.769,0.32c-0.133,0.008-0.257,0.136-0.389,0.201
			c-0.572,0.279-1.149,0.548-1.717,0.835c-0.832,0.42-1.663,0.841-2.482,1.286c-0.623,0.339-1.226,0.711-1.819,1.101
			c-0.384,0.252-0.8,0.455-1.191,0.696c-0.788,0.486-1.566,0.987-2.351,1.477c-0.518,0.323-1.045,0.631-1.56,0.958
			c-0.365,0.232-0.72,0.479-1.075,0.728c-0.602,0.42-1.185,0.873-1.805,1.265c-0.953,0.601-1.833,1.299-2.723,1.983
			c-0.364,0.279-0.725,0.559-1.073,0.859c-0.506,0.438-1.018,0.867-1.523,1.306c-0.584,0.508-1.166,1.02-1.747,1.531
			c-0.365,0.32-0.68,0.709-1.078,0.97c-0.81,0.533-1.425,1.262-2.108,1.923c-0.696,0.675-1.377,1.365-2.057,2.057
			c-0.166,0.169-0.301,0.368-0.452,0.552s-0.378,0.302-0.454,0.553c-0.018,0.06-0.095,0.102-0.145,0.151
			c-0.39,0.386-0.719,0.821-1.051,1.256c-0.229,0.3-0.501,0.567-0.743,0.858c-0.292,0.353-0.554,0.729-0.85,1.081
			c-0.271,0.323-0.524,0.663-0.791,0.993c-0.499,0.617-1.038,1.201-1.476,1.87c-0.322,0.493-0.726,0.932-1.07,1.411
			c-0.27,0.376-0.497,0.782-0.753,1.167c-0.358,0.54-0.647,1.122-1.074,1.622c-0.31,0.363-0.521,0.807-0.78,1.21
			c-0.564,0.876-1.133,1.75-1.679,2.637c-0.352,0.572-0.738,1.128-1.031,1.738c-0.289,0.604-0.605,1.195-0.906,1.793
			c-0.198,0.394-0.388,0.792-0.588,1.185c-0.17,0.334-0.291,0.69-0.457,1.028c-0.163,0.333-0.397,0.638-0.452,1.032
			c-0.025,0.181-0.204,0.334-0.283,0.514c-0.323,0.731-0.683,1.445-1.003,2.176c-0.365,0.835-0.706,1.684-1.071,2.518
			c-0.472,1.078-0.884,2.175-1.253,3.29c-0.16,0.482-0.25,0.989-0.423,1.465c-0.161,0.444-0.319,0.88-0.289,1.336
			c-0.251,0.386-0.345,0.809-0.416,1.226c-0.092,0.541-0.26,1.06-0.375,1.593c-0.107,0.499-0.241,0.991-0.375,1.483
			c-0.165,0.603-0.275,1.218-0.472,1.814c-0.082,0.248-0.112,0.524-0.178,0.775c-0.123,0.466-0.098,0.956-0.288,1.413
			c-0.085,0.204-0.066,0.462-0.101,0.693c-0.074,0.5-0.237,0.986-0.23,1.497c-0.206,0.342-0.204,0.732-0.258,1.109
			c-0.017,0.116-0.055,0.23-0.057,0.346c-0.007,0.423-0.002,0.846-0.002,1.267c-0.2,0.336-0.334,0.686-0.321,1.087
			c0.015,0.458,0,0.917,0.005,1.375c0.002,0.172-0.015,0.329-0.101,0.489c-0.068,0.127,0.019,0.287-0.069,0.448
			c-0.083,0.151-0.043,0.37-0.059,0.577c-0.056,0.038-0.126,0.084-0.196,0.132c0-25.891,0-51.783,0-77.674
			C39.252,17.829,66.166,17.829,93.08,17.829z"/>
		<path fill-rule="evenodd" clip-rule="evenodd" fill="none" d="M182.5,96.561c-0.03-0.013-0.085-0.022-0.087-0.038
			c-0.045-0.371-0.084-0.743-0.125-1.114c-0.007-0.066,0.002-0.146-0.031-0.198c-0.207-0.322-0.19-0.682-0.178-1.037
			c0.026-0.729-0.188-1.446-0.108-2.178c0.004-0.036,0.014-0.079-0.002-0.105c-0.349-0.611-0.165-1.28-0.208-1.924
			c-0.011-0.158-0.003-0.317-0.001-0.476c0.004-0.277-0.065-0.525-0.244-0.747c-0.127-0.157-0.213-0.345-0.179-0.559
			c0.077-0.488-0.051-0.969-0.127-1.434c-0.146-0.893-0.304-1.79-0.606-2.653c-0.12-0.342-0.104-0.732-0.232-1.068
			c-0.129-0.341-0.105-0.722-0.306-1.038c-0.01-0.557-0.227-1.073-0.319-1.614c-0.02-0.111-0.092-0.216-0.099-0.327
			c-0.017-0.287-0.252-0.495-0.234-0.812c0.016-0.266-0.108-0.545-0.197-0.81c-0.138-0.408-0.199-0.833-0.319-1.244
			c-0.115-0.39-0.282-0.765-0.417-1.149c-0.377-1.078-0.618-2.204-1.156-3.225c-0.104-0.671-0.466-1.254-0.655-1.899
			c-0.109-0.371-0.359-0.697-0.499-1.061c-0.353-0.915-0.783-1.793-1.204-2.676c-0.337-0.708-0.683-1.412-1.038-2.109
			c-0.558-1.093-1.126-2.179-1.691-3.268c-0.159-0.305-0.326-0.606-0.485-0.91c-0.152-0.29-0.295-0.584-0.45-0.872
			c-0.354-0.654-0.723-1.302-1.167-1.895c-0.573-0.765-1.082-1.573-1.668-2.331c-0.404-0.523-0.731-1.105-1.099-1.658
			c-0.203-0.305-0.418-0.603-0.63-0.903c-0.317-0.451-0.63-0.905-0.958-1.349c-0.282-0.38-0.575-0.753-0.877-1.118
			c-0.303-0.367-0.562-0.766-0.88-1.125c-0.143-0.161-0.276-0.344-0.43-0.501c-0.297-0.307-0.548-0.645-0.789-0.995
			c-0.193-0.281-0.432-0.535-0.67-0.781c-0.516-0.533-0.935-1.145-1.439-1.689c-0.316-0.34-0.65-0.67-0.95-1.026
			c-1.237-1.465-2.683-2.727-4.006-4.107c-0.307-0.32-0.662-0.583-1.033-0.824c-0.029-0.019-0.05-0.05-0.075-0.074
			c-0.422-0.387-0.833-0.785-1.269-1.156c-0.359-0.306-0.746-0.579-1.12-0.868c-0.095-0.072-0.19-0.142-0.278-0.221
			c-0.424-0.385-0.826-0.796-1.271-1.154c-0.665-0.534-1.353-1.036-2.078-1.49c-0.566-0.354-1.087-0.782-1.633-1.171
			c-0.855-0.608-1.702-1.228-2.592-1.787c-0.562-0.353-1.104-0.739-1.666-1.091c-0.403-0.253-0.828-0.471-1.236-0.716
			c-0.553-0.331-1.099-0.671-1.646-1.009c-0.113-0.07-0.214-0.164-0.332-0.221c-0.521-0.25-1.014-0.543-1.499-0.856
			c-0.327-0.211-0.698-0.354-1.048-0.532c-0.538-0.274-1.091-0.518-1.632-0.786c-0.542-0.269-1.068-0.571-1.621-0.812
			c-0.701-0.306-1.398-0.627-2.132-0.856c-0.264-0.083-0.463-0.33-0.77-0.314c-0.585-0.333-1.24-0.495-1.849-0.774
			c-0.755-0.346-1.542-0.621-2.318-0.917c-0.351-0.134-0.705-0.263-1.066-0.361c-0.664-0.18-1.283-0.5-1.946-0.662
			c-0.592-0.145-1.167-0.351-1.766-0.474c-0.476-0.098-0.926-0.313-1.388-0.477c-0.678-0.24-1.4-0.345-2.049-0.673
			c-0.281,0.07-0.526-0.132-0.802-0.107c-0.241,0.021-0.468-0.033-0.699-0.099c-0.207-0.059-0.452,0.072-0.642-0.112
			c-0.4,0.039-0.742-0.158-1.102-0.28c-0.03-0.01-0.062-0.04-0.09-0.035c-0.384,0.074-0.743-0.116-1.12-0.106
			c-0.325,0.008-0.623-0.089-0.927-0.19c-0.466-0.153-0.948-0.248-1.41-0.428c-0.216-0.084-0.494-0.058-0.744-0.116
			c-0.295-0.069-0.604-0.092-0.907-0.11c-0.299-0.018-0.6-0.004-0.898-0.004c-0.036,0-0.071-0.002-0.106,0
			c-0.451,0.035-0.869-0.022-1.252-0.307c-0.114-0.085-0.297-0.129-0.478-0.126c-0.214,0.004-0.429-0.061-0.644-0.097
			c-0.262-0.043-0.5,0.071-0.75,0.104c-0.233,0.031-0.472-0.041-0.704,0.095c-0.079,0.046-0.244-0.061-0.372-0.092
			c-0.321-0.08-0.656-0.1-0.97-0.214c-0.131-0.048-0.291-0.053-0.358-0.21c26.35,0,52.699,0,79.049,0
			C182.5,44.073,182.5,70.317,182.5,96.561z"/>
		<path fill-rule="evenodd" clip-rule="evenodd" fill="none" d="M123.98,182.171c0.045-0.035,0.094-0.104,0.136-0.1
			c0.265,0.025,0.489-0.09,0.723-0.178c0.504-0.188,1.014-0.363,1.508-0.572c0.723-0.306,1.477-0.521,2.211-0.792
			c0.703-0.259,1.396-0.549,2.101-0.806c0.549-0.199,1.055-0.517,1.579-0.782c1.005-0.511,1.985-1.078,3.021-1.518
			c1.205-0.512,2.351-1.137,3.521-1.713c0.411-0.203,0.795-0.47,1.2-0.682c0.614-0.322,1.179-0.722,1.777-1.065
			c0.502-0.288,0.984-0.611,1.466-0.932c0.872-0.58,1.723-1.192,2.609-1.749c0.746-0.469,1.477-0.957,2.192-1.469
			c0.589-0.42,1.156-0.87,1.735-1.304c0.146-0.109,0.299-0.211,0.455-0.307c0.26-0.16,0.495-0.349,0.728-0.548
			c0.347-0.299,0.678-0.616,1.062-0.873c0.269-0.18,0.511-0.405,0.743-0.633c0.442-0.433,0.904-0.839,1.41-1.195
			c0.057-0.04,0.099-0.1,0.15-0.147c0.521-0.487,1.024-0.994,1.568-1.455c1.396-1.182,2.596-2.562,3.916-3.818
			c0.371-0.572,0.955-0.971,1.278-1.585c0.079-0.149,0.241-0.255,0.367-0.378c0.293-0.286,0.517-0.625,0.756-0.954
			c0.189-0.261,0.437-0.479,0.636-0.741c0.475-0.623,1-1.207,1.485-1.821c0.535-0.678,1.081-1.349,1.6-2.037
			c0.463-0.613,0.922-1.233,1.374-1.855c0.433-0.595,0.854-1.199,1.243-1.819c0.388-0.614,0.828-1.194,1.167-1.841
			c0.16-0.306,0.358-0.596,0.543-0.883c0.446-0.697,0.822-1.438,1.323-2.103c0.204-0.271,0.331-0.601,0.493-0.903
			c0.361-0.68,0.694-1.376,1.093-2.031c0.309-0.507,0.522-1.061,0.871-1.549c0.211-0.297,0.295-0.686,0.436-1.032
			c0.024-0.062,0.048-0.122,0.067-0.185c0.091-0.297,0.308-0.533,0.366-0.854c0.056-0.302,0.254-0.561,0.32-0.873
			c0.035-0.165,0.206-0.298,0.303-0.454c0.183-0.292,0.301-0.626,0.404-0.941c0.152-0.47,0.391-0.898,0.569-1.353
			c0.238-0.605,0.473-1.215,0.729-1.813c0.444-1.037,0.641-2.162,1.157-3.17c-0.012-0.412,0.289-0.727,0.336-1.136
			c0.044-0.382,0.195-0.763,0.315-1.134c0.122-0.379,0.188-0.77,0.279-1.148c0.087-0.369,0.257-0.73,0.233-1.125
			c0.217-0.234,0.161-0.562,0.289-0.832c0.118-0.249,0.165-0.531,0.271-0.786c0.191-0.46,0.25-0.953,0.396-1.423
			c0.195-0.63,0.225-1.301,0.493-1.911c0.04-0.089,0.031-0.202,0.03-0.304c-0.003-0.375,0.083-0.729,0.193-1.084
			c0.073-0.238-0.04-0.515,0.126-0.742c-0.067-0.417,0.143-0.811,0.106-1.225c-0.005-0.053-0.023-0.127,0.003-0.156
			c0.214-0.236,0.149-0.544,0.229-0.808c0.079-0.261,0.073-0.505,0.081-0.757c0.012-0.352,0.003-0.705,0.003-1.055
			c0.204-0.336,0.337-0.686,0.321-1.088c-0.015-0.352,0.018-0.707-0.008-1.057c-0.046-0.609,0.039-1.211,0.125-1.806
			c0.066-0.462,0.209-0.915,0.215-1.39c0.001-0.013,0.058-0.025,0.088-0.038c0,24.939,0,49.878,0,74.816
			C162.993,182.171,143.486,182.171,123.98,182.171z"/>
		<path fill-rule="evenodd" clip-rule="evenodd" fill="none" d="M12.338,107.672c0.069,0.047,0.139,0.094,0.198,0.133
			c0.015,0.242-0.037,0.499,0.059,0.681c0.117,0.224-0.046,0.47,0.102,0.645c0.16,0.19-0.052,0.455,0.165,0.627
			c0.043,0.034,0.006,0.169,0.006,0.257c0,0.406-0.01,0.811,0.003,1.217c0.011,0.339-0.008,0.673,0.082,1.019
			c0.082,0.317,0.068,0.662,0.221,0.97c0.014,0.029,0.01,0.067,0.011,0.102c0.009,0.253,0.018,0.498,0.09,0.754
			c0.074,0.262-0.011,0.562,0.024,0.84c0.031,0.24,0.121,0.477,0.206,0.706c0.15,0.401,0.108,0.816,0.098,1.227
			c-0.009,0.387,0.124,0.716,0.322,1.069c0,0.176,0.004,0.387-0.001,0.598c-0.005,0.172,0.015,0.328,0.1,0.488
			c0.069,0.128-0.015,0.286,0.07,0.448c0.104,0.197,0.104,0.449,0.149,0.677c0.138,0.696,0.262,1.394,0.493,2.07
			c0.154,0.449,0.263,0.92,0.346,1.389c0.076,0.425,0.198,0.836,0.336,1.238c0.124,0.359,0.205,0.729,0.292,1.092
			c0.134,0.562,0.299,1.113,0.446,1.67c0.171,0.646,0.405,1.276,0.628,1.907c0.19,0.538,0.408,1.065,0.603,1.601
			c0.274,0.751,0.636,1.465,0.893,2.224c0.107,0.315,0.263,0.631,0.411,0.938c0.205,0.429,0.383,0.865,0.525,1.317
			c0.015,0.046,0.028,0.095,0.049,0.138c0.385,0.811,0.772,1.62,1.158,2.43c0.232,0.485,0.455,0.976,0.699,1.455
			c0.452,0.889,0.898,1.781,1.38,2.654c0.286,0.518,0.59,1.028,0.897,1.536c0.27,0.447,0.522,0.91,0.791,1.361
			c0.295,0.496,0.594,0.991,0.909,1.475c0.571,0.876,1.166,1.737,1.732,2.616c0.371,0.576,0.77,1.131,1.181,1.679
			c0.616,0.818,1.197,1.664,1.842,2.459c0.471,0.581,0.922,1.179,1.399,1.756c0.453,0.551,0.962,1.058,1.36,1.652
			c0.029,0.043,0.074,0.076,0.111,0.113c0.501,0.496,0.946,1.042,1.39,1.59c0.288,0.354,0.66,0.638,0.962,0.98
			c0.985,1.119,2.033,2.178,3.117,3.197c0.609,0.572,1.197,1.17,1.827,1.718c0.299,0.261,0.572,0.554,0.885,0.792
			c0.624,0.476,1.154,1.061,1.804,1.509c0.338,0.232,0.616,0.551,0.935,0.813c0.498,0.407,0.987,0.829,1.517,1.192
			c0.863,0.592,1.719,1.195,2.589,1.778c0.776,0.521,1.509,1.112,2.293,1.628c0.676,0.444,1.369,0.863,2.056,1.292
			c0.434,0.271,0.867,0.542,1.307,0.802c0.282,0.167,0.579,0.307,0.863,0.47c0.611,0.35,1.23,0.682,1.86,0.998
			c0.587,0.293,1.138,0.656,1.718,0.961c0.665,0.35,1.345,0.669,2.018,1.003c0.731,0.363,1.455,0.741,2.192,1.091
			c0.647,0.308,1.306,0.59,1.988,0.818c0.604,0.202,1.165,0.51,1.735,0.79c0.69,0.339,1.376,0.699,2.157,0.793
			c0.489,0.271,1.046,0.361,1.559,0.577c0.531,0.224,1.083,0.46,1.697,0.382c0.09-0.011,0.258-0.107,0.296,0.099
			c-19.719,0-39.437,0-59.155,0C12.338,157.338,12.338,132.506,12.338,107.672z"/>
		<path fill-rule="evenodd" clip-rule="evenodd" fill="none" d="M12.338,102.805c0.035,0.027,0.101,0.055,0.101,0.083
			c0.005,1.108,0.005,2.218,0,3.325c0,0.028-0.066,0.056-0.101,0.084C12.338,105.133,12.338,103.969,12.338,102.805z"/>
		<path fill-rule="evenodd" clip-rule="evenodd" fill="none" d="M12.338,95.714c0.035,0.028,0.101,0.054,0.101,0.083
			c0.007,0.368,0.007,0.736,0,1.104c0,0.028-0.066,0.055-0.101,0.083C12.338,96.561,12.338,96.137,12.338,95.714z"/>
	</g>
</g>
</svg>
