<?xml version="1.0" encoding="utf-8"?>
<!-- Generator: Adobe Illustrator 16.0.0, SVG Export Plug-In . SVG Version: 6.00 Build 0)  -->
<!DOCTYPE svg PUBLIC "-//W3C//DTD SVG 1.1//EN" "http://www.w3.org/Graphics/SVG/1.1/DTD/svg11.dtd">
<svg version="1.1" id="Layer_1" xmlns="http://www.w3.org/2000/svg" xmlns:xlink="http://www.w3.org/1999/xlink" x="0px" y="0px"
	 width="170.14px" height="170.141px" viewBox="13.208 7.838 170.14 170.141" enable-background="new 13.208 7.838 170.14 170.141"
	 xml:space="preserve">
<path fill="none" stroke="#C5C5C5" stroke-width="3" stroke-miterlimit="10" d="M98.278,9.338c46.154,0,83.57,37.416,83.57,83.569
	c0,46.155-37.416,83.571-83.57,83.571s-83.57-37.416-83.57-83.571C14.708,46.753,52.125,9.338,98.278,9.338z"/>
<g id="Logo">
	<path fill="#96D700" d="M82.616,143.953c15.679,4.73,32.658,2.111,46.182-7.123L82.616,81.779V143.953z"/>
	<path fill="#96D700" d="M44.113,92.125c-0.01,14.179,5.564,27.792,15.517,37.894V54.229C49.678,64.33,44.104,77.944,44.113,92.125z
		"/>
	<path fill="#96D700" d="M82.616,46.602l61.857,73.707c15.606-25.495,7.59-58.815-17.905-74.421
		C108.842,35.038,86.47,35.295,68.999,46.55h13.617V46.602z"/>
</g>
</svg>
