<?xml version="1.0" encoding="utf-8"?>
<!-- Generator: Adobe Illustrator 16.0.0, SVG Export Plug-In . SVG Version: 6.00 Build 0)  -->
<!DOCTYPE svg PUBLIC "-//W3C//DTD SVG 1.1//EN" "http://www.w3.org/Graphics/SVG/1.1/DTD/svg11.dtd">
<svg version="1.1" id="Layer_1" xmlns="http://www.w3.org/2000/svg" xmlns:xlink="http://www.w3.org/1999/xlink" x="0px" y="0px"
	 width="170.14px" height="170.141px" viewBox="13.208 7.838 170.14 170.141" enable-background="new 13.208 7.838 170.14 170.141"
	 xml:space="preserve">
<path fill="none" stroke="#0EBAF1" stroke-width="3" stroke-miterlimit="10" d="M98.278,9.338c46.154,0,83.57,37.416,83.57,83.569
	c0,46.155-37.416,83.571-83.57,83.571s-83.57-37.416-83.57-83.571C14.708,46.753,52.125,9.338,98.278,9.338z"/>
<path fill="#213A86" d="M39.405,76.215h-15.52c-0.751-0.015-1.373,0.582-1.389,1.333c-0.002,0.101,0.007,0.202,0.028,0.3v35.938l0,0
	c0.131,0.645,0.704,1.103,1.361,1.09h6.807c0.816,0,1.361-0.272,1.361-1.09v-10.073h6.534c4.009,0.104,7.537-2.628,8.441-6.534
	c0.357-1.146,0.541-2.339,0.544-3.54v-8.44C47.3,79.209,44.033,76.759,39.405,76.215z M38.043,92.278
	c0,0.903-0.731,1.634-1.633,1.634l0,0h-4.083v-8.168h4.083c0.902,0,1.633,0.732,1.633,1.633l0,0V92.278z"/>
<path fill="#213A86" d="M65.813,76.215H55.195c-0.817,0-1.634,0.272-1.634,1.089v6.534l0,0c-0.015,0.752,0.582,1.374,1.333,1.39
	c0.101,0.002,0.202-0.008,0.3-0.028h8.984c1.634,0,1.634,3.54,0,3.54h-5.717c-4.961,0.13-8.877,4.255-8.748,9.216
	c0.006,0.195,0.017,0.391,0.035,0.585c-0.293,3.351-0.293,6.721,0,10.074c0.768,3.763,4.055,6.483,7.896,6.534H71.53
	c2.003,0.005,3.669-1.542,3.812-3.539V86.561C75.342,79.754,72.075,76.487,65.813,76.215z M65.813,105.074
	c0,0.752-0.609,1.361-1.362,1.361h-3.539c-0.752,0-1.361-0.609-1.361-1.361v-5.718c0-0.751,0.609-1.36,1.361-1.36h3.267
	c0.752,0,1.361,0.609,1.361,1.36v5.718H65.813z"/>
<path fill="#213A86" d="M78.61,77.849V93.64c0.557,4.984,4.786,8.743,9.8,8.713h4.356c1.906,0,1.635,3.267,0,3.267h-9.8
	c-1.09,0-1.363,0.545-1.363,1.634v7.078c0,0.752,0.61,1.361,1.363,1.361h9.256c7.625,0,11.708-3.539,11.708-11.707V77.304
	c0.015-0.51-0.323-0.962-0.817-1.089H95.49c-0.817,0-1.088,0.817-1.088,1.361v14.158c0,0.452-0.367,0.816-0.818,0.816h-3.812
	c-0.545,0-1.089-0.544-1.362-1.088l0,0V77.576c0-0.817-0.272-1.633-1.36-1.633h-7.08C78.882,75.943,78.61,76.759,78.61,77.849
	L78.61,77.849z"/>
<path fill="#05AEE9" d="M107.47,84.383v-6.807c0-0.752,0.609-1.361,1.36-1.361h1.634c4.084-0.817,5.173-3.267,7.896-6.262
	c2.723-2.994,2.994-2.178,4.083-0.272v6.534h4.084c0.751,0,1.36,0.609,1.36,1.361v7.079c0,0.752-0.609,1.361-1.36,1.361h-4.084
	v28.043c0,0.752-0.609,1.361-1.36,1.361h-6.809c-0.751,0-1.36-0.609-1.36-1.361V85.744h-3.811c-0.738,0.15-1.456-0.325-1.607-1.062
	C107.476,84.584,107.466,84.483,107.47,84.383z"/>
<path fill="#05AEE9" d="M156.204,113.515c0,0.902-0.733,1.634-1.634,1.634h-6.533c-0.903,0-1.636-0.731-1.636-1.634V87.649
	c0-2.722-5.717-3.267-5.717,0v25.865c0,0.902-0.731,1.634-1.634,1.634h-6.261c-0.902,0-1.634-0.731-1.634-1.634l0,0V77.576
	c0-0.902,0.731-1.633,1.634-1.633h6.534c0.902,0,1.633,0.731,1.633,1.633l0,0v0.545c4.015-3.447,10.04-3.086,13.613,0.816
	c6.534-7.623,17.697-0.816,17.153,7.351c-0.546,8.168,0,17.97,0,27.227c0,0.902-0.733,1.634-1.636,1.634h-6.533
	c-0.901,0-1.634-0.731-1.634-1.634V87.922c-0.273-3.54-5.717-2.723-5.717,0C156.204,96.362,156.204,105.074,156.204,113.515
	L156.204,113.515z"/>
</svg>
