<?xml version="1.0" encoding="utf-8"?>
<!-- Generator: Adobe Illustrator 16.0.0, SVG Export Plug-In . SVG Version: 6.00 Build 0)  -->
<!DOCTYPE svg PUBLIC "-//W3C//DTD SVG 1.1//EN" "http://www.w3.org/Graphics/SVG/1.1/DTD/svg11.dtd">
<svg version="1.1" id="Layer_1" xmlns="http://www.w3.org/2000/svg" xmlns:xlink="http://www.w3.org/1999/xlink" x="0px" y="0px"
	 width="117.947px" height="172.669px" viewBox="43.309 16.667 117.947 172.669"
	 enable-background="new 43.309 16.667 117.947 172.669" xml:space="preserve">
<path fill="#218185" d="M136.585,175.834c-9.12,4.5-17.617,8.688-27.373,13.502c-7.104-15.932-13.404-30.068-20.444-45.873
	c-14.985,5.67-29.725,11.256-45.459,17.212c0-46.998,0-92.391,0-144.008c41.42,33.456,78.814,63.659,117.947,95.26
	c-15.775,6.929-29.242,12.835-44.199,19.4C123.672,146.389,129.846,160.457,136.585,175.834z M143.598,109.365
	C113.602,84.907,85.4,61.908,56.145,38.048C55.822,60.712,124.134,117.329,143.598,109.365z"/>
</svg>
